<?xml version="1.0" standalone="no"?>
<!DOCTYPE svg PUBLIC "-//W3C//DTD SVG 20010904//EN"
 "http://www.w3.org/TR/2001/REC-SVG-20010904/DTD/svg10.dtd">
<svg version="1.0" xmlns="http://www.w3.org/2000/svg"
 width="848.000000pt" height="848.000000pt" viewBox="0 0 848.000000 848.000000"
 preserveAspectRatio="xMidYMid meet">
<metadata>
Created by potrace 1.14, written by Peter Selinger 2001-2017
</metadata>
<g transform="translate(0.000000,848.000000) scale(0.100000,-0.100000)"
fill="#000000" stroke="none">
<path d="M3853 8373 l-83 -4 0 -1009 0 -1010 -354 0 c-195 0 -357 3 -359 8 -3
4 -31 95 -62 202 -31 107 -70 240 -86 295 -16 55 -112 381 -213 725 l-183 625
-34 -3 c-39 -4 -298 -68 -406 -101 l-73 -22 0 -864 0 -865 -500 0 -500 0 0
605 c0 335 -4 605 -9 605 -15 0 -158 -156 -220 -239 -625 -844 -928 -2799
-690 -4461 133 -935 426 -1635 824 -1972 44 -37 83 -68 88 -68 4 0 7 1103 7
2450 l0 2450 354 0 354 0 11 -32 c15 -49 97 -327 336 -1143 119 -407 225 -767
235 -800 26 -85 447 -1524 455 -1557 4 -16 11 -25 16 -22 5 3 9 749 9 1780 l0
1774 500 0 500 0 0 -2809 0 -2809 158 -7 c157 -8 760 0 882 11 l65 6 -3 547
c-3 381 0 575 8 641 53 421 301 714 723 855 178 59 280 76 504 82 235 7 375
-6 539 -47 397 -100 665 -321 784 -648 48 -133 62 -226 69 -480 l6 -234 77 66
c477 407 786 1308 880 2561 17 225 17 946 0 1180 -60 831 -199 1511 -425 2080
-49 126 -190 401 -255 500 -69 107 -161 221 -231 290 l-51 49 0 -32 0 -32
-500 0 -500 0 -2 292 -3 293 -127 37 c-107 31 -346 89 -465 113 l-33 7 0 -260
c0 -284 8 -374 47 -497 69 -223 291 -581 593 -955 385 -479 596 -782 734
-1057 73 -148 160 -368 190 -487 57 -221 61 -275 61 -856 0 -474 -2 -546 -18
-629 -86 -444 -403 -740 -902 -840 -308 -62 -683 -44 -960 46 -350 114 -589
338 -690 650 -51 156 -55 211 -55 836 l0 577 500 0 499 0 3 -557 c3 -554 3
-558 25 -603 37 -73 79 -117 149 -151 56 -28 75 -32 140 -32 94 1 164 32 228
104 81 90 81 90 81 614 0 576 -2 589 -136 855 -106 210 -274 450 -650 926
-203 258 -364 481 -455 630 -134 218 -269 518 -319 707 -54 205 -57 236 -62
683 l-5 421 -71 7 c-88 8 -830 15 -944 9z"/>
<path d="M2003 1445 l2 -1080 140 -36 c163 -43 522 -115 530 -107 4 3 -136
491 -311 1084 -174 594 -323 1104 -331 1134 -8 30 -19 62 -24 70 -5 9 -8 -441
-6 -1065z"/>
<path d="M6055 1412 c-68 -33 -127 -92 -159 -161 -21 -45 -21 -57 -21 -528 0
-265 3 -484 6 -488 13 -12 553 110 601 136 18 10 19 27 16 417 -4 459 -4 461
-81 548 -91 103 -239 134 -362 76z"/>
</g>
</svg>
