<svg id="Layer_1" data-name="Layer 1" xmlns="http://www.w3.org/2000/svg" width="98.844" height="146.614" viewBox="0 0 98.844 146.614">
  <path id="Path_1375" data-name="Path 1375" d="M205.66,1083.35a.368.368,0,0,0-.2-.242.991.991,0,0,0-.547-.114c-.366.022-.642.213-.608.428.99,5.744-3.311,8.6-7.674,9.361a11.3,11.3,0,0,1-7.152-.853,4.189,4.189,0,0,1-1.008-.79c-1.345-1.457-.095-2.508,1.5-3.835,1.784-1.488,3.8-3.179,2.465-5.807a6.579,6.579,0,0,0-2.682-2.758,10.3,10.3,0,0,0-2.38-.977,15.581,15.581,0,0,0-2.99-.5l1.5-.884c-6-3.466-6.5-8.9-1.517-12.689l-30.621-17.321-35.574,20.67,30.5,17.247a20.031,20.031,0,0,1,19.681-.178,18.04,18.04,0,0,1,2.45,1.149l6.448-3.8a12.134,12.134,0,0,1,1.912,3.466,9.994,9.994,0,0,1,.361,1.328c.49,2.5-.139,4.972-2.8,6.285.21.39.407.789.592,1.194,3.108-1.409,3.83-4.244,3.264-7.117a11.364,11.364,0,0,0-.416-1.529,14.179,14.179,0,0,0-2.223-4.028l5.215-3.075a14.716,14.716,0,0,1,3.631.474,8.825,8.825,0,0,1,2,.823,5.808,5.808,0,0,1,2.351,2.427c1.148,2.27-.593,3.729-2.276,5.14-1.629,1.36-3.314,2.771-1.586,4.646a5.2,5.2,0,0,0,1.253.98,13.345,13.345,0,0,0,8.5,1.052C201.909,1092.689,206.727,1089.566,205.66,1083.35Zm-33.134-5.089a3.866,3.866,0,0,1,.893.217c.071.025.139.057.211.083A3.827,3.827,0,0,1,172.526,1078.261Zm3.561-.122a3.234,3.234,0,0,1-.839.33,8.561,8.561,0,0,0-2.023-1.077,4.192,4.192,0,0,0-1.746-.293,1.281,1.281,0,0,1,.773-1.172,4.2,4.2,0,0,1,3.818,0c1.058.613,1.07,1.6.018,2.212Z" transform="translate(-106.965 -947.155)" fill="#040710" opacity="0.2"/>
  <g id="Group_74" data-name="Group 74" transform="translate(11.228 39.983)">
    <path id="Path_1376" data-name="Path 1376" d="M426.331,528.126c.095-.038.19-.082.284-.123l-2.393-1.393c-.367.163-.73.3-1.085.427-.034.011-.063.017-.095.028-.272.095-.538.163-.806.229-.213.056-.425.095-.636.138-.154.03-.308.063-.462.083s-.3.032-.451.044c-.178.017-.356.033-.531.039h-.375c-.181,0-.362-.011-.542-.029-.112-.008-.22-.023-.331-.038-.183-.027-.363-.061-.54-.095-.095-.019-.19-.042-.284-.066-.208-.056-.407-.122-.6-.2-.057-.021-.116-.037-.172-.062a5.947,5.947,0,0,1-.758-.368c.8.464,1.595.928,2.4,1.39l.068.038a5.883,5.883,0,0,0,.649.318.2.2,0,0,0,.04.013c.054.026.114.04.173.062a4.845,4.845,0,0,0,.474.167c.041.013.088.019.132.03.095.028.19.045.284.066s.2.054.311.071c.077.015.154.015.232.027.108.015.22.028.331.04.073.007.142.021.214.025.107.006.222,0,.33,0h.527c.122,0,.252-.027.379-.036.15-.013.3-.023.45-.046.046-.006.087-.006.133-.013.107-.015.222-.05.331-.07.212-.04.423-.083.637-.137.056-.014.108-.02.165-.033.21-.058.422-.125.635-.2.032-.01.062-.017.095-.029C425.8,528.338,426.062,528.237,426.331,528.126Z" transform="translate(-388.282 -516.661)" fill="#0b0043"/>
    <path id="Path_1377" data-name="Path 1377" d="M292.537,513.145a4.585,4.585,0,0,0,.039-.6,2.121,2.121,0,0,0-.887-1.95q-1.195-.7-2.392-1.389a2.118,2.118,0,0,1,.883,1.947,4.777,4.777,0,0,1-.054.7.579.579,0,0,1-.019.1,5.758,5.758,0,0,1-.154.671.4.4,0,0,0-.016.055,6.718,6.718,0,0,1-.264.717.158.158,0,0,0-.011.022,7.63,7.63,0,0,1-.352.7c-.006.011-.011.02-.017.03a6.621,6.621,0,0,1-.423.646c-.012.018-.026.035-.042.054a6.489,6.489,0,0,1-.439.531c-.035.037-.07.076-.109.116-.121.123-.245.238-.373.348-.063.053-.12.112-.185.159a4.471,4.471,0,0,1-.569.4,4.049,4.049,0,0,1-.386.19l-.115.047c-.074.027-.147.051-.22.074-.043.014-.085.025-.13.036s-.083.02-.127.028-.106.017-.159.023l-.095.01a1.446,1.446,0,0,1-.19,0h-.046a1.9,1.9,0,0,1-.225-.026l-.051-.016a1.655,1.655,0,0,1-.168-.045c-.018-.009-.034-.011-.051-.02a1.481,1.481,0,0,1-.2-.095l2.4,1.4.017.009a1.437,1.437,0,0,0,.154.075l.028.009a.438.438,0,0,0,.05.019c.027.009.053.019.081.027l.095.023a.437.437,0,0,0,.049.01c.01,0,.019.006.029.007a1.68,1.68,0,0,0,.184.024h.2a.459.459,0,0,0,.053-.006l.089-.009c.029,0,.056,0,.085-.01l.08-.017c.04-.008.078-.015.118-.026l.071-.014c.022-.006.047-.017.068-.025.07-.021.139-.045.21-.072.027-.006.05-.016.08-.025a.245.245,0,0,1,.045-.023,3.75,3.75,0,0,0,.379-.19,4.948,4.948,0,0,0,.574-.4c.059-.047.115-.1.173-.156a3.361,3.361,0,0,0,.27-.234c.04-.04.076-.083.116-.125s.066-.069.095-.1.081-.083.121-.127c.082-.095.164-.2.244-.3.027-.036.052-.072.082-.11.012-.017.027-.039.041-.056.027-.036.054-.072.08-.108.06-.087.12-.175.176-.263s.106-.169.155-.257a.124.124,0,0,0,.015-.025l.008-.013c.041-.07.082-.142.122-.217s.087-.171.129-.256.076-.164.115-.245h0c0-.006.006-.011.006-.016.041-.095.078-.18.112-.273s.071-.19.1-.284c.016-.05.029-.095.046-.145a.635.635,0,0,1,.02-.064c.007-.032.021-.066.028-.1.032-.116.061-.233.085-.35.015-.068.025-.136.038-.209.006-.039.012-.076.018-.112S292.533,513.179,292.537,513.145Z" transform="translate(-269.196 -500.911)" fill="#05001c"/>
    <path id="Path_1378" data-name="Path 1378" d="M120.955,796.146l-2.4-1.392-.14-49.264,2.4,1.39Z" transform="translate(-118.42 -714.787)" fill="#05001c"/>
    <path id="Path_1379" data-name="Path 1379" d="M239.443,430.781l-2.393-1.391,13.355-7.71,2.393,1.391Z" transform="translate(-225.802 -421.68)" fill="#0b0043"/>
  </g>
  <path id="Path_1380" data-name="Path 1380" d="M179.612,446.256c-6.414,2.834-11.409-.55-11.428-8.154,0-.589.035-1.2.089-1.8l-3.161,1.828a21.82,21.82,0,0,1-1.74,6.321c.774.19,1.28.93,1.284,2.1a6.681,6.681,0,0,1-3.029,5.243c-1.592.921-2.9.265-3.034-1.452-.009-.095-.013-.19-.013-.284a5.027,5.027,0,0,1,.207-1.381,6.724,6.724,0,0,1,2.822-3.863c.039-.023.081-.04.119-.062a19.693,19.693,0,0,0,1.9-5.767l-8.709,5.025a15.808,15.808,0,0,1,.1,1.692c.021,7.6-4.939,16.734-11.346,21.3l.139,49.266,35.936-20.752Z" transform="translate(-130.047 -394.931)" fill="#106"/>
  <path id="Path_1381" data-name="Path 1381" d="M21.936,286.372c.076-.219.138-.441.209-.664a.768.768,0,0,0-.149-.042c-3.566-.308-6.561-1.731-8.219-3.91a8.476,8.476,0,0,1-1.345-6.959c.75-4.01,3.448-5.468,6.059-6.88,2.519-1.363,5.12-2.771,5.054-6.448-.07-3.7-3-6.788-7.122-7.522-5.02-.893-11.767,1.738-15.676,11.791a.679.679,0,0,0,1.261.488c3.614-9.282,9.689-11.739,14.176-10.939,3.477.619,5.943,3.172,6,6.207.057,2.85-1.883,3.9-4.341,5.226-2.756,1.492-5.879,3.181-6.747,7.827a9.78,9.78,0,0,0,1.6,8.03c1.861,2.449,5.14,4.049,9.008,4.421.024-.068.051-.127.071-.19C21.83,286.661,21.886,286.518,21.936,286.372Z" transform="translate(-0.652 -229.722)" fill="#e5e5e5"/>
  <path id="Path_1382" data-name="Path 1382" d="M132.016,504.39,129.623,503a16.012,16.012,0,0,1,.095,1.69c0,.449-.018.9-.048,1.357-.011.142-.03.284-.043.431-.029.33-.066.664-.113,1-.013.087-.027.175-.039.263-.067.433-.144.867-.24,1.308-.049.231-.115.464-.17.7-.066.266-.124.533-.2.8-.029.108-.065.214-.095.322-.044.145-.095.284-.133.425-.07.223-.133.445-.209.664-.05.147-.106.284-.158.434-.02.066-.047.125-.071.19-.095.257-.19.516-.292.773-.057.142-.116.284-.175.431-.141.339-.29.676-.444,1.013-.05.109-.1.22-.153.331-.209.442-.426.879-.664,1.311-.034.064-.071.125-.105.19-.2.361-.4.725-.617,1.083-.082.141-.169.278-.257.414-.173.284-.353.564-.533.841l-.308.457c-.179.263-.367.519-.553.777-.119.159-.234.321-.353.474-.162.213-.331.417-.5.622s-.354.44-.536.65c-.131.156-.267.3-.4.451-.293.327-.592.643-.9.954-.2.207-.409.416-.613.614-.056.05-.112.1-.167.157-.327.3-.664.6-1,.883-.065.051-.129.1-.19.155-.353.284-.709.569-1.071.824l2.4,1.39c.357-.256.709-.531,1.057-.814.071-.056.141-.112.214-.173.331-.276.664-.569.981-.864.066-.061.132-.125.2-.19.121-.117.243-.228.361-.347.077-.072.147-.158.222-.236.314-.316.62-.645.923-.981.078-.095.164-.173.246-.265.046-.051.086-.108.133-.162.19-.222.379-.454.569-.688.113-.145.233-.28.347-.426.04-.052.077-.1.114-.156.13-.166.252-.335.379-.505s.25-.332.37-.5c.058-.081.11-.166.166-.252.105-.152.208-.305.311-.459.095-.136.183-.266.268-.4s.177-.284.265-.431.178-.285.262-.43c.047-.078.095-.154.145-.232.154-.268.3-.537.448-.8.045-.078.088-.157.132-.235a.431.431,0,0,1,.027-.05c.19-.359.379-.727.556-1.1.025-.048.045-.1.069-.149.056-.12.108-.242.165-.359.095-.2.19-.4.276-.608.054-.125.1-.255.156-.379.06-.144.119-.284.177-.436.046-.109.095-.222.137-.334.083-.217.155-.433.233-.65.049-.135.1-.273.145-.409.02-.055.04-.105.059-.158.1-.308.19-.614.284-.926.035-.112.072-.228.106-.34a.253.253,0,0,0,.012-.044c.069-.249.122-.5.183-.745.059-.23.124-.466.173-.7a.209.209,0,0,1,.011-.042c.088-.422.163-.845.229-1.263.013-.089.026-.177.04-.265s.03-.19.043-.284c.03-.239.049-.474.067-.713.015-.146.035-.3.045-.448.032-.452.053-.9.05-1.348A15.815,15.815,0,0,0,132.016,504.39Z" transform="translate(-107.146 -455.306)" fill="#0b0043"/>
  <path id="Path_1383" data-name="Path 1383" d="M175.128,992.72c1.292-.742,2.163-.8,2.626-.175a6.367,6.367,0,0,1,.694,3.52v1.183l-2.327,1.343v-1.367a5.541,5.541,0,0,0-.215-1.875c-.141-.325-.406-.364-.8-.136a1.966,1.966,0,0,0-.848.948,3.955,3.955,0,0,0-.253,1.517,2.412,2.412,0,0,0,.269,1.3,3.3,3.3,0,0,0,.956.836l1.374.914a4.576,4.576,0,0,1,1.561,1.694,5.557,5.557,0,0,1,.528,2.56,10.75,10.75,0,0,1-.77,4.417,6.3,6.3,0,0,1-2.737,2.858c-1.3.754-2.22.808-2.733.15a6.427,6.427,0,0,1-.78-3.714v-1.707l2.4-1.383.006,1.92a5.785,5.785,0,0,0,.245,2.1c.163.341.453.379.887.133a1.829,1.829,0,0,0,.864-1.033,6.391,6.391,0,0,0,.2-1.857,3.9,3.9,0,0,0-.379-1.879,3.235,3.235,0,0,0-1.2-1.181l-1.233-.743a3.852,3.852,0,0,1-1.343-1.364,4.6,4.6,0,0,1-.484-2.289,8.875,8.875,0,0,1,.782-3.97A6.449,6.449,0,0,1,175.128,992.72Z" transform="translate(-155.355 -898.044)" fill="#ffa423"/>
  <path id="Path_1384" data-name="Path 1384" d="M263.458,938l2.574,17.636L263.671,957l-.4-3.177-2.682,1.546-.348,3.615-2.436,1.4,2.316-20.461Zm-2.632,14.9,2.168-1.251-1.138-8.951-.036.025-.992,10.177Z" transform="translate(-233.356 -849.06)" fill="#ffa423"/>
  <path id="Path_1385" data-name="Path 1385" d="M364.926,896.64l.049,16.622,3.2-1.847.007,2.474-5.727,3.306-.053-19.1Z" transform="translate(-328.038 -811.622)" fill="#ffa423"/>
  <path id="Path_1386" data-name="Path 1386" d="M443.681,834.4l.009,2.509-3.043,1.756.015,5.555,2.889-1.669.007,2.453-2.888,1.666.017,6.073,3.155-1.82,0,2.506-5.681,3.283-.056-19.094Z" transform="translate(-396.569 -755.283)" fill="#ffa423"/>
  <path id="Path_1387" data-name="Path 1387" d="M183.988,857.59v1.261l-3,1.728V859.32Z" transform="translate(-163.829 -776.275)" fill="#ffa423"/>
  <path id="Path_1388" data-name="Path 1388" d="M233.317,752.59l.006,1.728-2.534,1.463.007,2.576a2.159,2.159,0,0,1,.431-.691,2.816,2.816,0,0,1,.685-.561c.638-.369,1.089-.3,1.342.213a7.287,7.287,0,0,1,.379,2.881,26.007,26.007,0,0,1-.114,3.016,5.947,5.947,0,0,1-.384,1.486,3.962,3.962,0,0,1-1.741,1.847q-2.194,1.271-2.2-1.355V763.6l1.58-.914,0,1.395c0,.588.095.9.291.919a.645.645,0,0,0,.365-.125l.031-.015c.379-.215.557-.742.553-1.57l-.006-3.245a2.589,2.589,0,0,0-.131-.956c-.077-.175-.249-.2-.491-.061a1.7,1.7,0,0,0-.652,1.605l-1.475.775-.017-6.465Z" transform="translate(-207.459 -681.231)" fill="#ffa423"/>
  <path id="Path_1389" data-name="Path 1389" d="M295.1,720.845c.407.331.6,1.05.6,2.168l.017,6.055a6.937,6.937,0,0,1-.578,3.006,4.539,4.539,0,0,1-1.906,2.008c-.878.5-1.5.569-1.9.19a3.268,3.268,0,0,1-.6-2.322l-.021-6.056a6.375,6.375,0,0,1,.588-2.857,4.6,4.6,0,0,1,1.9-1.937C294.061,720.6,294.7,720.508,295.1,720.845Zm-1.062,9.234-.016-6.177c0-.942-.2-1.351-.569-1.258a2.613,2.613,0,0,0-.368.19,1.424,1.424,0,0,0-.474.552,3.167,3.167,0,0,0-.228,1.45l.019,6.185a2.74,2.74,0,0,0,.207,1.414c.138.156.338.145.606-.009a1.527,1.527,0,0,0,.615-.712,4.459,4.459,0,0,0,.206-1.635Z" transform="translate(-263.145 -652.314)" fill="#ffa423"/>
  <path id="Path_1390" data-name="Path 1390" d="M362.977,691.273a3.9,3.9,0,0,1-1.62,1.674c-.728.422-1.269.491-1.612.19a2.793,2.793,0,0,1-.519-2.031l-.006-2.578a5.837,5.837,0,0,1,.487-2.589,3.924,3.924,0,0,1,1.623-1.645c.763-.439,1.311-.525,1.638-.238a2.854,2.854,0,0,1,.5,2.024l.008,2.58A5.943,5.943,0,0,1,362.977,691.273Zm-.921-1.32-.012-3.541a1.517,1.517,0,0,0-.145-.826c-.095-.122-.284-.1-.555.051a1.258,1.258,0,0,0-.557.589,2.68,2.68,0,0,0-.149,1l.01,3.54a1.605,1.605,0,0,0,.156.86c.1.13.29.123.552-.026a1.222,1.222,0,0,0,.547-.6,2.774,2.774,0,0,0,.153-1.043Z" transform="translate(-325.159 -619.044)" fill="#ffa423"/>
  <g id="Group_75" data-name="Group 75" transform="translate(37.435 61.47)">
    <path id="Path_1391" data-name="Path 1391" d="M447.332,681.119c.328.276.495.958.5,2.03l.007,2.58a6,6,0,0,1-.505,2.618,3.849,3.849,0,0,1-1.617,1.664c-.753.431-1.281.5-1.612.2a2.854,2.854,0,0,1-.517-2.03l-.008-2.581a5.913,5.913,0,0,1,.484-2.6,3.908,3.908,0,0,1,1.627-1.645C446.453,680.92,447,680.843,447.332,681.119Zm-.91,5.9-.009-3.553a1.375,1.375,0,0,0-.156-.818c-.1-.115-.284-.1-.564.055a1.22,1.22,0,0,0-.544.583,2.518,2.518,0,0,0-.154,1l.012,3.554a1.6,1.6,0,0,0,.155.853c.1.136.29.122.549-.03a1.287,1.287,0,0,0,.56-.611,2.9,2.9,0,0,0,.149-1.029Z" transform="translate(-438.956 -677.86)" fill="#ffa423"/>
    <path id="Path_1392" data-name="Path 1392" d="M399.068,649.026l1.272-.736-4.2,15.142-1.328.769Z" transform="translate(-394.81 -648.29)" fill="#ffa423"/>
  </g>
  <path id="Path_1393" data-name="Path 1393" d="M1.226,273.974a.681.681,0,0,1-.387-.881c2.3-5.911,5.581-9.251,8.913-10.823-3.6,1.4-7.222,4.786-9.706,11.163a.681.681,0,0,0,.387.881.673.673,0,0,0,.844-.331A.372.372,0,0,0,1.226,273.974Z" transform="translate(0 -237.402)" fill="#cdd3d1"/>
  <path id="Path_1394" data-name="Path 1394" d="M110.76,291.238a9.785,9.785,0,0,1-1.6-8.03c.872-4.646,4-6.338,6.749-7.826,2.455-1.327,4.4-2.377,4.342-5.226-.056-3.034-2.523-5.59-6-6.21a9.878,9.878,0,0,0-6,.888,9.723,9.723,0,0,1,5.21-.547c3.475.62,5.944,3.172,6,6.207.055,2.85-1.885,3.9-4.343,5.228-2.754,1.491-5.877,3.178-6.747,7.824a9.768,9.768,0,0,0,1.6,8.031c1.86,2.447,5.142,4.049,9.008,4.418.024-.061.05-.125.071-.19s.059-.156.087-.236A12.435,12.435,0,0,1,110.76,291.238Z" transform="translate(-97.886 -238.792)" fill="#cdd3d1"/>
  <path id="Path_1395" data-name="Path 1395" d="M231.255,6.741C229.36,2.4,223.7-.414,217.808.048c-6.6.52-11.582,4.818-13.316,11.495-1.106,4.256,2.465,8.519,6.249,13.034,3.3,3.938,6.708,8.008,7.68,12.534a18.652,18.652,0,0,1,.08,6.944,19.694,19.694,0,0,1-1.9,5.767,14.029,14.029,0,0,1-2.939,3.925,5.026,5.026,0,0,0-.207,1.381c0,.095,0,.194.013.284.027,0,.052.017.078.017a.67.67,0,0,0,.421-.147,15.393,15.393,0,0,0,4.277-5.766,21.82,21.82,0,0,0,1.74-6.321,19.644,19.644,0,0,0-.234-6.368c-1.043-4.857-4.718-9.251-7.965-13.123-3.55-4.24-6.9-8.243-5.974-11.821,1.575-6.089,6.1-10.008,12.1-10.48,5.333-.422,10.422,2.054,12.1,5.879a.679.679,0,1,0,1.244-.543Z" transform="translate(-184.917 0.002)" fill="#e5e5e5"/>
  <path id="Path_1396" data-name="Path 1396" d="M219.49,41.555c-3.552-4.24-6.906-8.243-5.974-11.821a13.376,13.376,0,0,1,9.462-10.014c-5.013,1.092-8.74,4.78-10.146,10.186-.929,3.577,2.425,7.58,5.974,11.818,3.246,3.876,6.922,8.267,7.96,13.125A19.434,19.434,0,0,1,227,61.217a21.75,21.75,0,0,1-1.735,6.318,15.576,15.576,0,0,1-4.1,5.619.688.688,0,0,0,.006.108c.027,0,.05.017.078.017a.678.678,0,0,0,.422-.147,15.4,15.4,0,0,0,4.275-5.766,21.761,21.761,0,0,0,1.741-6.319,19.538,19.538,0,0,0-.235-6.368C226.415,49.823,222.735,45.428,219.49,41.555Z" transform="translate(-192.51 -17.85)" fill="#cdd3d1"/>
  <path id="Path_1397" data-name="Path 1397" d="M334.155,6.741C332.26,2.4,326.6-.414,320.707.048a16,16,0,0,0-2.867.5,15.854,15.854,0,0,1,2.187-.328c5.893-.462,11.555,2.349,13.45,6.693a.679.679,0,0,1-.139.743.664.664,0,0,0,.465-.02.678.678,0,0,0,.354-.894Z" transform="translate(-287.703 0.002)" fill="#cdd3d1"/>
</svg>
