<svg xmlns="http://www.w3.org/2000/svg" xmlns:xlink="http://www.w3.org/1999/xlink" width="138.007" height="114.318" viewBox="0 0 138.007 114.318">
  <defs>
    <linearGradient id="linear-gradient" y1="0.501" x2="1.002" y2="0.501" gradientUnits="objectBoundingBox">
      <stop offset="0" stop-color="#9da2a5"/>
      <stop offset="0.04" stop-color="#989c9f"/>
      <stop offset="0.26" stop-color="#808486"/>
      <stop offset="0.49" stop-color="#6f7274"/>
      <stop offset="0.73" stop-color="#646769"/>
      <stop offset="1" stop-color="#616466"/>
    </linearGradient>
    <linearGradient id="linear-gradient-2" x1="0" y1="0.5" x2="1" y2="0.5" xlink:href="#linear-gradient"/>
    <linearGradient id="linear-gradient-3" y1="0.5" x2="1" y2="0.5" gradientUnits="objectBoundingBox">
      <stop offset="0" stop-color="#84837e"/>
      <stop offset="0.13" stop-color="#6e6d69"/>
      <stop offset="0.33" stop-color="#555450"/>
      <stop offset="0.54" stop-color="#43423e"/>
      <stop offset="0.75" stop-color="#383733"/>
      <stop offset="1" stop-color="#353430"/>
    </linearGradient>
    <linearGradient id="linear-gradient-5" x1="0" y1="0.501" x2="1" y2="0.501" xlink:href="#linear-gradient"/>
    <linearGradient id="linear-gradient-6" x1="0" y1="0.5" x2="1" y2="0.5" xlink:href="#linear-gradient"/>
    <linearGradient id="linear-gradient-7" y1="0.5" x2="1" y2="0.5" gradientUnits="objectBoundingBox">
      <stop offset="0" stop-color="#1d2866"/>
      <stop offset="0.24" stop-color="#2c4480"/>
      <stop offset="0.75" stop-color="#538bc3"/>
      <stop offset="1" stop-color="#67afe5"/>
    </linearGradient>
    <clipPath id="clip-path">
      <path id="Path_1408" data-name="Path 1408" d="M289.007,43.577l-.591-.343a.2.2,0,0,1-.087-.188A25.264,25.264,0,0,0,286.84,33.9a7.715,7.715,0,0,0-2.93-3.9l.59.343a7.654,7.654,0,0,1,2.93,3.893,25.3,25.3,0,0,1,1.49,9.149.2.2,0,0,0,.087.192Z" transform="translate(-283.91 -30)" fill="none"/>
    </clipPath>
    <clipPath id="clip-path-2">
      <path id="Path_1419" data-name="Path 1419" d="M257.347,20.709l.59.342a4.188,4.188,0,0,0-.875-.388,4.415,4.415,0,0,0-3.562.56l-.59-.343a4.4,4.4,0,0,1,3.562-.562A4.124,4.124,0,0,1,257.347,20.709Z" transform="translate(-252.91 -20.153)" fill="none"/>
    </clipPath>
    <clipPath id="clip-path-3">
      <path id="Path_1435" data-name="Path 1435" d="M184.65,49.948l-.591-.344a.2.2,0,0,1-.085-.186,42.668,42.668,0,0,1,1.468-11.091,30.2,30.2,0,0,1,3.9-8.968,11.481,11.481,0,0,1,3.554-3.549l.59.343A11.546,11.546,0,0,0,189.93,29.7a30.22,30.22,0,0,0-3.9,8.964,42.727,42.727,0,0,0-1.469,11.1.2.2,0,0,0,.087.186Z" transform="translate(-183.972 -25.81)" fill="none"/>
    </clipPath>
    <clipPath id="clip-path-4">
      <path id="Path_1449" data-name="Path 1449" d="M336.946,67.451l-.654-.379a.23.23,0,0,1-.1-.214,25.3,25.3,0,0,0-1.487-9.135,7.614,7.614,0,0,0-2.919-3.883l.647.381a7.634,7.634,0,0,1,2.92,3.883,25.292,25.292,0,0,1,1.486,9.135A.23.23,0,0,0,336.946,67.451Z" transform="translate(-331.79 -53.84)" fill="none"/>
    </clipPath>
    <clipPath id="clip-path-5">
      <path id="Path_1460" data-name="Path 1460" d="M305.447,43.917l.654.381a4.189,4.189,0,0,0-.875-.388,4.44,4.44,0,0,0-3.579.572L301,44.093a4.43,4.43,0,0,1,3.577-.564A4.185,4.185,0,0,1,305.447,43.917Z" transform="translate(-301 -43.363)" fill="none"/>
    </clipPath>
    <clipPath id="clip-path-6">
      <path id="Path_1476" data-name="Path 1476" d="M232.516,73.259l-.654-.379a.239.239,0,0,1-.1-.215,42.561,42.561,0,0,1,1.475-11.1,30.153,30.153,0,0,1,3.9-8.992A11.665,11.665,0,0,1,240.724,49l.647.388a11.638,11.638,0,0,0-3.576,3.564,30.141,30.141,0,0,0-3.9,8.986,42.509,42.509,0,0,0-1.475,11.11A.233.233,0,0,0,232.516,73.259Z" transform="translate(-231.763 -49)" fill="none"/>
    </clipPath>
    <clipPath id="clip-path-7">
      <path id="Path_1485" data-name="Path 1485" d="M611.24,19.07l.487-.278a.171.171,0,0,0,.07-.157,20.616,20.616,0,0,1,1.215-7.456A6.209,6.209,0,0,1,615.4,8l-.483.281a6.27,6.27,0,0,0-2.389,3.176,20.644,20.644,0,0,0-1.213,7.46A.167.167,0,0,1,611.24,19.07Z" transform="translate(-611.24 -8)" fill="none"/>
    </clipPath>
    <clipPath id="clip-path-8">
      <path id="Path_1496" data-name="Path 1496" d="M637.474.48,637,.758a3.444,3.444,0,0,1,.713-.313,3.6,3.6,0,0,1,2.9.456l.481-.28a3.662,3.662,0,0,0-2.911-.454,3.217,3.217,0,0,0-.714.313Z" transform="translate(-637 -0.035)" fill="none"/>
    </clipPath>
    <clipPath id="clip-path-9">
      <path id="Path_1512" data-name="Path 1512" d="M672.1,24.242l.483-.278a.164.164,0,0,0,.07-.153,34.819,34.819,0,0,0-1.2-9.047,24.806,24.806,0,0,0-3.177-7.31,9.425,9.425,0,0,0-2.9-2.894l-.481.28a9.481,9.481,0,0,1,2.9,2.894,24.7,24.7,0,0,1,3.179,7.31,34.762,34.762,0,0,1,1.2,9.048.157.157,0,0,1-.071.15Z" transform="translate(-664.9 -4.56)" fill="none"/>
    </clipPath>
    <clipPath id="clip-path-10">
      <path id="Path_1526" data-name="Path 1526" d="M571.88,38.37l.481-.281a.17.17,0,0,0,.071-.157,20.663,20.663,0,0,1,1.214-7.452,6.211,6.211,0,0,1,2.391-3.18l-.482.28a6.248,6.248,0,0,0-2.391,3.176,20.611,20.611,0,0,0-1.214,7.452A.171.171,0,0,1,571.88,38.37Z" transform="translate(-571.88 -27.3)" fill="none"/>
    </clipPath>
    <clipPath id="clip-path-11">
      <path id="Path_1537" data-name="Path 1537" d="M598.051,19.75l-.481.281a3.365,3.365,0,0,1,.716-.313,3.589,3.589,0,0,1,2.9.454l.482-.28a3.585,3.585,0,0,0-2.9-.454A3.355,3.355,0,0,0,598.051,19.75Z" transform="translate(-597.57 -19.302)" fill="none"/>
    </clipPath>
    <clipPath id="clip-path-12">
      <path id="Path_1553" data-name="Path 1553" d="M632.717,43.595l.484-.28a.172.172,0,0,0,.069-.158,34.927,34.927,0,0,0-1.2-9.046,24.693,24.693,0,0,0-3.179-7.309,9.406,9.406,0,0,0-2.9-2.893l-.481.271a9.462,9.462,0,0,1,2.9,2.893,24.531,24.531,0,0,1,3.177,7.309,35.01,35.01,0,0,1,1.2,9.048A.168.168,0,0,1,632.717,43.595Z" transform="translate(-625.51 -23.91)" fill="none"/>
    </clipPath>
    <clipPath id="clip-path-13">
      <path id="Path_1562" data-name="Path 1562" d="M516.191,185.456l-.588-.349a.208.208,0,0,1-.087-.193c-.016-5.341-1.619-9.258-4.191-11.269a7.512,7.512,0,0,0-.836-.564l.591.343a6.845,6.845,0,0,1,.833.566c2.574,2.013,4.177,5.926,4.192,11.269A.217.217,0,0,0,516.191,185.456Z" transform="translate(-510.49 -173.08)" fill="none"/>
    </clipPath>
    <clipPath id="clip-path-14">
      <path id="Path_1573" data-name="Path 1573" d="M449.333,160.734l.593.346c-2.573-1.495-5.914-1.377-9.566.731l-.59-.343C443.424,159.361,446.763,159.239,449.333,160.734Z" transform="translate(-439.77 -159.731)" fill="none"/>
    </clipPath>
    <clipPath id="clip-path-15">
      <path id="Path_1589" data-name="Path 1589" d="M327.18,202.165q-.3-.17-.589-.346a.2.2,0,0,1-.089-.19,37.113,37.113,0,0,1,4.257-16.586c2.649-5.15,6.324-9.538,10.4-11.893l.59.343c-4.078,2.356-7.758,6.741-10.4,11.893a37.274,37.274,0,0,0-4.257,16.585A.212.212,0,0,0,327.18,202.165Z" transform="translate(-326.5 -173.15)" fill="none"/>
    </clipPath>
    <clipPath id="clip-path-16">
      <path id="Path_1609" data-name="Path 1609" d="M612.894,294.71c.2.111.388.227.59.343a.2.2,0,0,0-.214.019l-.59-.344A.2.2,0,0,1,612.894,294.71Z" transform="translate(-612.68 -294.687)" fill="none"/>
    </clipPath>
    <clipPath id="clip-path-17">
      <path id="Path_1648" data-name="Path 1648" d="M431.6,323.955l-.6-.34c2.476,1.438,5.669,1.32,9.149-.691,3.883-2.242,7.4-6.421,9.953-11.39a35.989,35.989,0,0,0,4.113-16.066.647.647,0,0,1,.294-.518l.59.342a.661.661,0,0,0-.3.518,36.039,36.039,0,0,1-4.112,16.066c-2.548,4.97-6.068,9.14-9.953,11.39C437.266,325.276,434.074,325.4,431.6,323.955Z" transform="translate(-431 -294.95)" fill="none"/>
    </clipPath>
    <clipPath id="clip-path-18">
      <path id="Path_1673" data-name="Path 1673" d="M393.407,436.4l-.59-.347a7.5,7.5,0,0,1-.866-.588c-2.662-2.089-4.316-6.13-4.331-11.633a.663.663,0,0,1,.292-.518.216.216,0,0,1,.215-.021l.59.346a.214.214,0,0,0-.214.021.647.647,0,0,0-.294.511c.016,5.506,1.667,9.545,4.331,11.633A7.741,7.741,0,0,0,393.407,436.4Z" transform="translate(-387.62 -423.27)" fill="none"/>
    </clipPath>
  </defs>
  <g id="Layer_2" data-name="Layer 2" transform="translate(0 -0.045)">
    <g id="Layer_1" data-name="Layer 1" transform="translate(0 0.045)">
      <path id="Path_1398" data-name="Path 1398" d="M255.119,416.177l-6.5-3.753,1-.579-24.78-15.4,1.941-1.131a1.139,1.139,0,0,0-.013-2.155l-19.47-11.241a4.1,4.1,0,0,0-3.721,0L136.146,421.1a1.138,1.138,0,0,0,.013,2.155L155.635,434.5a4.1,4.1,0,0,0,3.721,0l7.662-4.452,27.332,14.585,1.311-.762c5.436,2.977,13.15,3.418,17.389.954a5.634,5.634,0,0,0,2.339-2.348c2.486-2.425,1.553-5.954-2.44-8.652l.185-.107a33.419,33.419,0,0,0,12.175-4.028c7.817-4.543,9.659-10.962,4.583-14.869l3.461-2.011-9.081-6.33,17.981,9.649.343-.2,6.5,3.753a2.466,2.466,0,0,0,2.121.29c.453-.263.226-.8-.509-1.228l-6.5-3.753,2.8-1.63,6.5,3.753a2.465,2.465,0,0,0,2.123.291C256.088,417.143,255.855,416.6,255.119,416.177Zm-59.8,27.5.647-.379h0Zm17.064.76c-3.883,2.255-11.01,1.812-16.077-.954l1.017-.591c5,2.459,11.63,2.9,15.8,1.05A6.889,6.889,0,0,1,212.388,444.44Zm2.141-2.186a6.33,6.33,0,0,1-1.165.855c-3.707,2.154-10.376,1.848-15.384-.6l12.711-7.388c3.5,2.137,4.86,4.913,3.838,7.131Zm1.219-2.039c-.241-1.873-1.737-3.849-4.4-5.468l.942-.547c2.7,1.847,3.9,4.082,3.458,6.02ZM229.221,415.2c4.707,3.7,2.872,9.776-4.574,14.108A31.807,31.807,0,0,1,214.229,433l-7.529-4.7-6.385,3.711L206.7,428.3Zm21.16,3.725c.58.336.73.716.5.849a1.883,1.883,0,0,1-1.461-.291l-6.5-3.753.959-.558Zm4.918-1.718a1.9,1.9,0,0,1-1.46-.29l-6.5-3.753.96-.558,6.5,3.753c.579.339.729.72.5.852Z" transform="translate(-117.859 -332.102)" fill="#030309" opacity="0.2"/>
      <g id="Group_76" data-name="Group 76" transform="translate(0 34.653)">
        <path id="Path_1399" data-name="Path 1399" d="M815.767,435.542a.117.117,0,0,1-.014.044,1.671,1.671,0,0,1-.2.388c-.014.026-.03.047-.045.07a2.282,2.282,0,0,1-.331.366,3.342,3.342,0,0,1-.311.232c-.083.058-.151.119-.245.175l-.01,3.416.049-.032c.082-.047.14-.1.212-.154a3.6,3.6,0,0,0,.292-.219c.008-.008.021-.013.027-.023a2.093,2.093,0,0,0,.259-.277c.018-.021.03-.045.047-.067l.043-.063c.026-.043.057-.08.079-.12a1.653,1.653,0,0,0,.111-.238.249.249,0,0,0,.01-.038.169.169,0,0,1,.013-.041,1.619,1.619,0,0,0,.045-.157,1.493,1.493,0,0,0,.027-.242l.009-3.414v-.036A1.485,1.485,0,0,1,815.767,435.542Z" transform="translate(-709.177 -413.452)" fill="url(#linear-gradient)"/>
        <path id="Path_1400" data-name="Path 1400" d="M.012,578.15Q0,579.861,0,581.567a2.1,2.1,0,0,0,1.24,1.73l.008-3.418A2.09,2.09,0,0,1,.012,578.15Z" transform="translate(0 -537.979)" fill="url(#linear-gradient-2)"/>
        <path id="Path_1401" data-name="Path 1401" d="M377.6,448.33l-.01,3.414L312.62,489.5l.009-3.417Z" transform="translate(-272.158 -424.962)" fill="url(#linear-gradient-3)"/>
        <path id="Path_1402" data-name="Path 1402" d="M42.88,610.743l-.009,3.417L9.58,594.937l.008-3.417Z" transform="translate(-8.34 -549.62)" fill="url(#linear-gradient-3)"/>
        <path id="Path_1403" data-name="Path 1403" d="M272.731,739.983a4.824,4.824,0,0,1-.822.364c-.1.036-.212.065-.321.1-.137.037-.274.074-.417.1-.168.035-.336.067-.509.088a1.156,1.156,0,0,0-.129.017c-.233.022-.467.038-.7.038h-.113c-.234,0-.466-.018-.7-.04a.907.907,0,0,1-.1-.01,6.03,6.03,0,0,1-.676-.118,1.062,1.062,0,0,1-.119-.028,4.771,4.771,0,0,1-.584-.177l-.1-.032a4.477,4.477,0,0,1-.641-.3l-.009,3.417a4.56,4.56,0,0,0,.6.289l.032.01c.036.017.075.025.114.04.119.041.238.087.362.129l.207.048c.041.012.083.021.129.03s.071.021.107.027c.129.027.274.053.415.073l.149.016a.954.954,0,0,0,.106.013l.151.019c.138.01.276.017.414.021h.431c.155-.008.312-.017.466-.031a.135.135,0,0,0,.054-.008l.118-.018c.12-.012.242-.029.362-.048.05-.01.1-.027.149-.037.145-.03.283-.067.425-.107a2.227,2.227,0,0,0,.221-.056.732.732,0,0,0,.092-.041,4.763,4.763,0,0,0,.826-.36Z" transform="translate(-232.26 -678.863)" fill="url(#linear-gradient-5)"/>
        <path id="Path_1404" data-name="Path 1404" d="M105.507,287.7c1.641.947,1.651,2.489.019,3.438L40.554,328.892a6.534,6.534,0,0,1-5.93,0L1.331,309.673c-1.636-.946-1.651-2.486-.019-3.431l64.973-37.758a6.537,6.537,0,0,1,5.932,0Z" transform="translate(-0.084 -267.772)" fill="url(#linear-gradient-6)"/>
        <path id="Path_1405" data-name="Path 1405" d="M145.053,300.007c1.494.861,1.5,2.262.019,3.126l-59.1,34.344a5.953,5.953,0,0,1-5.4,0L50.286,319.989c-1.5-.862-1.5-2.264-.019-3.127l59.107-34.344a5.934,5.934,0,0,1,5.395,0Z" transform="translate(-42.796 -280.045)" fill="url(#linear-gradient-7)"/>
        <path id="Path_1406" data-name="Path 1406" d="M117.2,632.449a.179.179,0,0,1,0,.339.655.655,0,0,1-.593,0l-11.744-6.777a.184.184,0,0,1,0-.346.647.647,0,0,1,.588,0Z" transform="translate(-91.186 -579.283)" fill="#0b0c0c"/>
      </g>
      <g id="Group_86" data-name="Group 86" transform="translate(23.811 2.604)">
        <g id="Group_79" data-name="Group 79" transform="translate(12.935 1.275)">
          <g id="Group_78" data-name="Group 78" clip-path="url(#clip-path)">
            <g id="Group_77" data-name="Group 77">
              <path id="Path_1407" data-name="Path 1407" d="M289.007,43.577l-.591-.343a.2.2,0,0,1-.087-.188A25.264,25.264,0,0,0,286.84,33.9a7.715,7.715,0,0,0-2.93-3.9l.59.343a7.654,7.654,0,0,1,2.93,3.893,25.3,25.3,0,0,1,1.49,9.149.2.2,0,0,0,.087.186Z" transform="translate(-283.91 -30)" fill="#858381"/>
            </g>
          </g>
        </g>
        <g id="Group_82" data-name="Group 82" transform="translate(8.922)">
          <g id="Group_81" data-name="Group 81" clip-path="url(#clip-path-2)">
            <g id="Group_80" data-name="Group 80" transform="translate(0 0.004)">
              <path id="Path_1409" data-name="Path 1409" d="M253.5,23.715l-.59-.343a6.46,6.46,0,0,1,.729-.362l.591.344A6.148,6.148,0,0,0,253.5,23.715Z" transform="translate(-252.91 -22.644)" fill="#cccac6"/>
              <path id="Path_1410" data-name="Path 1410" d="M259.131,21.918l-.591-.346a5.2,5.2,0,0,1,.623-.212l.59.342a5.2,5.2,0,0,0-.621.214Z" transform="translate(-257.811 -21.207)" fill="#c7c5c1"/>
              <path id="Path_1411" data-name="Path 1411" d="M263.94,20.988l-.59-.343a3.813,3.813,0,0,1,.493-.1l.59.343A4.3,4.3,0,0,0,263.94,20.988Z" transform="translate(-261.999 -20.494)" fill="#c2c0bc"/>
              <path id="Path_1412" data-name="Path 1412" d="M267.75,20.616l-.59-.343c.148-.021.3-.036.439-.043l.591.343C268.045,20.581,267.9,20.595,267.75,20.616Z" transform="translate(-265.316 -20.224)" fill="#bdbab8"/>
              <path id="Path_1413" data-name="Path 1413" d="M271.141,20.53l-.591-.343a3.413,3.413,0,0,1,.415,0l.59.342a3.683,3.683,0,0,0-.414,0Z" transform="translate(-268.267 -20.181)" fill="#b8b5b3"/>
              <path id="Path_1414" data-name="Path 1414" d="M274.35,20.6l-.59-.342a3.224,3.224,0,0,1,.4.048l.591.344A4.049,4.049,0,0,0,274.35,20.6Z" transform="translate(-271.061 -20.25)" fill="#b3b0ae"/>
              <path id="Path_1415" data-name="Path 1415" d="M277.461,20.974l-.591-.344a3.905,3.905,0,0,1,.413.1l.591.34a3.466,3.466,0,0,0-.413-.094Z" transform="translate(-273.769 -20.572)" fill="#adaba9"/>
              <path id="Path_1416" data-name="Path 1416" d="M280.651,21.693l-.591-.343a.38.38,0,0,0,.048.013,3.832,3.832,0,0,1,.382.14l.59.344a3.563,3.563,0,0,0-.381-.137l-.047-.014Z" transform="translate(-276.546 -21.199)" fill="#a8a6a4"/>
              <path id="Path_1417" data-name="Path 1417" d="M283.97,22.894l-.59-.344a4.362,4.362,0,0,1,.443.216l.59.344a3.5,3.5,0,0,0-.443-.216Z" transform="translate(-279.436 -22.243)" fill="#a3a19f"/>
              <path id="Path_1418" data-name="Path 1418" d="M287.39,24.564l-.59-.344.05.03.59.342Z" transform="translate(-282.414 -23.697)" fill="#9e9c9a"/>
            </g>
          </g>
        </g>
        <g id="Group_85" data-name="Group 85" transform="translate(0 0.732)">
          <g id="Group_84" data-name="Group 84" clip-path="url(#clip-path-3)">
            <g id="Group_83" data-name="Group 83" transform="translate(0 0)">
              <path id="Path_1420" data-name="Path 1420" d="M184.65,171.994l-.591-.344a.2.2,0,0,1-.085-.186,41.757,41.757,0,0,1,.351-5.463l.59.344a41.74,41.74,0,0,0-.351,5.459.2.2,0,0,0,.087.186Z" transform="translate(-183.972 -147.856)" fill="#858381"/>
              <path id="Path_1421" data-name="Path 1421" d="M187.28,143l-.59-.348c.154-1.176.353-2.339.6-3.471l.59.343c-.242,1.134-.443,2.3-.6,3.473Z" transform="translate(-186.338 -124.507)" fill="#8a8886"/>
              <path id="Path_1422" data-name="Path 1422" d="M191.88,123.43l-.59-.343c.157-.735.331-1.459.518-2.165.022-.078.041-.155.063-.232l.591.34c-.022.078-.043.158-.065.234C192.208,121.974,192.032,122.7,191.88,123.43Z" transform="translate(-190.343 -108.41)" fill="#8f8d8b"/>
              <path id="Path_1423" data-name="Path 1423" d="M196.411,108.25l-.591-.34q.27-.971.58-1.9l.591.344c-.207.617-.4,1.252-.58,1.9Z" transform="translate(-194.287 -95.63)" fill="#949290"/>
              <path id="Path_1424" data-name="Path 1424" d="M200.891,96.134l-.591-.346c.172-.518.353-1.022.544-1.518l.59.343c-.189.5-.371,1-.542,1.519Z" transform="translate(-198.187 -85.409)" fill="#999795"/>
              <path id="Path_1425" data-name="Path 1425" d="M205.09,86.161l-.59-.343c.164-.43.337-.85.518-1.258l.582.344q-.267.615-.518,1.257Z" transform="translate(-201.843 -76.956)" fill="#9e9c9a"/>
              <path id="Path_1426" data-name="Path 1426" d="M209.03,77.739l-.59-.344c.158-.364.32-.72.487-1.065l.6.346c-.167.348-.329.7-.487,1.068Z" transform="translate(-205.273 -69.791)" fill="#a3a19f"/>
              <path id="Path_1427" data-name="Path 1427" d="M212.83,70.46l-.59-.342c.154-.318.309-.628.47-.928l.59.343C213.14,69.835,212.984,70.143,212.83,70.46Z" transform="translate(-208.581 -63.575)" fill="#a8a6a4"/>
              <path id="Path_1428" data-name="Path 1428" d="M216.46,63.984l-.59-.343c.149-.281.3-.555.457-.821l.6.343q-.23.4-.457.821Z" transform="translate(-211.741 -58.03)" fill="#adaba9"/>
              <path id="Path_1429" data-name="Path 1429" d="M220.03,58.183l-.59-.343c.148-.259.3-.5.453-.74l.59.342C220.329,57.682,220.179,57.928,220.03,58.183Z" transform="translate(-214.849 -53.05)" fill="#b3b0ae"/>
              <path id="Path_1430" data-name="Path 1430" d="M223.49,52.828l-.59-.342c.109-.173.219-.339.33-.5a2.227,2.227,0,0,1,.129-.185l.589.344-.129.182c-.111.166-.221.33-.33.5Z" transform="translate(-217.862 -48.436)" fill="#b8b5b3"/>
              <path id="Path_1431" data-name="Path 1431" d="M227.03,47.791l-.59-.344c.157-.22.315-.437.478-.647l.59.343c-.162.206-.321.423-.478.647Z" transform="translate(-220.943 -44.083)" fill="#bdbab8"/>
              <path id="Path_1432" data-name="Path 1432" d="M230.7,42.862l-.59-.343c.172-.223.347-.435.518-.639l.59.342q-.267.308-.524.641Z" transform="translate(-224.138 -39.8)" fill="#c2c0bc"/>
              <path id="Path_1433" data-name="Path 1433" d="M234.75,37.555l-.59-.342c.212-.246.43-.476.647-.694l.593.346c-.221.215-.436.445-.647.69Z" transform="translate(-227.664 -35.134)" fill="#c7c5c1"/>
              <path id="Path_1434" data-name="Path 1434" d="M239.753,27.542l-.593-.346a8.94,8.94,0,0,1,1.78-1.386l.59.343a8.792,8.792,0,0,0-1.777,1.389Z" transform="translate(-232.017 -25.81)" fill="#cccac6"/>
            </g>
          </g>
        </g>
        <path id="Path_1436" data-name="Path 1436" d="M197.461,23.584a4.415,4.415,0,0,1,3.562-.56,5.454,5.454,0,0,1,2.847,2.341c1.61,2.416,2.6,6.418,2.616,11.467a.647.647,0,0,1-.3.509c-.16.093-.294.017-.294-.167a25.322,25.322,0,0,0-1.49-9.149c-.928-2.309-2.24-3.8-3.742-4.249a3.943,3.943,0,0,0-3.2.492,10.262,10.262,0,0,0-3.19,3.2,25.252,25.252,0,0,0-2.67,5.316,40.98,40.98,0,0,0-2.468,14.07.647.647,0,0,1-.292.5c-.167.1-.3.022-.3-.162a42.707,42.707,0,0,1,1.466-11.087,30.271,30.271,0,0,1,3.9-8.974A11.546,11.546,0,0,1,197.461,23.584Z" transform="translate(-187.949 -22.509)" fill="#c5c3c0"/>
      </g>
      <path id="Path_1437" data-name="Path 1437" d="M138.281,91.1l-11.329-6.713-3.782-2.239,30.481-17.6,1.6,1.939,5.308,1.4Z" transform="translate(-107.228 -56.201)" fill="#ce8d0b"/>
      <path id="Path_1438" data-name="Path 1438" d="M125.152,443.515l-9.261-7.543-7.8-2.374L138.571,416l8.338,4.689Z" transform="translate(-94.1 -362.164)" fill="#ce8d0b"/>
      <path id="Path_1439" data-name="Path 1439" d="M126.181,256.095l-8.788-10.286-8.273.37,1.818-45.659,4.566.124,7.961,6.145Z" transform="translate(-94.997 -174.573)" fill="#edaa15"/>
      <path id="Path_1440" data-name="Path 1440" d="M117.393,245.809,115.5,200.644l-4.566-.124-1.818,45.659Z" transform="translate(-94.997 -174.573)" fill="#ffc229"/>
      <path id="Path_1441" data-name="Path 1441" d="M371.05,79.53v16.2l5.308-14.805Z" transform="translate(-323.026 -69.242)" fill="#ffc229"/>
      <path id="Path_1442" data-name="Path 1442" d="M360.281,66.489V79.34l-1.6-14.79Z" transform="translate(-312.257 -56.201)" fill="#edaa15"/>
      <path id="Path_1443" data-name="Path 1443" d="M215.18,90.33l8.333,52.241-30.48,17.6-7.122-52.746Z" transform="translate(-161.848 -78.645)" fill="#ffd527"/>
      <path id="Path_1444" data-name="Path 1444" d="M223.513,257.53l-30.48,17.6L185.91,222.38Z" transform="translate(-161.848 -193.604)" fill="#f2c91c"/>
      <path id="Path_1445" data-name="Path 1445" d="M230.29,220.224c.61-.353,1.117-.065,1.121.637a2.468,2.468,0,0,1-1.112,1.925c-.608.352-1.118.071-1.12-.638A2.447,2.447,0,0,1,230.29,220.224Z" transform="translate(-199.518 -191.594)" fill="#9f6d09"/>
      <path id="Path_1446" data-name="Path 1446" d="M361.952,144.686c.611-.352,1.118-.066,1.12.637a2.472,2.472,0,0,1-1.112,1.926c-.61.352-1.118.074-1.12-.638A2.439,2.439,0,0,1,361.952,144.686Z" transform="translate(-314.137 -125.833)" fill="#9f6d09"/>
      <path id="Path_1447" data-name="Path 1447" d="M153.6,64.839l1.477,1.789.048.058.072.018,4.766,1.261L131.3,84.689l-3.426-2.617-.06-.045h-.074l-3.746-.1,29.6-17.084Zm.054-.3-30.481,17.6,4.566.129,3.554,2.705,29.27-17.084-5.307-1.4-1.6-1.941Z" transform="translate(-107.228 -56.191)" fill="#ffd58a"/>
      <g id="Group_96" data-name="Group 96" transform="translate(29.996 5.608)">
        <g id="Group_89" data-name="Group 89" transform="translate(12.946 1.356)">
          <g id="Group_88" data-name="Group 88" clip-path="url(#clip-path-4)">
            <g id="Group_87" data-name="Group 87">
              <path id="Path_1448" data-name="Path 1448" d="M336.946,67.451l-.654-.379a.23.23,0,0,1-.1-.214,25.3,25.3,0,0,0-1.487-9.135,7.614,7.614,0,0,0-2.919-3.883l.647.381a7.634,7.634,0,0,1,2.92,3.883,25.292,25.292,0,0,1,1.486,9.135.23.23,0,0,0,.1.212Z" transform="translate(-331.79 -53.84)" fill="#858381"/>
            </g>
          </g>
        </g>
        <g id="Group_92" data-name="Group 92" transform="translate(8.961)">
          <g id="Group_91" data-name="Group 91" clip-path="url(#clip-path-5)">
            <g id="Group_90" data-name="Group 90" transform="translate(0 0.002)">
              <path id="Path_1450" data-name="Path 1450" d="M301.647,46.942,301,46.554a5.953,5.953,0,0,1,.735-.364l.654.381A6.221,6.221,0,0,0,301.647,46.942Z" transform="translate(-301 -45.826)" fill="#cccac6"/>
              <path id="Path_1451" data-name="Path 1451" d="M307.294,45.164l-.654-.381a4.941,4.941,0,0,1,.624-.214l.654.379A5.021,5.021,0,0,0,307.294,45.164Z" transform="translate(-305.91 -44.416)" fill="#c7c5c1"/>
              <path id="Path_1452" data-name="Path 1452" d="M312.114,44.244l-.654-.379a4.4,4.4,0,0,1,.5-.1l.655.379a4.658,4.658,0,0,0-.5.1Z" transform="translate(-310.106 -43.711)" fill="#c2c0bc"/>
              <path id="Path_1453" data-name="Path 1453" d="M315.945,43.843l-.655-.379a4.034,4.034,0,0,1,.443-.044l.655.381A4,4,0,0,0,315.945,43.843Z" transform="translate(-313.44 -43.415)" fill="#bdbab8"/>
              <path id="Path_1454" data-name="Path 1454" d="M319.365,43.765l-.655-.381a4.061,4.061,0,0,1,.417,0l.656.384a3.724,3.724,0,0,0-.417,0Z" transform="translate(-316.418 -43.379)" fill="#b8b5b3"/>
              <path id="Path_1455" data-name="Path 1455" d="M322.595,43.831l-.655-.381c.137.009.273.026.406.048l.655.381A3.553,3.553,0,0,0,322.595,43.831Z" transform="translate(-319.23 -43.441)" fill="#b3b0ae"/>
              <path id="Path_1456" data-name="Path 1456" d="M325.725,44.2l-.655-.381a3.961,3.961,0,0,1,.4.093l.654.381A3.558,3.558,0,0,0,325.725,44.2Z" transform="translate(-321.955 -43.763)" fill="#adaba9"/>
              <path id="Path_1457" data-name="Path 1457" d="M328.844,44.921l-.654-.381.053.017a3.907,3.907,0,0,1,.374.129l.655.381a3.942,3.942,0,0,0-.375-.129l-.053-.016Z" transform="translate(-324.671 -44.39)" fill="#a8a6a4"/>
              <path id="Path_1458" data-name="Path 1458" d="M332.145,46.091l-.655-.381a4.792,4.792,0,0,1,.449.22l.652.381a4.217,4.217,0,0,0-.448-.22Z" transform="translate(-327.544 -45.408)" fill="#a3a19f"/>
              <path id="Path_1459" data-name="Path 1459" d="M335.647,47.791,335,47.41l.052.03.654.381c-.017-.01-.034-.021-.052-.03Z" transform="translate(-330.599 -46.888)" fill="#9e9c9a"/>
            </g>
          </g>
        </g>
        <g id="Group_95" data-name="Group 95" transform="translate(0 0.73)">
          <g id="Group_94" data-name="Group 94" clip-path="url(#clip-path-6)">
            <g id="Group_93" data-name="Group 93" transform="translate(0 0)">
              <path id="Path_1461" data-name="Path 1461" d="M232.516,195.8l-.654-.379a.239.239,0,0,1-.1-.215,41.572,41.572,0,0,1,.351-5.446l.655.379a41.38,41.38,0,0,0-.351,5.448A.233.233,0,0,0,232.516,195.8Z" transform="translate(-231.763 -171.542)" fill="#858381"/>
              <path id="Path_1462" data-name="Path 1462" d="M235.135,166.843l-.655-.379c.153-1.173.351-2.33.593-3.463l.654.381C235.486,164.513,235.286,165.671,235.135,166.843Z" transform="translate(-234.128 -148.245)" fill="#8a8886"/>
              <path id="Path_1463" data-name="Path 1463" d="M239.714,146.674l-.654-.381c.159-.745.338-1.481.533-2.2l.078-.283.654.381-.078.283Q239.954,145.553,239.714,146.674Z" transform="translate(-238.116 -131.539)" fill="#8f8d8b"/>
              <path id="Path_1464" data-name="Path 1464" d="M244.434,131.585l-.654-.381q.259-.958.571-1.874l.655.381C244.8,130.32,244.611,130.947,244.434,131.585Z" transform="translate(-242.225 -118.933)" fill="#949290"/>
              <path id="Path_1465" data-name="Path 1465" d="M248.845,119.586l-.655-.381q.259-.769.54-1.505l.655.379C249.2,118.57,249.016,119.073,248.845,119.586Z" transform="translate(-246.064 -108.808)" fill="#999795"/>
              <path id="Path_1466" data-name="Path 1466" d="M253.015,109.643l-.655-.379c.164-.428.335-.845.518-1.254l.654.381c-.177.408-.348.827-.511,1.253Z" transform="translate(-249.694 -100.372)" fill="#9e9c9a"/>
              <path id="Path_1467" data-name="Path 1467" d="M256.974,101.223l-.654-.388c.158-.362.32-.718.487-1.065l.654.381q-.251.518-.487,1.065Z" transform="translate(-253.142 -93.199)" fill="#a3a19f"/>
              <path id="Path_1468" data-name="Path 1468" d="M260.734,93.9l-.654-.381c.153-.317.311-.628.471-.931l.647.381c-.16.3-.317.612-.471.931Z" transform="translate(-256.415 -86.948)" fill="#a8a6a4"/>
              <path id="Path_1469" data-name="Path 1469" d="M264.417,87.416l-.647-.381c.149-.282.3-.558.459-.826l.655.379c-.158.269-.311.545-.461.827Z" transform="translate(-259.627 -81.394)" fill="#adaba9"/>
              <path id="Path_1470" data-name="Path 1470" d="M267.925,81.549l-.655-.379c.149-.259.3-.507.457-.749l.654.381C268.226,81.043,268.074,81.294,267.925,81.549Z" transform="translate(-262.674 -76.353)" fill="#b3b0ae"/>
              <path id="Path_1471" data-name="Path 1471" d="M271.454,76.308l-.654-.381c.109-.17.217-.335.329-.5l.118-.17.654.381-.118.17Q271.618,76.055,271.454,76.308Z" transform="translate(-265.748 -71.861)" fill="#b8b5b3"/>
              <path id="Path_1472" data-name="Path 1472" d="M274.9,71.288l-.654-.381q.234-.337.479-.647l.654.378c-.162.208-.322.426-.479.647Z" transform="translate(-268.751 -67.508)" fill="#bdbab8"/>
              <path id="Path_1473" data-name="Path 1473" d="M278.647,66.268,278,65.887q.259-.335.529-.647l.647.381Q278.909,65.929,278.647,66.268Z" transform="translate(-272.016 -63.138)" fill="#c2c0bc"/>
              <path id="Path_1474" data-name="Path 1474" d="M282.737,60.921l-.647-.381c.215-.247.434-.481.656-.7l.654.379q-.334.33-.656.7Z" transform="translate(-275.576 -58.437)" fill="#c7c5c1"/>
              <path id="Path_1475" data-name="Path 1475" d="M287.764,50.782l-.654-.379a8.9,8.9,0,0,1,1.8-1.4l.647.388a8.944,8.944,0,0,0-1.794,1.4Z" transform="translate(-279.947 -49)" fill="#cccac6"/>
            </g>
          </g>
        </g>
        <path id="Path_1477" data-name="Path 1477" d="M245.861,47.09a4.433,4.433,0,0,1,3.576-.566,5.5,5.5,0,0,1,2.862,2.352c1.61,2.419,2.6,6.431,2.614,11.476a.725.725,0,0,1-.325.569c-.184.106-.333.021-.333-.189A25.266,25.266,0,0,0,252.77,51.6c-.927-2.31-2.237-3.79-3.728-4.237a3.906,3.906,0,0,0-3.18.485,10.335,10.335,0,0,0-3.172,3.181,24.835,24.835,0,0,0-2.653,5.291,40.878,40.878,0,0,0-2.459,14.048.729.729,0,0,1-.33.573c-.179.1-.327.017-.327-.193A42.523,42.523,0,0,1,238.4,59.63a30.126,30.126,0,0,1,3.9-8.979A11.451,11.451,0,0,1,245.861,47.09Z" transform="translate(-236.253 -45.973)" fill="#c5c3c0"/>
      </g>
      <path id="Path_1478" data-name="Path 1478" d="M228.139,216.21c.8-.459,1.442-.091,1.444.818a3.169,3.169,0,0,1-1.434,2.485c-.8.461-1.438.089-1.439-.826A3.157,3.157,0,0,1,228.139,216.21Z" transform="translate(-197.368 -188.058)" fill="#e2ded9"/>
      <path id="Path_1479" data-name="Path 1479" d="M228.323,224.8c-.761.441-1.38.109-1.424-.729a2.519,2.519,0,0,0-.149.81c0,.915.647,1.283,1.439.826a3.163,3.163,0,0,0,1.434-2.485.33.33,0,0,0-.009-.094A3.192,3.192,0,0,1,228.323,224.8Z" transform="translate(-197.402 -194.255)" fill="#c5c3c0"/>
      <path id="Path_1480" data-name="Path 1480" d="M239.519,227.055c-.176.408-.476.667-.67.584s-.21-.484-.034-.889.479-.669.672-.585S239.7,226.648,239.519,227.055Z" transform="translate(-207.799 -196.884)" fill="#fff"/>
      <path id="Path_1481" data-name="Path 1481" d="M360.38,142.018c.8-.462,1.439-.093,1.443.815a3.16,3.16,0,0,1-1.435,2.485c-.8.461-1.435.091-1.438-.824A3.131,3.131,0,0,1,360.38,142.018Z" transform="translate(-312.492 -123.468)" fill="#e2ded9"/>
      <path id="Path_1482" data-name="Path 1482" d="M360.523,150.6c-.761.439-1.378.111-1.424-.726a2.539,2.539,0,0,0-.149.81c0,.915.647,1.283,1.438.824a3.17,3.17,0,0,0,1.435-2.485c0-.034-.006-.061-.008-.094A3.2,3.2,0,0,1,360.523,150.6Z" transform="translate(-312.492 -129.659)" fill="#c5c3c0"/>
      <path id="Path_1483" data-name="Path 1483" d="M371.724,152.908c-.177.405-.478.668-.672.584s-.208-.484-.034-.889.479-.668.672-.585S371.9,152.495,371.724,152.908Z" transform="translate(-322.893 -132.333)" fill="#fff"/>
      <g id="Group_106" data-name="Group 106" transform="translate(78.698 0)">
        <g id="Group_99" data-name="Group 99" transform="translate(0.413 1.031)">
          <g id="Group_98" data-name="Group 98" clip-path="url(#clip-path-7)">
            <g id="Group_97" data-name="Group 97">
              <path id="Path_1484" data-name="Path 1484" d="M611.24,19.07l.487-.278a.171.171,0,0,0,.07-.157,20.616,20.616,0,0,1,1.215-7.456A6.209,6.209,0,0,1,615.4,8l-.483.281a6.27,6.27,0,0,0-2.389,3.176,20.644,20.644,0,0,0-1.213,7.46A.167.167,0,0,1,611.24,19.07Z" transform="translate(-611.24 -8)" fill="#858381"/>
            </g>
          </g>
        </g>
        <g id="Group_102" data-name="Group 102" transform="translate(3.747)">
          <g id="Group_101" data-name="Group 101" clip-path="url(#clip-path-8)">
            <g id="Group_100" data-name="Group 100" transform="translate(0 -0.005)">
              <path id="Path_1486" data-name="Path 1486" d="M660.9,2.855l.481-.28a5.273,5.273,0,0,0-.6-.3l-.479.282a4.859,4.859,0,0,1,.6.293Z" transform="translate(-657.284 -1.985)" fill="#cccac6"/>
              <path id="Path_1487" data-name="Path 1487" d="M656.9,1.448l.479-.282a4.337,4.337,0,0,0-.5-.166l-.481.278a4.121,4.121,0,0,1,.506.175Z" transform="translate(-653.88 -0.871)" fill="#c7c5c1"/>
              <path id="Path_1488" data-name="Path 1488" d="M653.691.655l.482-.273a3.194,3.194,0,0,0-.4-.092l-.48.281a3.89,3.89,0,0,1,.4.084Z" transform="translate(-651.182 -0.252)" fill="#c2c0bc"/>
              <path id="Path_1489" data-name="Path 1489" d="M650.878.327l.48-.281c-.12-.017-.239-.031-.358-.036l-.48.281a3.47,3.47,0,0,1,.358.036Z" transform="translate(-648.77 -0.009)" fill="#bdbab8"/>
              <path id="Path_1490" data-name="Path 1490" d="M648.248.282l.48-.282h-.337l-.481.282a2.661,2.661,0,0,1,.338,0Z" transform="translate(-646.498 0)" fill="#b8b5b3"/>
              <path id="Path_1491" data-name="Path 1491" d="M645.681.286,646.163,0c-.113.009-.221.022-.33.041l-.483.277c.11-.017.219-.028.331-.036Z" transform="translate(-644.269 0)" fill="#b3b0ae"/>
              <path id="Path_1492" data-name="Path 1492" d="M643.1.627l.483-.277a2.488,2.488,0,0,0-.336.079l-.482.278C642.87.676,642.983.65,643.1.627Z" transform="translate(-642.015 -0.305)" fill="#adaba9"/>
              <path id="Path_1493" data-name="Path 1493" d="M640.409,1.273,640.891,1a.112.112,0,0,0-.039.012,2.544,2.544,0,0,0-.311.111l-.481.278c.1-.041.206-.08.311-.111l.039-.012Z" transform="translate(-639.664 -0.871)" fill="#a8a6a4"/>
              <path id="Path_1494" data-name="Path 1494" d="M637.64,2.188l.481-.278a3.218,3.218,0,0,0-.36.177l-.481.278c.118-.065.238-.123.361-.177Z" transform="translate(-637.244 -1.663)" fill="#a3a19f"/>
              <path id="Path_1495" data-name="Path 1495" d="M637.035,3.558l.483-.278a.244.244,0,0,0-.043.025L637,3.583c.013-.01.027-.014.041-.025Z" transform="translate(-637 -2.855)" fill="#9e9c9a"/>
            </g>
          </g>
        </g>
        <g id="Group_105" data-name="Group 105" transform="translate(7.358 0.586)">
          <g id="Group_104" data-name="Group 104" clip-path="url(#clip-path-9)">
            <g id="Group_103" data-name="Group 103" transform="translate(0 0)">
              <path id="Path_1497" data-name="Path 1497" d="M719.115,123.8l.483-.278a.164.164,0,0,0,.07-.153,33.584,33.584,0,0,0-.286-4.45l-.482.28a33.572,33.572,0,0,1,.286,4.451A.157.157,0,0,1,719.115,123.8Z" transform="translate(-711.911 -104.119)" fill="#858381"/>
              <path id="Path_1498" data-name="Path 1498" d="M715.644,100.151l.481-.28c-.129-.959-.287-1.908-.485-2.832l-.48.278C715.357,98.244,715.52,99.192,715.644,100.151Z" transform="translate(-708.655 -85.071)" fill="#8a8886"/>
              <path id="Path_1499" data-name="Path 1499" d="M711.93,84.129l.48-.283c-.13-.6-.269-1.189-.427-1.765-.016-.065-.035-.129-.052-.19l-.481.28c.017.063.036.129.053.19.155.577.3,1.165.427,1.764Z" transform="translate(-705.425 -71.881)" fill="#8f8d8b"/>
              <path id="Path_1500" data-name="Path 1500" d="M708.272,71.763l.482-.28c-.146-.524-.3-1.043-.471-1.553l-.483.28C707.97,70.713,708.127,71.232,708.272,71.763Z" transform="translate(-702.248 -61.469)" fill="#949290"/>
              <path id="Path_1501" data-name="Path 1501" d="M704.823,61.953l.483-.276c-.14-.421-.29-.834-.445-1.237l-.48.28c.155.4.3.817.443,1.237Z" transform="translate(-699.27 -53.208)" fill="#999795"/>
              <path id="Path_1502" data-name="Path 1502" d="M701.551,53.777l.48-.28c-.129-.349-.274-.694-.418-1.028l-.483.28C701.276,53.085,701.416,53.426,701.551,53.777Z" transform="translate(-696.441 -46.269)" fill="#9e9c9a"/>
              <path id="Path_1503" data-name="Path 1503" d="M698.466,46.908l.483-.28c-.129-.3-.259-.588-.4-.868l-.482.28C698.2,46.323,698.339,46.614,698.466,46.908Z" transform="translate(-693.777 -40.428)" fill="#a3a19f"/>
              <path id="Path_1504" data-name="Path 1504" d="M695.458,40.955l.481-.28c-.129-.259-.259-.51-.388-.756l-.482.278C695.2,40.447,695.329,40.7,695.458,40.955Z" transform="translate(-691.165 -35.343)" fill="#a8a6a4"/>
              <path id="Path_1505" data-name="Path 1505" d="M692.6,35.7l.481-.278q-.183-.344-.371-.669l-.483.28C692.359,35.246,692.481,35.471,692.6,35.7Z" transform="translate(-688.693 -30.843)" fill="#adaba9"/>
              <path id="Path_1506" data-name="Path 1506" d="M689.775,30.955l.488-.28c-.122-.207-.245-.409-.371-.606l-.481.278c.129.2.248.4.37.607Z" transform="translate(-686.238 -26.768)" fill="#b3b0ae"/>
              <path id="Path_1507" data-name="Path 1507" d="M686.854,26.6l.481-.278c-.088-.138-.177-.268-.271-.408-.034-.05-.069-.1-.1-.149l-.483.281c.035.049.067.1.1.148.089.129.18.271.268.406Z" transform="translate(-683.687 -23.025)" fill="#b8b5b3"/>
              <path id="Path_1508" data-name="Path 1508" d="M683.9,22.5l.483-.281q-.193-.272-.388-.528l-.481.281q.194.254.388.528Z" transform="translate(-681.101 -19.473)" fill="#bdbab8"/>
              <path id="Path_1509" data-name="Path 1509" d="M680.627,18.489l.481-.281c-.14-.18-.285-.355-.428-.518l-.48.28q.215.259.427.518Z" transform="translate(-678.22 -15.991)" fill="#c2c0bc"/>
              <path id="Path_1510" data-name="Path 1510" d="M676.631,14.144l.48-.28c-.172-.2-.349-.388-.528-.564l-.483.281C676.281,13.757,676.456,13.947,676.631,14.144Z" transform="translate(-674.65 -12.169)" fill="#c7c5c1"/>
              <path id="Path_1511" data-name="Path 1511" d="M666.35,5.972l.483-.281a7.309,7.309,0,0,0-1.451-1.131l-.481.28a7.142,7.142,0,0,1,1.45,1.132Z" transform="translate(-664.9 -4.56)" fill="#cccac6"/>
            </g>
          </g>
        </g>
        <path id="Path_1513" data-name="Path 1513" d="M615.408,2.749a3.6,3.6,0,0,0-2.9-.456,4.435,4.435,0,0,0-2.322,1.916c-1.311,1.97-2.121,5.233-2.132,9.35a.529.529,0,0,0,.242.417.147.147,0,0,0,.242-.137,20.642,20.642,0,0,1,1.213-7.46c.756-1.884,1.828-3.1,3.053-3.466a3.189,3.189,0,0,1,2.607.391,8.4,8.4,0,0,1,2.6,2.611,20.6,20.6,0,0,1,2.177,4.335A33.431,33.431,0,0,1,622.2,21.721a.536.536,0,0,0,.241.415c.129.075.245.014.245-.129a34.769,34.769,0,0,0-1.2-9.052,24.781,24.781,0,0,0-3.178-7.306A9.4,9.4,0,0,0,615.408,2.749Z" transform="translate(-608.05 -1.884)" fill="#c5c3c0"/>
      </g>
      <path id="Path_1514" data-name="Path 1514" d="M557.016,57.812l9.237-5.476,3.086-1.826L544.483,36.16l-1.306,1.582-4.327,1.138Z" transform="translate(-469.108 -31.486)" fill="#0f0058"/>
      <path id="Path_1515" data-name="Path 1515" d="M559.881,345.188l7.552-6.154,6.361-1.932L548.939,322.75l-6.8,3.826Z" transform="translate(-471.972 -280.983)" fill="#0d004b"/>
      <path id="Path_1516" data-name="Path 1516" d="M678.38,192.346l7.165-8.387,6.747.3L690.81,147.03l-3.725.1-6.491,5.011Z" transform="translate(-590.579 -128.006)" fill="#160084"/>
      <path id="Path_1517" data-name="Path 1517" d="M733.74,183.96l1.54-36.827,3.725-.1,1.482,37.231Z" transform="translate(-638.774 -128.006)" fill="#106"/>
      <path id="Path_1518" data-name="Path 1518" d="M543.177,48.38V61.593L538.85,49.518Z" transform="translate(-469.108 -42.124)" fill="#160084"/>
      <path id="Path_1519" data-name="Path 1519" d="M572.28,37.742V48.22l1.306-12.06Z" transform="translate(-498.211 -31.486)" fill="#106"/>
      <path id="Path_1520" data-name="Path 1520" d="M493.145,57.17l-6.795,42.6L511.2,114.117l5.807-43.006Z" transform="translate(-423.403 -49.776)" fill="#106"/>
      <path id="Path_1521" data-name="Path 1521" d="M493.145,55.56l-6.795,42.6,24.854,14.35Z" transform="translate(-423.403 -48.375)" fill="#0d004b"/>
      <path id="Path_1522" data-name="Path 1522" d="M674.854,163.11c-.5-.289-.906-.053-.914.518a2,2,0,0,0,.906,1.569c.5.29.906.061.912-.518A2,2,0,0,0,674.854,163.11Z" transform="translate(-586.714 -141.896)" fill="#9f6d09"/>
      <path id="Path_1523" data-name="Path 1523" d="M567.472,101.494c-.5-.289-.906-.049-.912.518a2.009,2.009,0,0,0,.906,1.57c.5.293.912.061.912-.518A2.011,2.011,0,0,0,567.472,101.494Z" transform="translate(-493.232 -88.256)" fill="#9f6d09"/>
      <path id="Path_1524" data-name="Path 1524" d="M544.524,36.371l24.2,13.978-3.119.084h-.054l-.044.034L562.7,52.605,539.291,38.93l3.929-1.035.053-.016.035-.041,1.215-1.469Zm-.042-.221-1.306,1.582-4.327,1.139,23.866,13.941,2.9-2.209,3.725-.1L544.489,36.15Z" transform="translate(-469.108 -31.476)" fill="#ffce88"/>
      <g id="Group_116" data-name="Group 116" transform="translate(73.6 2.494)">
        <g id="Group_109" data-name="Group 109" transform="translate(0.417 1.035)">
          <g id="Group_108" data-name="Group 108" clip-path="url(#clip-path-10)">
            <g id="Group_107" data-name="Group 107">
              <path id="Path_1525" data-name="Path 1525" d="M571.88,38.37l.481-.281a.17.17,0,0,0,.071-.157,20.663,20.663,0,0,1,1.214-7.452,6.211,6.211,0,0,1,2.391-3.18l-.482.28a6.248,6.248,0,0,0-2.391,3.176,20.611,20.611,0,0,0-1.214,7.452.171.171,0,0,1-.071.158Z" transform="translate(-571.88 -27.3)" fill="#858381"/>
            </g>
          </g>
        </g>
        <g id="Group_112" data-name="Group 112" transform="translate(3.742)">
          <g id="Group_111" data-name="Group 111" clip-path="url(#clip-path-11)">
            <g id="Group_110" data-name="Group 110" transform="translate(0 0.001)">
              <path id="Path_1527" data-name="Path 1527" d="M621.584,22.143l.481-.28a5.546,5.546,0,0,0-.589-.294l-.476.285A4.769,4.769,0,0,1,621.584,22.143Z" transform="translate(-617.968 -21.277)" fill="#cccac6"/>
              <path id="Path_1528" data-name="Path 1528" d="M617.518,20.714l.481-.282a4.687,4.687,0,0,0-.507-.172l-.492.28A4.139,4.139,0,0,1,617.518,20.714Z" transform="translate(-614.485 -20.137)" fill="#c7c5c1"/>
              <path id="Path_1529" data-name="Path 1529" d="M614.3,19.965l.482-.28a3.788,3.788,0,0,0-.4-.085l-.48.28C614.029,19.9,614.167,19.93,614.3,19.965Z" transform="translate(-611.786 -19.562)" fill="#c2c0bc"/>
              <path id="Path_1530" data-name="Path 1530" d="M611.52,19.662l.48-.28a2.817,2.817,0,0,0-.357-.032l-.483.276c.119.006.238.018.36.036Z" transform="translate(-609.401 -19.345)" fill="#bdbab8"/>
              <path id="Path_1531" data-name="Path 1531" d="M608.888,19.59l.483-.276a2.694,2.694,0,0,0-.339,0l-.482.28a2.933,2.933,0,0,1,.338,0Z" transform="translate(-607.129 -19.309)" fill="#b8b5b3"/>
              <path id="Path_1532" data-name="Path 1532" d="M606.33,19.64l.481-.28a2.552,2.552,0,0,0-.33.039L606,19.68A3.147,3.147,0,0,1,606.33,19.64Z" transform="translate(-604.909 -19.353)" fill="#b3b0ae"/>
              <path id="Path_1533" data-name="Path 1533" d="M603.658,19.941l.481-.281a2.956,2.956,0,0,0-.348.083l-.481.278A2.831,2.831,0,0,1,603.658,19.941Z" transform="translate(-602.567 -19.615)" fill="#adaba9"/>
              <path id="Path_1534" data-name="Path 1534" d="M600.959,20.578l.478-.278a.1.1,0,0,0-.027.006c-.107.032-.214.072-.318.114l-.481.28c.1-.043.211-.082.318-.114l.027-.008Z" transform="translate(-600.217 -20.172)" fill="#a8a6a4"/>
              <path id="Path_1535" data-name="Path 1535" d="M598.246,21.51l.482-.28a3.642,3.642,0,0,0-.357.175l-.48.281a3.5,3.5,0,0,1,.356-.176Z" transform="translate(-597.849 -20.981)" fill="#a3a19f"/>
              <path id="Path_1536" data-name="Path 1536" d="M597.611,22.861l.48-.281-.04.023-.481.281Z" transform="translate(-597.57 -22.157)" fill="#9e9c9a"/>
            </g>
          </g>
        </g>
        <g id="Group_115" data-name="Group 115" transform="translate(7.358 0.596)">
          <g id="Group_114" data-name="Group 114" clip-path="url(#clip-path-12)">
            <g id="Group_113" data-name="Group 113" transform="translate(0 -0.006)">
              <path id="Path_1538" data-name="Path 1538" d="M679.736,143.249l.484-.28a.172.172,0,0,0,.069-.158A34,34,0,0,0,680,138.38l-.484.28a34.241,34.241,0,0,1,.289,4.434A.168.168,0,0,1,679.736,143.249Z" transform="translate(-672.53 -123.558)" fill="#858381"/>
              <path id="Path_1539" data-name="Path 1539" d="M676.255,119.457l.484-.28q-.194-1.444-.488-2.847l-.481.28Q676.066,118,676.255,119.457Z" transform="translate(-669.265 -104.362)" fill="#8a8886"/>
              <path id="Path_1540" data-name="Path 1540" d="M672.488,103.357l.482-.28q-.194-.9-.427-1.773c-.019-.067-.038-.129-.057-.2l-.485.28c.018.069.038.137.056.2.157.58.3,1.173.428,1.773Z" transform="translate(-665.983 -91.103)" fill="#8f8d8b"/>
              <path id="Path_1541" data-name="Path 1541" d="M668.822,90.933l.481-.28c-.146-.529-.3-1.043-.474-1.553l-.48.281q.252.753.472,1.553Z" transform="translate(-662.805 -80.656)" fill="#949290"/>
              <path id="Path_1542" data-name="Path 1542" d="M665.438,81.124l.48-.281q-.21-.63-.44-1.233l-.478.281q.23.6.443,1.233Z" transform="translate(-659.889 -72.394)" fill="#999795"/>
              <path id="Path_1543" data-name="Path 1543" d="M662.2,73.031l.483-.281q-.2-.518-.418-1.02l-.481.28C661.924,72.343,662.063,72.683,662.2,73.031Z" transform="translate(-657.086 -65.534)" fill="#9e9c9a"/>
              <path id="Path_1544" data-name="Path 1544" d="M659.085,66.212l.481-.28c-.129-.294-.259-.582-.395-.862l-.481.28c.129.28.268.569.388.862Z" transform="translate(-654.396 -59.736)" fill="#a3a19f"/>
              <path id="Path_1545" data-name="Path 1545" d="M656.122,60.283,656.6,60c-.129-.259-.25-.507-.38-.753l-.483.28c.129.247.259.5.388.753Z" transform="translate(-651.827 -54.67)" fill="#a8a6a4"/>
              <path id="Path_1546" data-name="Path 1546" d="M653.268,55.037l.483-.28q-.181-.339-.371-.668l-.479.282C653.029,54.59,653.148,54.81,653.268,55.037Z" transform="translate(-649.355 -50.177)" fill="#adaba9"/>
              <path id="Path_1547" data-name="Path 1547" d="M650.375,50.333l.479-.282q-.181-.307-.366-.6l-.488.28c.129.2.249.4.37.6Z" transform="translate(-646.83 -46.138)" fill="#b3b0ae"/>
              <path id="Path_1548" data-name="Path 1548" d="M647.388,45.838l.483-.28c-.092-.144-.184-.282-.277-.419-.038-.054-.075-.106-.113-.159l-.481.28.113.159C647.206,45.557,647.3,45.694,647.388,45.838Z" transform="translate(-644.219 -42.246)" fill="#b8b5b3"/>
              <path id="Path_1549" data-name="Path 1549" d="M644.423,41.795l.487-.277c-.129-.181-.251-.352-.388-.518l-.481.278q.2.25.382.518Z" transform="translate(-641.642 -38.782)" fill="#bdbab8"/>
              <path id="Path_1550" data-name="Path 1550" d="M641.243,37.793l.481-.276q-.208-.272-.424-.518l-.48.281c.144.166.283.338.423.518Z" transform="translate(-638.838 -35.299)" fill="#c2c0bc"/>
              <path id="Path_1551" data-name="Path 1551" d="M637.268,33.481l.48-.277c-.171-.2-.349-.388-.527-.564l-.481.281c.179.176.355.366.528.564Z" transform="translate(-635.287 -31.504)" fill="#c7c5c1"/>
              <path id="Path_1552" data-name="Path 1552" d="M626.964,25.273l.481-.281a7.365,7.365,0,0,0-1.453-1.132l-.481.277a7.193,7.193,0,0,1,1.453,1.134Z" transform="translate(-625.51 -23.86)" fill="#cccac6"/>
            </g>
          </g>
        </g>
        <path id="Path_1554" data-name="Path 1554" d="M576.018,22.036a3.59,3.59,0,0,0-2.9-.454,4.5,4.5,0,0,0-2.33,1.908c-1.307,1.97-2.114,5.238-2.128,9.346a.537.537,0,0,0,.243.423c.129.078.245.014.245-.142a20.626,20.626,0,0,1,1.214-7.452c.757-1.887,1.828-3.106,3.047-3.469a3.213,3.213,0,0,1,2.608.4,8.5,8.5,0,0,1,2.607,2.611,20.349,20.349,0,0,1,2.173,4.337,33.393,33.393,0,0,1,2.013,11.467.538.538,0,0,0,.242.423.15.15,0,0,0,.246-.138,35,35,0,0,0-1.2-9.048,24.7,24.7,0,0,0-3.177-7.309A9.415,9.415,0,0,0,576.018,22.036Z" transform="translate(-568.66 -21.169)" fill="#c5c3c0"/>
      </g>
      <path id="Path_1555" data-name="Path 1555" d="M673.078,159.838c-.647-.377-1.176-.075-1.178.665a2.588,2.588,0,0,0,1.165,2.027c.647.375,1.165.072,1.174-.674A2.529,2.529,0,0,0,673.078,159.838Z" transform="translate(-584.938 -139.013)" fill="#e2ded9"/>
      <path id="Path_1556" data-name="Path 1556" d="M673.024,166.833c.62.357,1.125.093,1.165-.593a2.02,2.02,0,0,1,.129.66c0,.747-.529,1.046-1.174.674a2.565,2.565,0,0,1-1.165-2.027.315.315,0,0,1,.006-.078A2.5,2.5,0,0,0,673.024,166.833Z" transform="translate(-585.007 -144.058)" fill="#c5c3c0"/>
      <path id="Path_1557" data-name="Path 1557" d="M674.335,168.673c.144.33.388.544.547.475s.171-.388.027-.726-.388-.544-.546-.474S674.193,168.341,674.335,168.673Z" transform="translate(-586.971 -146.204)" fill="#fff"/>
      <path id="Path_1558" data-name="Path 1558" d="M565.258,99.33c-.647-.375-1.175-.076-1.178.665a2.587,2.587,0,0,0,1.165,2.028c.647.377,1.165.071,1.165-.676A2.553,2.553,0,0,0,565.258,99.33Z" transform="translate(-491.073 -86.337)" fill="#e2ded9"/>
      <path id="Path_1559" data-name="Path 1559" d="M565.224,106.34c.62.36,1.125.093,1.165-.593a2.031,2.031,0,0,1,.12.66c0,.747-.527,1.046-1.165.676a2.579,2.579,0,0,1-1.165-2.028c0-.028.008-.049.009-.075A2.474,2.474,0,0,0,565.224,106.34Z" transform="translate(-491.159 -91.397)" fill="#c5c3c0"/>
      <path id="Path_1560" data-name="Path 1560" d="M566.528,108.167c.144.331.388.545.547.478s.17-.388.029-.726-.388-.545-.547-.476S566.385,107.837,566.528,108.167Z" transform="translate(-493.117 -93.529)" fill="#fff"/>
      <g id="Group_126" data-name="Group 126" transform="translate(42.258 20.669)">
        <g id="Group_119" data-name="Group 119" transform="translate(23.813 1.728)">
          <g id="Group_118" data-name="Group 118" clip-path="url(#clip-path-13)">
            <g id="Group_117" data-name="Group 117">
              <path id="Path_1561" data-name="Path 1561" d="M516.191,185.456l-.588-.349a.208.208,0,0,1-.087-.193c-.016-5.341-1.619-9.258-4.191-11.269a7.512,7.512,0,0,0-.836-.564l.591.343a6.845,6.845,0,0,1,.833.566c2.574,2.013,4.177,5.926,4.192,11.269a.217.217,0,0,0,.087.193Z" transform="translate(-510.49 -173.08)" fill="#7a7977"/>
            </g>
          </g>
        </g>
        <g id="Group_122" data-name="Group 122" transform="translate(14.66)">
          <g id="Group_121" data-name="Group 121" clip-path="url(#clip-path-14)">
            <g id="Group_120" data-name="Group 120" transform="translate(0 -0.001)">
              <path id="Path_1563" data-name="Path 1563" d="M440.36,167.556l-.59-.343a15.529,15.529,0,0,1,1.78-.883l.59.344A15.006,15.006,0,0,0,440.36,167.556Z" transform="translate(-439.77 -165.475)" fill="#bbbab6"/>
              <path id="Path_1564" data-name="Path 1564" d="M454.11,163.3l-.59-.344a12.112,12.112,0,0,1,1.474-.5l.59.34a11.93,11.93,0,0,0-1.474.507Z" transform="translate(-451.74 -162.097)" fill="#b7b5b2"/>
              <path id="Path_1565" data-name="Path 1565" d="M465.5,161.152l-.59-.34a9.673,9.673,0,0,1,1.142-.242l.59.34A10.588,10.588,0,0,0,465.5,161.152Z" transform="translate(-461.656 -160.46)" fill="#b2b0ad"/>
              <path id="Path_1566" data-name="Path 1566" d="M474.32,160.231l-.59-.34a8.431,8.431,0,0,1,.987-.1l.59.343a9.082,9.082,0,0,0-.988.1Z" transform="translate(-469.335 -159.781)" fill="#adaca9"/>
              <path id="Path_1567" data-name="Path 1567" d="M481.95,160.073l-.59-.343a7.4,7.4,0,0,1,.9.01l.591.34a8.671,8.671,0,0,0-.9-.008Z" transform="translate(-475.977 -159.721)" fill="#a8a7a4"/>
              <path id="Path_1568" data-name="Path 1568" d="M488.891,160.21l-.591-.34a7.759,7.759,0,0,1,.84.1l.591.346A7.482,7.482,0,0,0,488.891,160.21Z" transform="translate(-482.019 -159.851)" fill="#a4a2a0"/>
              <path id="Path_1569" data-name="Path 1569" d="M495.381,160.966l-.591-.346a6.867,6.867,0,0,1,.805.188l.591.343A7.051,7.051,0,0,0,495.381,160.966Z" transform="translate(-487.669 -160.504)" fill="#9f9e9b"/>
              <path id="Path_1570" data-name="Path 1570" d="M501.593,162.413,501,162.07a6.107,6.107,0,0,1,.783.277l.59.34a7.17,7.17,0,0,0-.777-.274Z" transform="translate(-493.075 -161.766)" fill="#9a9996"/>
              <path id="Path_1571" data-name="Path 1571" d="M507.65,164.55l-.59-.34a7.408,7.408,0,0,1,.769.374l.591.346a7.47,7.47,0,0,0-.777-.379Z" transform="translate(-498.351 -163.629)" fill="#969492"/>
              <path id="Path_1572" data-name="Path 1572" d="M513.593,167.446,513,167.1c.03.018.057.035.084.049l.593.346a.64.64,0,0,0-.085-.049Z" transform="translate(-503.522 -166.145)" fill="#91908d"/>
            </g>
          </g>
        </g>
        <g id="Group_125" data-name="Group 125" transform="translate(0 1.737)">
          <g id="Group_124" data-name="Group 124" clip-path="url(#clip-path-15)">
            <g id="Group_123" data-name="Group 123" transform="translate(0 0)">
              <path id="Path_1574" data-name="Path 1574" d="M327.18,366.895l-.589-.346a.2.2,0,0,1-.089-.19,30.265,30.265,0,0,1,.259-3.989l.59.346a30.667,30.667,0,0,0-.259,3.985.212.212,0,0,0,.087.194Z" transform="translate(-326.5 -337.88)" fill="#7a7977"/>
              <path id="Path_1575" data-name="Path 1575" d="M329.11,343.819l-.59-.346c.12-.931.282-1.868.481-2.8l.593.343Q329.291,342.416,329.11,343.819Z" transform="translate(-328.259 -318.988)" fill="#7e7d7b"/>
              <path id="Path_1576" data-name="Path 1576" d="M332.833,326.2l-.593-.343q.239-1.108.544-2.208l.59.343C333.169,324.723,332.986,325.462,332.833,326.2Z" transform="translate(-331.497 -304.171)" fill="#838280"/>
              <path id="Path_1577" data-name="Path 1577" d="M337.03,311.117l-.59-.343c.177-.647.373-1.277.584-1.914l.59.344Q337.3,310.156,337.03,311.117Z" transform="translate(-335.154 -291.295)" fill="#888784"/>
              <path id="Path_1578" data-name="Path 1578" d="M341.584,297.7l-.584-.344c.192-.569.4-1.142.615-1.711l.591.346c-.219.566-.423,1.138-.616,1.71Z" transform="translate(-339.123 -279.786)" fill="#8c8b89"/>
              <path id="Path_1579" data-name="Path 1579" d="M346.291,285.426l-.591-.346c.2-.528.417-1.05.647-1.57l.591.343C346.713,284.371,346.5,284.9,346.291,285.426Z" transform="translate(-343.215 -269.226)" fill="#91908d"/>
              <path id="Path_1580" data-name="Path 1580" d="M351.251,273.946l-.591-.343q.324-.746.674-1.473l.59.346C351.69,272.96,351.468,273.45,351.251,273.946Z" transform="translate(-347.533 -259.319)" fill="#969492"/>
              <path id="Path_1581" data-name="Path 1581" d="M356.46,262.821l-.59-.346c.149-.307.3-.615.457-.918q.129-.259.268-.518l.59.343c-.091.171-.179.34-.267.511-.157.305-.308.611-.458.92Z" transform="translate(-352.069 -249.665)" fill="#9a9996"/>
              <path id="Path_1582" data-name="Path 1582" d="M362.03,252.475l-.59-.343c.239-.45.487-.9.743-1.332l.59.34Q362.385,251.8,362.03,252.475Z" transform="translate(-356.918 -240.75)" fill="#9f9e9b"/>
              <path id="Path_1583" data-name="Path 1583" d="M367.8,242.435l-.59-.34c.259-.441.518-.871.791-1.294l.589.344c-.269.423-.532.857-.79,1.294Z" transform="translate(-361.941 -232.044)" fill="#a4a2a0"/>
              <path id="Path_1584" data-name="Path 1584" d="M373.909,232.55l-.589-.344c.276-.434.562-.862.853-1.276l.59.344Q374.327,231.9,373.909,232.55Z" transform="translate(-367.26 -223.452)" fill="#a8a7a4"/>
              <path id="Path_1585" data-name="Path 1585" d="M380.5,222.629l-.59-.344c.308-.441.625-.868.95-1.285l.589.343Q380.964,221.968,380.5,222.629Z" transform="translate(-372.997 -214.807)" fill="#adaca9"/>
              <path id="Path_1586" data-name="Path 1586" d="M387.839,212.272l-.589-.343q.54-.7,1.1-1.349l.591.344Q388.379,211.571,387.839,212.272Z" transform="translate(-379.387 -205.736)" fill="#b2b0ad"/>
              <path id="Path_1587" data-name="Path 1587" d="M396.371,200.53l-.591-.344q.705-.812,1.446-1.545l.591.344Q397.077,199.716,396.371,200.53Z" transform="translate(-386.813 -195.341)" fill="#b7b5b2"/>
              <path id="Path_1588" data-name="Path 1588" d="M407.585,176.793l-.585-.344a21.414,21.414,0,0,1,4.248-3.3l.59.343a21.234,21.234,0,0,0-4.247,3.3Z" transform="translate(-396.581 -173.15)" fill="#bbbab6"/>
            </g>
          </g>
        </g>
        <path id="Path_1590" data-name="Path 1590" d="M345.737,164.12c4.082-2.357,7.776-2.227,10.44-.138s4.316,6.122,4.332,11.625a.647.647,0,0,1-.3.518c-.164.1-.3.021-.3-.17-.016-5.343-1.618-9.257-4.192-11.269s-6.1-2.119-9.983.12-7.4,6.422-9.953,11.39a36,36,0,0,0-4.115,16.066.647.647,0,0,1-.291.518c-.167.094-.3.019-.3-.173a37.144,37.144,0,0,1,4.261-16.593C337.994,170.862,341.659,166.476,345.737,164.12Z" transform="translate(-330.487 -162.04)" fill="#b5b3b0"/>
      </g>
      <path id="Path_1591" data-name="Path 1591" d="M299.445,252.013l-3.755-7.2-2.56-1.519L329.2,222.54l1.816,2.792,6.563,1.675Z" transform="translate(-255.191 -193.743)" fill="#070606"/>
      <path id="Path_1592" data-name="Path 1592" d="M295.081,486.991l-6.568-4.63-4.892-1.967,35.709-21.014,5.644,3.175Z" transform="translate(-246.912 -399.929)" fill="#070606"/>
      <path id="Path_1593" data-name="Path 1593" d="M295.171,420.528l-5.95-6.968-5.6.252,1.231-30.912,5.338.194,4.13,4.074Z" transform="translate(-246.912 -333.348)" fill="#1c1b19"/>
      <path id="Path_1594" data-name="Path 1594" d="M289.222,413.56l.967-30.466-5.338-.194-1.231,30.912Z" transform="translate(-246.912 -333.348)" fill="#302e2b"/>
      <path id="Path_1595" data-name="Path 1595" d="M585.82,244.11v20.324l6.563-18.649Z" transform="translate(-509.999 -212.521)" fill="#302e2b"/>
      <path id="Path_1596" data-name="Path 1596" d="M573.606,225.332l.28,20.112-2.1,1.679V222.54Z" transform="translate(-497.785 -193.743)" fill="#1c1b19"/>
      <path id="Path_1597" data-name="Path 1597" d="M401.258,257.05l1.674,33.017-35.8,20.9-.853-33.36Z" transform="translate(-318.873 -223.787)" fill="#474541"/>
      <path id="Path_1598" data-name="Path 1598" d="M402.129,429.153l-35.8,20.892-.85-33.355Z" transform="translate(-318.177 -362.765)" fill="#353431"/>
      <g id="Group_136" data-name="Group 136" transform="translate(50.169 38.136)">
        <g id="Group_129" data-name="Group 129" transform="translate(29.129)">
          <g id="Group_128" data-name="Group 128" clip-path="url(#clip-path-16)">
            <g id="Group_127" data-name="Group 127" transform="translate(0 0.002)">
              <path id="Path_1599" data-name="Path 1599" d="M613.27,295.205l-.59-.344a.137.137,0,0,1,.041-.021l.591.343a.175.175,0,0,0-.043.019Z" transform="translate(-612.68 -294.822)" fill="#bbbab6"/>
              <path id="Path_1600" data-name="Path 1600" d="M613.591,295.116l-.591-.343c.013,0,.025-.01.036-.013l.592.342A.153.153,0,0,0,613.591,295.116Z" transform="translate(-612.959 -294.752)" fill="#b7b5b2"/>
              <path id="Path_1601" data-name="Path 1601" d="M613.871,295.058l-.591-.342a.069.069,0,0,1,.026-.007l.591.342h-.026Z" transform="translate(-613.202 -294.709)" fill="#b2b0ad"/>
              <path id="Path_1602" data-name="Path 1602" d="M614.071,295.052l-.591-.342h.022l.591.34h-.022Z" transform="translate(-613.376 -294.709)" fill="#adaca9"/>
              <path id="Path_1603" data-name="Path 1603" d="M614.241,295.04l-.591-.34h.019l.59.34Z" transform="translate(-613.524 -294.7)" fill="#a8a7a4"/>
              <path id="Path_1604" data-name="Path 1604" d="M614.39,295.04l-.59-.34h.026l.589.342H614.4Z" transform="translate(-613.655 -294.7)" fill="#a4a2a0"/>
              <path id="Path_1605" data-name="Path 1605" d="M614.582,295.047l-.582-.342h.017l.589.343h-.017Z" transform="translate(-613.829 -294.704)" fill="#9f9e9b"/>
              <path id="Path_1606" data-name="Path 1606" d="M614.669,295.093l-.589-.343h.014l.59.342a.027.027,0,0,0-.016,0Z" transform="translate(-613.899 -294.744)" fill="#9a9996"/>
              <path id="Path_1607" data-name="Path 1607" d="M614.78,295.132l-.59-.342h.016l.591.343-.017-.008Z" transform="translate(-613.995 -294.778)" fill="#969492"/>
              <path id="Path_1608" data-name="Path 1608" d="M614.9,295.183l-.591-.343h0l.59.343h0Z" transform="translate(-614.099 -294.822)" fill="#91908d"/>
            </g>
          </g>
        </g>
        <g id="Group_132" data-name="Group 132" transform="translate(5.615 0.034)">
          <g id="Group_131" data-name="Group 131" clip-path="url(#clip-path-17)">
            <g id="Group_130" data-name="Group 130" transform="translate(0 0.009)">
              <path id="Path_1610" data-name="Path 1610" d="M431.6,516.76l-.6-.34c.027.014.054.029.083.047l.589.34-.082-.047Z" transform="translate(-431 -487.765)" fill="#91908d"/>
              <path id="Path_1611" data-name="Path 1611" d="M432.269,517.12l-.589-.34a6.351,6.351,0,0,0,.744.361l.59.346A7.11,7.11,0,0,1,432.269,517.12Z" transform="translate(-431.592 -488.078)" fill="#969492"/>
              <path id="Path_1612" data-name="Path 1612" d="M438.03,519.916l-.59-.346a6.508,6.508,0,0,0,.753.268l.59.343a6.652,6.652,0,0,1-.753-.259Z" transform="translate(-436.606 -490.507)" fill="#9a9996"/>
              <path id="Path_1613" data-name="Path 1613" d="M443.84,521.983l-.59-.343a7.656,7.656,0,0,0,.777.181l.591.34a7.091,7.091,0,0,1-.777-.179Z" transform="translate(-441.665 -492.309)" fill="#9f9e9b"/>
              <path id="Path_1614" data-name="Path 1614" d="M449.822,523.346,449.23,523c.259.041.533.074.806.092l.59.346a7.755,7.755,0,0,1-.805-.1Z" transform="translate(-446.871 -493.493)" fill="#a4a2a0"/>
              <path id="Path_1615" data-name="Path 1615" d="M456.03,524.1l-.59-.346a7.9,7.9,0,0,0,.859.009l.59.343A8.237,8.237,0,0,1,456.03,524.1Z" transform="translate(-452.277 -494.146)" fill="#a8a7a4"/>
              <path id="Path_1616" data-name="Path 1616" d="M462.69,523.527l-.59-.343a8.517,8.517,0,0,0,.941-.094l.591.346A8.894,8.894,0,0,1,462.69,523.527Z" transform="translate(-458.075 -493.571)" fill="#adaca9"/>
              <path id="Path_1617" data-name="Path 1617" d="M469.961,521.869l-.591-.346a9.118,9.118,0,0,0,1.09-.233l.59.346A10.2,10.2,0,0,1,469.961,521.869Z" transform="translate(-464.404 -492.004)" fill="#b2b0ad"/>
              <path id="Path_1618" data-name="Path 1618" d="M478.38,518.446l-.59-.346a11.485,11.485,0,0,0,1.4-.48l.593.342A11.568,11.568,0,0,1,478.38,518.446Z" transform="translate(-471.734 -488.809)" fill="#b7b5b2"/>
              <path id="Path_1619" data-name="Path 1619" d="M489.233,491.047l-.593-.342a14.384,14.384,0,0,0,1.694-.841,20.136,20.136,0,0,0,4.056-3.154l.59.346a19.974,19.974,0,0,1-4.056,3.15A13.334,13.334,0,0,1,489.233,491.047Z" transform="translate(-481.18 -461.9)" fill="#bbbab6"/>
              <path id="Path_1620" data-name="Path 1620" d="M533.66,477.122l-.59-.346q.707-.7,1.382-1.477l.59.346C534.593,476.163,534.137,476.658,533.66,477.122Z" transform="translate(-519.859 -451.967)" fill="#b7b5b2"/>
              <path id="Path_1621" data-name="Path 1621" d="M544.34,467.031l-.59-.346q.54-.62,1.059-1.285l.589.343c-.346.44-.7.874-1.057,1.294Z" transform="translate(-529.157 -443.348)" fill="#b2b0ad"/>
              <path id="Path_1622" data-name="Path 1622" d="M552.519,457.37l-.589-.343q.462-.6.906-1.237l.593.343c-.3.424-.6.833-.906,1.237Z" transform="translate(-536.278 -434.982)" fill="#adaca9"/>
              <path id="Path_1623" data-name="Path 1623" d="M559.533,447.9l-.593-.343c.282-.4.557-.81.823-1.227l.591.343C560.088,447.092,559.814,447.5,559.533,447.9Z" transform="translate(-542.381 -426.746)" fill="#a8a7a4"/>
              <path id="Path_1624" data-name="Path 1624" d="M565.891,438.275l-.591-.343c.259-.408.518-.828.764-1.252l.59.346Q566.282,437.658,565.891,438.275Z" transform="translate(-547.918 -418.345)" fill="#a4a2a0"/>
              <path id="Path_1625" data-name="Path 1625" d="M571.79,428.4l-.59-.346q.368-.629.712-1.28l.591.346C572.273,427.549,572.035,427.974,571.79,428.4Z" transform="translate(-553.054 -409.718)" fill="#9f9e9b"/>
              <path id="Path_1626" data-name="Path 1626" d="M577.292,418.218l-.591-.346c.085-.158.167-.316.25-.475.142-.28.283-.562.421-.848l.59.346c-.136.286-.278.566-.421.848C577.458,417.9,577.376,418.059,577.292,418.218Z" transform="translate(-557.842 -400.821)" fill="#9a9996"/>
              <path id="Path_1627" data-name="Path 1627" d="M582.47,407.319l-.59-.346c.226-.467.445-.941.647-1.424l.592.344c-.208.48-.427.958-.647,1.424Z" transform="translate(-562.352 -391.244)" fill="#969492"/>
              <path id="Path_1628" data-name="Path 1628" d="M587.511,395.6l-.591-.344q.329-.755.626-1.527l.59.344Q587.839,394.851,587.511,395.6Z" transform="translate(-566.74 -380.954)" fill="#91908d"/>
              <path id="Path_1629" data-name="Path 1629" d="M592.35,382.887l-.59-.344q.316-.822.6-1.663l.59.343C592.76,381.785,592.559,382.336,592.35,382.887Z" transform="translate(-570.953 -369.767)" fill="#8c8b89"/>
              <path id="Path_1630" data-name="Path 1630" d="M596.96,368.722l-.59-.343q.309-.922.568-1.859l.59.343Q597.27,367.8,596.96,368.722Z" transform="translate(-574.967 -357.266)" fill="#888784"/>
              <path id="Path_1631" data-name="Path 1631" d="M601.35,352.411l-.59-.343q.3-1.069.528-2.148l.59.346Q601.649,351.342,601.35,352.411Z" transform="translate(-578.788 -342.814)" fill="#838280"/>
              <path id="Path_1632" data-name="Path 1632" d="M605.43,331.984l-.59-.346q.289-1.359.47-2.718l.589.342c-.118.906-.274,1.812-.469,2.726Z" transform="translate(-582.34 -324.532)" fill="#7e7d7b"/>
              <path id="Path_1633" data-name="Path 1633" d="M609.039,302.827l-.589-.342a29.849,29.849,0,0,0,.254-3.869c0-.016,0-.035,0-.057l.591.342a.482.482,0,0,0,0,.061A29.093,29.093,0,0,1,609.039,302.827Z" transform="translate(-585.483 -298.102)" fill="#7a7977"/>
              <path id="Path_1634" data-name="Path 1634" d="M611.021,298.576l-.591-.342a.1.1,0,0,1,.008-.044l.593.343A.283.283,0,0,0,611.021,298.576Z" transform="translate(-587.207 -297.78)" fill="#7e7d7b"/>
              <path id="Path_1635" data-name="Path 1635" d="M611.083,298.315l-.593-.343.009-.032.59.344a.165.165,0,0,0,0,.031Z" transform="translate(-587.259 -297.562)" fill="#838280"/>
              <path id="Path_1636" data-name="Path 1636" d="M611.15,298.067l-.59-.344.009-.032.591.344Z" transform="translate(-587.32 -297.344)" fill="#888784"/>
              <path id="Path_1637" data-name="Path 1637" d="M611.221,297.851l-.591-.344.01-.027.591.343A.24.24,0,0,0,611.221,297.851Z" transform="translate(-587.381 -297.162)" fill="#8c8b89"/>
              <path id="Path_1638" data-name="Path 1638" d="M611.3,297.631l-.591-.343a.157.157,0,0,0,.01-.029l.593.346A.149.149,0,0,0,611.3,297.631Z" transform="translate(-587.451 -296.97)" fill="#91908d"/>
              <path id="Path_1639" data-name="Path 1639" d="M611.383,297.423l-.593-.346a.127.127,0,0,0,.013-.027l.59.348A.109.109,0,0,0,611.383,297.423Z" transform="translate(-587.52 -296.787)" fill="#969492"/>
              <path id="Path_1640" data-name="Path 1640" d="M611.48,297.25l-.59-.348.013-.022.59.34C611.493,297.231,611.484,297.24,611.48,297.25Z" transform="translate(-587.607 -296.639)" fill="#9a9996"/>
              <path id="Path_1641" data-name="Path 1641" d="M611.589,297.046l-.589-.34c0-.009.01-.017.014-.026l.591.342-.016.025Z" transform="translate(-587.703 -296.465)" fill="#9f9e9b"/>
              <path id="Path_1642" data-name="Path 1642" d="M611.691,296.856l-.591-.342a.1.1,0,0,1,.016-.025l.59.342A.221.221,0,0,0,611.691,296.856Z" transform="translate(-587.79 -296.3)" fill="#a4a2a0"/>
              <path id="Path_1643" data-name="Path 1643" d="M611.81,296.649l-.59-.342a.108.108,0,0,1,.017-.027l.59.342Z" transform="translate(-587.895 -296.117)" fill="#a8a7a4"/>
              <path id="Path_1644" data-name="Path 1644" d="M611.94,296.448l-.59-.342.019-.026.59.34A.13.13,0,0,1,611.94,296.448Z" transform="translate(-588.008 -295.943)" fill="#adaca9"/>
              <path id="Path_1645" data-name="Path 1645" d="M612.09,296.223l-.59-.343.025-.03.59.343C612.106,296.2,612.1,296.214,612.09,296.223Z" transform="translate(-588.138 -295.743)" fill="#b2b0ad"/>
              <path id="Path_1646" data-name="Path 1646" d="M612.28,295.967l-.59-.343a.193.193,0,0,1,.031-.034l.591.34Z" transform="translate(-588.304 -295.516)" fill="#b7b5b2"/>
              <path id="Path_1647" data-name="Path 1647" d="M612.521,295.434l-.591-.34a.37.37,0,0,1,.1-.074l.59.342A.717.717,0,0,0,612.521,295.434Z" transform="translate(-588.513 -295.02)" fill="#bbbab6"/>
            </g>
          </g>
        </g>
        <g id="Group_135" data-name="Group 135" transform="translate(0 16.642)">
          <g id="Group_134" data-name="Group 134" clip-path="url(#clip-path-18)">
            <g id="Group_133" data-name="Group 133" transform="translate(-0.001 0.007)">
              <path id="Path_1649" data-name="Path 1649" d="M393.4,439.756l-.59-.347a7.491,7.491,0,0,1-.866-.588c-2.662-2.089-4.316-6.13-4.331-11.633a.29.29,0,0,1,0-.058l.59.342v.058c.016,5.506,1.667,9.545,4.331,11.633a7.73,7.73,0,0,0,.866.589Z" transform="translate(-387.609 -426.637)" fill="#7a7977"/>
              <path id="Path_1650" data-name="Path 1650" d="M388.24,427.206l-.59-.342a.107.107,0,0,1,.006-.044l.591.343A.079.079,0,0,1,388.24,427.206Z" transform="translate(-387.645 -426.367)" fill="#7e7d7b"/>
              <path id="Path_1651" data-name="Path 1651" d="M388.292,426.937l-.591-.343a.143.143,0,0,1,.009-.034l.591.344A.128.128,0,0,0,388.292,426.937Z" transform="translate(-387.688 -426.141)" fill="#838280"/>
              <path id="Path_1652" data-name="Path 1652" d="M388.361,426.713l-.591-.344a.192.192,0,0,0,.008-.028l.591.344a.045.045,0,0,1-.008.032Z" transform="translate(-387.749 -425.949)" fill="#888784"/>
              <path id="Path_1653" data-name="Path 1653" d="M388.421,426.528l-.591-.34.012-.027.59.34a.227.227,0,0,1-.01.027Z" transform="translate(-387.801 -425.793)" fill="#8c8b89"/>
              <path id="Path_1654" data-name="Path 1654" d="M388.51,426.27l-.59-.34a.235.235,0,0,1,.012-.03l.59.342S388.515,426.26,388.51,426.27Z" transform="translate(-387.88 -425.566)" fill="#91908d"/>
              <path id="Path_1655" data-name="Path 1655" d="M388.591,426.059l-.591-.342c0-.009.008-.017.012-.027l.59.342a.248.248,0,0,1-.012.027Z" transform="translate(-387.949 -425.384)" fill="#969492"/>
              <path id="Path_1656" data-name="Path 1656" d="M388.69,425.866l-.59-.342a.109.109,0,0,1,.013-.025l.589.344A.176.176,0,0,1,388.69,425.866Z" transform="translate(-388.036 -425.218)" fill="#9a9996"/>
              <path id="Path_1657" data-name="Path 1657" d="M388.789,425.661l-.589-.344a.129.129,0,0,0,.013-.027l.591.346a.2.2,0,0,1-.016.026Z" transform="translate(-388.123 -425.035)" fill="#9f9e9b"/>
              <path id="Path_1658" data-name="Path 1658" d="M388.891,425.51l-.591-.346a.1.1,0,0,0,.017-.025l.59.346Z" transform="translate(-388.211 -424.905)" fill="#a4a2a0"/>
              <path id="Path_1659" data-name="Path 1659" d="M389.03,425.271l-.59-.346c.006-.008.01-.017.017-.026l.591.344A.109.109,0,0,0,389.03,425.271Z" transform="translate(-388.332 -424.696)" fill="#a8a7a4"/>
              <path id="Path_1660" data-name="Path 1660" d="M389.151,425.079l-.591-.344a.186.186,0,0,1,.021-.025l.59.342A.129.129,0,0,0,389.151,425.079Z" transform="translate(-388.437 -424.53)" fill="#adaca9"/>
              <path id="Path_1661" data-name="Path 1661" d="M389.31,424.869l-.59-.342a.1.1,0,0,1,.022-.027l.593.342A.234.234,0,0,0,389.31,424.869Z" transform="translate(-388.576 -424.348)" fill="#b2b0ad"/>
              <path id="Path_1662" data-name="Path 1662" d="M389.483,424.6l-.593-.342a.309.309,0,0,1,.032-.036l.591.343A.161.161,0,0,0,389.483,424.6Z" transform="translate(-388.724 -424.104)" fill="#b7b5b2"/>
              <path id="Path_1663" data-name="Path 1663" d="M389.731,423.91l-.591-.343a.518.518,0,0,1,.1-.076c.016,0,.03-.016.043-.021l.591.346a.318.318,0,0,0-.043.021A.462.462,0,0,0,389.731,423.91Z" transform="translate(-388.942 -423.451)" fill="#bbbab6"/>
              <path id="Path_1664" data-name="Path 1664" d="M390.8,423.737l-.591-.346.035-.012.591.343A.2.2,0,0,0,390.8,423.737Z" transform="translate(-389.873 -423.372)" fill="#b7b5b2"/>
              <path id="Path_1665" data-name="Path 1665" d="M391.071,423.693l-.591-.343h.027l.59.342h-.026Z" transform="translate(-390.108 -423.346)" fill="#b2b0ad"/>
              <path id="Path_1666" data-name="Path 1666" d="M391.28,423.7l-.59-.342a.064.064,0,0,1,.022,0l.591.343Z" transform="translate(-390.291 -423.349)" fill="#adaca9"/>
              <path id="Path_1667" data-name="Path 1667" d="M391.451,423.693l-.591-.343h.018l.59.343a.026.026,0,0,0-.019,0Z" transform="translate(-390.439 -423.346)" fill="#a8a7a4"/>
              <path id="Path_1668" data-name="Path 1668" d="M391.593,423.669l-.593-.346a.035.035,0,0,1,.017,0l.591.342Z" transform="translate(-390.561 -423.322)" fill="#a4a2a0"/>
              <path id="Path_1669" data-name="Path 1669" d="M391.741,423.7l-.591-.342h.017l.591.34a.038.038,0,0,1-.017,0Z" transform="translate(-390.692 -423.351)" fill="#9f9e9b"/>
              <path id="Path_1670" data-name="Path 1670" d="M391.871,423.71l-.591-.34h.017l.59.346-.016-.009Z" transform="translate(-390.805 -423.364)" fill="#9a9996"/>
              <path id="Path_1671" data-name="Path 1671" d="M392.03,423.756l-.59-.346a.017.017,0,0,1,.014.008l.591.346Z" transform="translate(-390.944 -423.399)" fill="#969492"/>
              <path id="Path_1672" data-name="Path 1672" d="M392.111,423.816l-.591-.346h0l.59.346Z" transform="translate(-391.014 -423.451)" fill="#91908d"/>
            </g>
          </g>
        </g>
        <path id="Path_1674" data-name="Path 1674" d="M421.309,297.393c.167-.093.3-.017.3.17a37.217,37.217,0,0,1-4.249,16.591c-2.643,5.155-6.33,9.535-10.407,11.887s-7.776,2.23-10.441.144-4.315-6.127-4.331-11.633a.647.647,0,0,1,.294-.511c.167-.1.3-.018.3.17.016,5.344,1.618,9.259,4.191,11.272s6.1,2.119,9.984-.129,7.4-6.42,9.953-11.39a35.988,35.988,0,0,0,4.112-16.066A.662.662,0,0,1,421.309,297.393Z" transform="translate(-391.59 -297.008)" fill="#b5b3b0"/>
      </g>
      <path id="Path_1675" data-name="Path 1675" d="M382.689,413.734c.8-.461,1.442-.092,1.446.818a3.172,3.172,0,0,1-1.435,2.486c-.8.466-1.435.091-1.439-.83A3.132,3.132,0,0,1,382.689,413.734Z" transform="translate(-331.914 -360.017)" fill="#e2ded9"/>
      <path id="Path_1676" data-name="Path 1676" d="M382.84,422.3c-.762.437-1.382.11-1.43-.727a2.48,2.48,0,0,0-.15.808c0,.92.647,1.283,1.439.83a3.163,3.163,0,0,0,1.435-2.486c0-.035-.008-.065-.01-.1A3.168,3.168,0,0,1,382.84,422.3Z" transform="translate(-331.915 -366.194)" fill="#c5c3c0"/>
      <path id="Path_1677" data-name="Path 1677" d="M394.084,424.566c-.176.409-.479.669-.672.585s-.21-.484-.034-.889.478-.67.672-.586S394.258,424.159,394.084,424.566Z" transform="translate(-342.358 -368.831)" fill="#fff"/>
      <path id="Path_1678" data-name="Path 1678" d="M604.38,284.221c.8-.461,1.442-.094,1.444.817a3.163,3.163,0,0,1-1.435,2.485c-.8.461-1.437.091-1.439-.826A3.137,3.137,0,0,1,604.38,284.221Z" transform="translate(-524.912 -247.266)" fill="#e2ded9"/>
      <path id="Path_1679" data-name="Path 1679" d="M604.563,292.77c-.762.443-1.38.113-1.424-.725a2.528,2.528,0,0,0-.149.809c0,.916.647,1.283,1.439.826a3.169,3.169,0,0,0,1.435-2.485c0-.036-.009-.062-.01-.094A3.144,3.144,0,0,1,604.563,292.77Z" transform="translate(-524.947 -253.428)" fill="#c5c3c0"/>
      <path id="Path_1680" data-name="Path 1680" d="M615.753,295.054c-.179.408-.479.672-.673.586s-.21-.484-.032-.889.478-.67.67-.586S615.927,294.648,615.753,295.054Z" transform="translate(-535.336 -256.083)" fill="#fff"/>
      <path id="Path_1681" data-name="Path 1681" d="M329.047,223.151l1.575,2.424.1.153.176.044,5.473,1.4-33.809,19.912-3.74-3.553-.114-.107-.155-.018-3.955-.426Zm.149-.621L293.13,243.285l5.371.58,3.993,3.794L337.569,227l-6.563-1.675-1.812-2.793Z" transform="translate(-255.191 -193.733)" fill="#b2b0aa"/>
    </g>
  </g>
</svg>
