<svg xmlns="http://www.w3.org/2000/svg" xmlns:xlink="http://www.w3.org/1999/xlink" width="92.667" height="122.852" viewBox="0 0 92.667 122.852">
  <defs>
    <linearGradient id="linear-gradient" y1="0.5" x2="1" y2="0.5" gradientUnits="objectBoundingBox">
      <stop offset="0" stop-color="#031b1e"/>
      <stop offset="0.02" stop-color="#071e21"/>
      <stop offset="0.2" stop-color="#28373a"/>
      <stop offset="0.38" stop-color="#414b4d"/>
      <stop offset="0.57" stop-color="#53595b"/>
      <stop offset="0.77" stop-color="#5e6163"/>
      <stop offset="1" stop-color="#616466"/>
    </linearGradient>
    <linearGradient id="linear-gradient-2" y1="0.5" x2="1" y2="0.5" gradientUnits="objectBoundingBox">
      <stop offset="0" stop-color="#fff"/>
      <stop offset="1"/>
    </linearGradient>
    <linearGradient id="linear-gradient-3" y1="0.5" x2="1" y2="0.5" gradientUnits="objectBoundingBox">
      <stop offset="0" stop-color="#1d2866"/>
      <stop offset="1" stop-color="#67afe5"/>
    </linearGradient>
    <linearGradient id="linear-gradient-4" y1="0.499" x2="1" y2="0.499" gradientUnits="objectBoundingBox">
      <stop offset="0" stop-color="#9da2a5"/>
      <stop offset="0.04" stop-color="#989c9f"/>
      <stop offset="0.26" stop-color="#808486"/>
      <stop offset="0.49" stop-color="#6f7274"/>
      <stop offset="0.73" stop-color="#646769"/>
      <stop offset="1" stop-color="#616466"/>
    </linearGradient>
    <clipPath id="clip-path">
      <path id="Path_1713" data-name="Path 1713" d="M568.407,150.847l-.607-.358a.222.222,0,0,1-.092-.2,26.268,26.268,0,0,0-1.551-9.521,7.938,7.938,0,0,0-3.048-4.053l.616.357a8.052,8.052,0,0,1,3.052,4.054,26.4,26.4,0,0,1,1.545,9.521A.229.229,0,0,0,568.407,150.847Z" transform="translate(-563.11 -136.72)" fill="none"/>
    </clipPath>
    <clipPath id="clip-path-2">
      <path id="Path_1724" data-name="Path 1724" d="M531.34,125.775l.611.354a4.261,4.261,0,0,0-.911-.4,4.591,4.591,0,0,0-3.706.582l-.615-.356a4.588,4.588,0,0,1,3.708-.584,4.244,4.244,0,0,1,.912.4Z" transform="translate(-526.72 -125.202)" fill="none"/>
    </clipPath>
    <clipPath id="clip-path-3">
      <path id="Path_1740" data-name="Path 1740" d="M446.456,156.906l-.617-.36a.211.211,0,0,1-.086-.19A44.447,44.447,0,0,1,447.28,144.8a31.452,31.452,0,0,1,4.056-9.321,12.006,12.006,0,0,1,3.7-3.691l.615.356a12.009,12.009,0,0,0-3.7,3.692,31.408,31.408,0,0,0-4.058,9.327,44.448,44.448,0,0,0-1.528,11.546A.213.213,0,0,0,446.456,156.906Z" transform="translate(-445.752 -131.79)" fill="none"/>
    </clipPath>
    <clipPath id="clip-path-4">
      <path id="Path_1753" data-name="Path 1753" d="M626.076,178.093l-.459-.264a.159.159,0,0,1-.068-.146,26.3,26.3,0,0,0-1.559-9.548,8.01,8.01,0,0,0-3.06-4.076l.45.266a7.98,7.98,0,0,1,3.065,4.072A26.189,26.189,0,0,1,626,177.945.16.16,0,0,0,626.076,178.093Z" transform="translate(-620.93 -164.06)" fill="none"/>
    </clipPath>
    <clipPath id="clip-path-5">
      <path id="Path_1764" data-name="Path 1764" d="M588.608,154.814l.459.264a4.28,4.28,0,0,0-.891-.391,4.545,4.545,0,0,0-3.657.574L584.06,155a4.5,4.5,0,0,1,3.657-.574A4.312,4.312,0,0,1,588.608,154.814Z" transform="translate(-584.06 -154.251)" fill="none"/>
    </clipPath>
    <clipPath id="clip-path-6">
      <path id="Path_1780" data-name="Path 1780" d="M504.324,185.615c-.15-.088-.3-.178-.459-.265a.16.16,0,0,1-.064-.148,44.145,44.145,0,0,1,1.528-11.518,31.177,31.177,0,0,1,4.026-9.265A11.845,11.845,0,0,1,513,160.78l.459.264a11.883,11.883,0,0,0-3.65,3.641,31.145,31.145,0,0,0-4.028,9.272,44.24,44.24,0,0,0-1.527,11.511A.159.159,0,0,0,504.324,185.615Z" transform="translate(-503.8 -160.78)" fill="none"/>
    </clipPath>
  </defs>
  <g id="Layer_2" data-name="Layer 2" transform="translate(0 -0.001)">
    <g id="Layer_1" data-name="Layer 1" transform="translate(0 0.001)">
      <path id="Path_1682" data-name="Path 1682" d="M204.7,725.238a1.42,1.42,0,0,0-.115-.164c-.018-.018-.033-.039-.053-.059a1.72,1.72,0,0,0-.267-.239c-2.031-1.51-4.8-1.117-7.288.036-9.09-4.391-28.4-10.5-28.791-14.4-1.969-.84-4.533-2.043-6.2-2.2-2.465-.229-4.88.123-6.835-.344-1.746-.418-5.648-3.222-6.484-3.832-1.156-2.817-4.086-3.61-7.524-1.626-4.431,2.56-8.014,8.767-8,13.861.007,2.577.933,4.375,2.417,5.194a.188.188,0,0,1-.007.024c0,.007,6.086,3.212,8.284,5.264s6.122,7.456,8.555,9.8c1.827,1.767,4.683,2.467,7.444,2.91.964.158,1.917.286,2.814.412,1.271.178,2.974.422,4.728.716a42.869,42.869,0,0,1,6.515,1.491v.041c0,.014.654.29,1.425.622a10.848,10.848,0,0,0,1.578.658,4.2,4.2,0,0,0,.918.309,1.929,1.929,0,0,0,.357-.163c.459-.1.673-.459.9-.905a1.976,1.976,0,0,0,.186-.634l.022.011a2.191,2.191,0,0,1-.063.435,2.98,2.98,0,0,0,.157-.385,5.6,5.6,0,0,0,2.7.51,7.876,7.876,0,0,0,2.61-.132.873.873,0,0,0,.489-.14c.085-.029.171-.052.253-.085-.025-.015-.048-.029-.075-.042a20.348,20.348,0,0,0,1.749-2.457c.2-.229.429-.459.66-.688,1.359-.093,2.6-.272,3.174-.344.99-.115,2.179-1.9,2.967-2.925,1.429-.162,2.753-.422,3.352-.526,1.126-.194,2.4-2.571,3.109-3.48a21.876,21.876,0,0,1,1.758-1.882,9.7,9.7,0,0,0,2.993-3.734A.97.97,0,0,0,204.7,725.238Z" transform="translate(-117.868 -620.868)" fill="#040710" opacity="0.2"/>
      <path id="Path_1683" data-name="Path 1683" d="M7.987,153.666,4.316,151.55l-2.768,1.581c-.153.087-.435.306-.435.306A3.162,3.162,0,0,0,0,155.8v2.612l3.765,2.039v-2.585a3.442,3.442,0,0,1,.957-2.218,3.189,3.189,0,0,1,.593-.452Z" transform="translate(0 -134.167)" fill="#d1e5e2"/>
      <path id="Path_1684" data-name="Path 1684" d="M0,289.864c0,3.844,4.541,4.916,6.894,4.2A3.068,3.068,0,0,1,3.765,291V213.419L0,211.38Z" transform="translate(0 -187.134)" fill="#a4b7bc"/>
      <path id="Path_1685" data-name="Path 1685" d="M37.58,24.5l3.676,2.116,28.8-16.451L66.4,8.04Z" transform="translate(-33.269 -7.118)" fill="#baced3"/>
      <path id="Path_1686" data-name="Path 1686" d="M298.663,3.605h0c0-1.669-5.068-4.923-9.266-3.029L288.79.92l3.658,2.132,1.95-1.116A2.861,2.861,0,0,1,298.663,3.605Z" transform="translate(-255.664 -0.001)" fill="#d1e5e2"/>
      <path id="Path_1687" data-name="Path 1687" d="M69.946,98.892,36.528,117.715a3.074,3.074,0,0,1-4.588-2.678V34.875a3.073,3.073,0,0,1,1.548-2.668l33.425-19.1a3.074,3.074,0,0,1,4.6,2.67V96.214A3.072,3.072,0,0,1,69.946,98.892Z" transform="translate(-28.276 -11.246)" fill="url(#linear-gradient)"/>
      <g id="Group_138" data-name="Group 138" transform="translate(5.227 3.657)" opacity="0.3">
        <g id="Group_137" data-name="Group 137">
          <path id="Path_1688" data-name="Path 1688" d="M48.7,132.9a3.152,3.152,0,0,1-3.133-3.141V52.353a3.148,3.148,0,0,1,1.577-2.722L77.491,32.3a3.134,3.134,0,0,1,4.686,2.722v77.655a3.13,3.13,0,0,1-1.6,2.73L50.241,132.494a3.1,3.1,0,0,1-1.538.4ZM79.043,32.564a2.464,2.464,0,0,0-1.216.323L47.489,50.224a2.455,2.455,0,0,0-1.234,2.129v77.405a2.448,2.448,0,0,0,3.65,2.136L80.248,114.8a2.456,2.456,0,0,0,1.243-2.135V35.018a2.454,2.454,0,0,0-2.448-2.454Z" transform="translate(-45.57 -31.884)" fill="url(#linear-gradient-2)"/>
        </g>
      </g>
      <path id="Path_1689" data-name="Path 1689" d="M96.05,151.616,63.91,170.184V104.033L96.05,85.64Z" transform="translate(-56.579 -75.817)" fill="url(#linear-gradient-3)"/>
      <path id="Path_1690" data-name="Path 1690" d="M198.386,125.871a1.089,1.089,0,0,1-.694,1.137.686.686,0,0,1-.962-.531,1.09,1.09,0,0,1,.694-1.137A.685.685,0,0,1,198.386,125.871Z" transform="translate(-174.158 -110.916)" fill="#070707"/>
      <path id="Path_1691" data-name="Path 1691" d="M6.331,290.052l-.841-.568V285.35l.841.506Z" transform="translate(-4.86 -252.619)" fill="#75aaa6"/>
      <path id="Path_1692" data-name="Path 1692" d="M13.931,288.678l-1.111.568v-4.189l1.111-.617Z" transform="translate(-11.349 -251.813)" fill="#616d6d"/>
      <path id="Path_1693" data-name="Path 1693" d="M7.442,280.412l-1.111.627-.841-.523,1.11-.626Z" transform="translate(-4.86 -247.785)" fill="#87c1bc"/>
      <path id="Path_1694" data-name="Path 1694" d="M6.331,361.562l-.841-.57V356.86l.841.5Z" transform="translate(-4.86 -315.926)" fill="#75aaa6"/>
      <path id="Path_1695" data-name="Path 1695" d="M13.931,360.177l-1.111.57v-4.19l1.111-.617Z" transform="translate(-11.349 -315.112)" fill="#616d6d"/>
      <path id="Path_1696" data-name="Path 1696" d="M7.442,351.912l-1.111.629-.841-.523,1.11-.627Z" transform="translate(-4.86 -311.084)" fill="#87c1bc"/>
      <path id="Path_1697" data-name="Path 1697" d="M252.259,25.695l-3.619,2.047V25.986l3.619-2.046Z" transform="translate(-220.12 -21.194)" fill="#616d6d"/>
      <path id="Path_1698" data-name="Path 1698" d="M241.42,39.673l.828.446V38.363l-.828-.443Z" transform="translate(-213.728 -33.571)" fill="#86bfbb"/>
      <path id="Path_1699" data-name="Path 1699" d="M241.42,22.117l.828.444,3.619-2.047-.826-.444Z" transform="translate(-213.728 -17.768)" fill="#b3e5e1"/>
      <path id="Path_1700" data-name="Path 1700" d="M64.324,254.8a51.441,51.441,0,0,1,.344-5.884l-.788-1.167V313.9l25.249-14.586A53.055,53.055,0,0,1,64.324,254.8Z" transform="translate(-56.553 -219.332)" fill="#fff" opacity="0.3"/>
      <g id="Group_140" data-name="Group 140" transform="translate(9.009 47.32)" opacity="0.5">
        <path id="Path_1701" data-name="Path 1701" d="M134.757,474.262c5.084-2.935,9.215-.574,9.236,5.266s-4.092,12.962-9.176,15.895-9.22.582-9.237-5.265S129.671,477.2,134.757,474.262Zm.053,19.094a16.263,16.263,0,0,0,7.386-12.785c-.014-4.7-3.343-6.6-7.432-4.236a16.28,16.28,0,0,0-7.385,12.791c.014,4.7,3.343,6.6,7.431,4.235Z" transform="translate(-120.184 -466.065)" fill="#7994b0"/>
        <path id="Path_1702" data-name="Path 1702" d="M176.4,534.062c2.106-1.214,3.816-.239,3.822,2.179a8.376,8.376,0,0,1-3.8,6.579c-2.1,1.216-3.815.237-3.824-2.179A8.373,8.373,0,0,1,176.4,534.062Z" transform="translate(-161.81 -519.661)" fill="#b4bdc5"/>
        <path id="Path_1703" data-name="Path 1703" d="M162.585,514.15c3.1-1.787,5.615-.351,5.627,3.212a12.3,12.3,0,0,1-5.592,9.677c-3.1,1.788-5.615.356-5.621-3.2A12.321,12.321,0,0,1,162.585,514.15Zm.029,10.825a8.379,8.379,0,0,0,3.8-6.58c0-2.418-1.721-3.393-3.822-2.179a8.39,8.39,0,0,0-3.8,6.579C158.793,525.213,160.51,526.188,162.614,524.975Z" transform="translate(-148 -501.814)" fill="#a0afbe"/>
        <path id="Path_1704" data-name="Path 1704" d="M148.654,494.211c4.089-2.362,7.415-.465,7.432,4.238a16.265,16.265,0,0,1-7.386,12.79c-4.09,2.362-7.418.459-7.431-4.235A16.3,16.3,0,0,1,148.654,494.211Zm.04,14.956a12.323,12.323,0,0,0,5.592-9.681c-.009-3.559-2.533-4.994-5.627-3.212a12.31,12.31,0,0,0-5.585,9.688C143.089,509.522,145.6,510.957,148.695,509.167Z" transform="translate(-134.074 -483.943)" fill="#8ca2b7"/>
        <g id="Group_139" data-name="Group 139">
          <path id="Path_1705" data-name="Path 1705" d="M120.85,454.355c6.079-3.509,11.02-.688,11.042,6.289s-4.891,15.494-10.969,19-11.023.688-11.043-6.294S114.775,457.866,120.85,454.355Zm.067,23.224c5.086-2.933,9.192-10.049,9.176-15.895s-4.152-8.2-9.236-5.266-9.192,10.055-9.176,15.9,4.151,8.2,9.237,5.265Z" transform="translate(-106.285 -448.222)" fill="#6586a8"/>
          <path id="Path_1706" data-name="Path 1706" d="M106.983,434.453c7.067-4.081,12.819-.8,12.847,7.322s-5.7,18.021-12.763,22.1-12.825.809-12.847-7.318S99.912,438.536,106.983,434.453Zm.076,27.363c6.079-3.509,10.99-12.018,10.969-19s-4.964-9.8-11.042-6.3-10.992,12.015-10.97,19,4.968,9.8,11.043,6.294Z" transform="translate(-92.421 -430.385)" fill="#5079a1"/>
          <path id="Path_1707" data-name="Path 1707" d="M93.1,414.539c8.065-4.657,14.621-.918,14.649,8.348s-6.491,20.557-14.556,25.21-14.623.918-14.649-8.348S85.029,419.19,93.1,414.539Zm.089,31.493c7.068-4.082,12.783-13.979,12.76-22.106S100.168,412.52,93.1,416.6s-12.788,13.983-12.766,22.107,5.777,11.4,12.847,7.318Z" transform="translate(-78.539 -412.535)" fill="#3c6b99"/>
        </g>
      </g>
      <path id="Path_1708" data-name="Path 1708" d="M198.811,757.608c-.9,0-1.459-.723-1.461-1.886a5.96,5.96,0,0,1,2.692-4.665,2.419,2.419,0,0,1,1.2-.367c.9,0,1.46.721,1.465,1.882a5.937,5.937,0,0,1-2.693,4.666A2.429,2.429,0,0,1,198.811,757.608Z" transform="translate(-174.713 -664.582)" fill="url(#linear-gradient-4)"/>
      <path id="Path_1709" data-name="Path 1709" d="M200.869,750.195v.1c.871,0,1.412.7,1.415,1.835a5.9,5.9,0,0,1-2.667,4.623,2.416,2.416,0,0,1-1.178.362c-.869,0-1.411-.7-1.412-1.835a5.908,5.908,0,0,1,2.667-4.624,2.385,2.385,0,0,1,1.175-.359v-.1Zm0,0a2.481,2.481,0,0,0-1.223.373,6,6,0,0,0-2.716,4.7c0,1.229.617,1.934,1.51,1.934a2.487,2.487,0,0,0,1.226-.375,5.977,5.977,0,0,0,2.716-4.709c0-1.224-.619-1.931-1.513-1.931Z" transform="translate(-174.341 -664.139)" fill="#999493"/>
      <path id="Path_1710" data-name="Path 1710" d="M199.63,518.645s16.889,19.969,31.586,24.254c2.582.752,11.426,7.154,17,5-4.413-2.409-3.337-6.068-5.993-9.774-1.023-1.428-1.986-2.913-2.885-4.435a32.432,32.432,0,0,1-4.174-5.151,34.771,34.771,0,0,1-5.484-14.857c-2.116-.9-4.875-2.2-6.669-2.359-2.653-.243-5.249.13-7.351-.376s-7.158-4.253-7.158-4.253Z" transform="translate(-176.731 -448.57)" fill="#e2a881"/>
      <path id="Path_1711" data-name="Path 1711" d="M301.448,559.54s1.9,12.758-10.9,6.974a34.133,34.133,0,0,1,5.577,2.709,10.744,10.744,0,0,1,2.925,2.841C301.86,567.56,302.857,563.211,301.448,559.54Z" transform="translate(-257.22 -495.358)" fill="#e8bba3"/>
      <g id="Group_150" data-name="Group 150" transform="translate(51.13 14.361)">
        <g id="Group_143" data-name="Group 143" transform="translate(13.462 1.321)">
          <g id="Group_142" data-name="Group 142" clip-path="url(#clip-path)">
            <g id="Group_141" data-name="Group 141">
              <path id="Path_1712" data-name="Path 1712" d="M568.407,150.847l-.607-.358a.222.222,0,0,1-.092-.2,26.268,26.268,0,0,0-1.551-9.521,7.938,7.938,0,0,0-3.048-4.053l.616.357a8.052,8.052,0,0,1,3.052,4.054,26.4,26.4,0,0,1,1.545,9.521.23.23,0,0,0,.089.2Z" transform="translate(-563.11 -136.72)" fill="#858381"/>
            </g>
          </g>
        </g>
        <g id="Group_146" data-name="Group 146" transform="translate(9.287)">
          <g id="Group_145" data-name="Group 145" clip-path="url(#clip-path-2)">
            <g id="Group_144" data-name="Group 144" transform="translate(-0.009 -0.002)">
              <path id="Path_1714" data-name="Path 1714" d="M527.255,129.242l-.615-.356a6.225,6.225,0,0,1,.76-.376l.616.358A5.83,5.83,0,0,0,527.255,129.242Z" transform="translate(-526.64 -128.128)" fill="#cccac6"/>
              <path id="Path_1715" data-name="Path 1715" d="M533.916,127.15l-.616-.358a4.557,4.557,0,0,1,.648-.223l.613.358a4.99,4.99,0,0,0-.645.223Z" transform="translate(-532.536 -126.411)" fill="#c7c5c1"/>
              <path id="Path_1716" data-name="Path 1716" d="M539.607,126.1l-.607-.358a4.082,4.082,0,0,1,.51-.107l.616.356a4.371,4.371,0,0,0-.514.109Z" transform="translate(-537.582 -125.587)" fill="#c2c0bc"/>
              <path id="Path_1717" data-name="Path 1717" d="M544.016,125.633l-.616-.356a4.064,4.064,0,0,1,.459-.047l.612.358a4.426,4.426,0,0,0-.459.045Z" transform="translate(-541.478 -125.224)" fill="#bdbab8"/>
              <path id="Path_1718" data-name="Path 1718" d="M548.012,125.545l-.612-.358a4.14,4.14,0,0,1,.431,0l.613.356a4.137,4.137,0,0,0-.431,0Z" transform="translate(-545.019 -125.181)" fill="#b8b5b3"/>
              <path id="Path_1719" data-name="Path 1719" d="M551.773,125.636l-.613-.356a3.423,3.423,0,0,1,.421.048l.613.358A3.841,3.841,0,0,0,551.773,125.636Z" transform="translate(-548.347 -125.269)" fill="#b3b0ae"/>
              <path id="Path_1720" data-name="Path 1720" d="M555.442,126.058l-.612-.358a4.076,4.076,0,0,1,.426.1l.618.358A3.6,3.6,0,0,0,555.442,126.058Z" transform="translate(-551.596 -125.64)" fill="#adaba9"/>
              <path id="Path_1721" data-name="Path 1721" d="M559.158,126.928l-.618-.358c.019.007.036.01.053.015.132.04.263.088.4.143l.614.358a3.823,3.823,0,0,0-.4-.143A.224.224,0,0,1,559.158,126.928Z" transform="translate(-554.881 -126.411)" fill="#a8a6a4"/>
              <path id="Path_1722" data-name="Path 1722" d="M563.074,128.352,562.46,128a4.868,4.868,0,0,1,.459.229l.615.357a4.266,4.266,0,0,0-.459-.229Z" transform="translate(-558.351 -127.677)" fill="#a3a19f"/>
              <path id="Path_1723" data-name="Path 1723" d="M567.085,130.247l-.615-.357a.577.577,0,0,1,.055.032l.611.354C567.12,130.266,567.1,130.256,567.085,130.247Z" transform="translate(-561.901 -129.35)" fill="#9e9c9a"/>
            </g>
          </g>
        </g>
        <g id="Group_149" data-name="Group 149" transform="translate(0 0.756)">
          <g id="Group_148" data-name="Group 148" clip-path="url(#clip-path-3)">
            <g id="Group_147" data-name="Group 147" transform="translate(0 0)">
              <path id="Path_1725" data-name="Path 1725" d="M446.456,302.661l-.617-.36a.211.211,0,0,1-.086-.19,43.4,43.4,0,0,1,.372-5.68l.611.356a43.261,43.261,0,0,0-.365,5.68.214.214,0,0,0,.091.195Z" transform="translate(-445.752 -277.545)" fill="#858381"/>
              <path id="Path_1726" data-name="Path 1726" d="M449.561,268.89l-.611-.356q.236-1.835.618-3.614l.614.357C449.928,266.457,449.723,267.665,449.561,268.89Z" transform="translate(-448.583 -249.649)" fill="#8a8886"/>
              <path id="Path_1727" data-name="Path 1727" d="M454.954,245.983l-.614-.357q.247-1.147.541-2.254c.023-.08.045-.162.067-.242l.614.358c-.018.08-.041.162-.065.242Q455.2,244.835,454.954,245.983Z" transform="translate(-453.355 -230.359)" fill="#8f8d8b"/>
              <path id="Path_1728" data-name="Path 1728" d="M460.264,228.282l-.614-.358q.282-1.011.6-1.974l.616.358C460.654,226.95,460.453,227.61,460.264,228.282Z" transform="translate(-458.056 -215.149)" fill="#949290"/>
              <path id="Path_1729" data-name="Path 1729" d="M465.506,214.17l-.616-.352q.275-.8.565-1.578l.617.357c-.2.514-.387,1.04-.567,1.579Z" transform="translate(-462.695 -203.012)" fill="#999795"/>
              <path id="Path_1730" data-name="Path 1730" d="M470.437,202.428l-.617-.357c.177-.448.351-.886.537-1.311l.616.356Q470.7,201.756,470.437,202.428Z" transform="translate(-467.059 -192.849)" fill="#9e9c9a"/>
              <path id="Path_1731" data-name="Path 1731" d="M475.116,192.546l-.616-.356q.248-.568.508-1.11l.613.359C475.451,191.8,475.277,192.169,475.116,192.546Z" transform="translate(-471.202 -184.279)" fill="#a3a19f"/>
              <path id="Path_1732" data-name="Path 1732" d="M479.543,184.011l-.613-.359c.158-.328.322-.65.489-.962l.615.357C479.865,183.359,479.7,183.681,479.543,184.011Z" transform="translate(-475.124 -176.852)" fill="#a8a6a4"/>
              <path id="Path_1733" data-name="Path 1733" d="M483.8,176.434l-.615-.357q.229-.439.473-.857l.616.359C484.117,175.855,483.958,176.142,483.8,176.434Z" transform="translate(-478.896 -170.238)" fill="#adaba9"/>
              <path id="Path_1734" data-name="Path 1734" d="M487.926,169.621l-.616-.359c.156-.263.311-.521.471-.772l.615.358C488.238,169.1,488.081,169.356,487.926,169.621Z" transform="translate(-482.543 -164.28)" fill="#b3b0ae"/>
              <path id="Path_1735" data-name="Path 1735" d="M492.035,163.377l-.615-.358c.115-.177.229-.344.344-.518l.133-.19.614.357-.131.19q-.172.256-.344.52Z" transform="translate(-486.182 -158.809)" fill="#b8b5b3"/>
              <path id="Path_1736" data-name="Path 1736" d="M496.2,157.479l-.614-.357c.163-.229.323-.459.494-.672l.616.357C496.529,157.024,496.364,157.248,496.2,157.479Z" transform="translate(-489.873 -153.621)" fill="#bdbab8"/>
              <path id="Path_1737" data-name="Path 1737" d="M500.516,151.672l-.616-.357c.179-.229.362-.459.544-.665l.616.358C500.878,151.219,500.694,151.441,500.516,151.672Z" transform="translate(-493.689 -148.487)" fill="#c2c0bc"/>
              <path id="Path_1738" data-name="Path 1738" d="M505.246,145.439l-.616-.358c.229-.255.45-.493.677-.721l.618.358C505.7,144.947,505.466,145.182,505.246,145.439Z" transform="translate(-497.876 -142.918)" fill="#c7c5c1"/>
              <path id="Path_1739" data-name="Path 1739" d="M511.158,133.59l-.618-.358a9.2,9.2,0,0,1,1.85-1.442l.615.356A9.083,9.083,0,0,0,511.158,133.59Z" transform="translate(-503.108 -131.79)" fill="#cccac6"/>
            </g>
          </g>
        </g>
        <path id="Path_1741" data-name="Path 1741" d="M460.38,129.07a4.587,4.587,0,0,1,3.706-.582,5.68,5.68,0,0,1,2.962,2.436c1.675,2.512,2.707,6.677,2.723,11.929a.681.681,0,0,1-.311.533.188.188,0,0,1-.307-.177,26.429,26.429,0,0,0-1.545-9.521c-.964-2.409-2.335-3.955-3.9-4.423a4.092,4.092,0,0,0-3.326.512,10.809,10.809,0,0,0-3.318,3.326,26.185,26.185,0,0,0-2.778,5.535,42.789,42.789,0,0,0-2.565,14.646.688.688,0,0,1-.306.529c-.169.1-.313.018-.313-.173a44.432,44.432,0,0,1,1.526-11.539,31.423,31.423,0,0,1,4.06-9.334A12,12,0,0,1,460.38,129.07Z" transform="translate(-450.487 -127.959)" fill="#c5c3c0"/>
      </g>
      <path id="Path_1742" data-name="Path 1742" d="M390.084,204.887,378.3,197.9l-3.937-2.333,31.717-18.309,1.669,2.018,5.52,1.453Z" transform="translate(-331.419 -156.927)" fill="#3f72bc"/>
      <path id="Path_1743" data-name="Path 1743" d="M374.388,618.526l-9.64-7.846-8.118-2.471L388.346,589.9l8.676,4.88Z" transform="translate(-315.723 -522.236)" fill="#ce8d0b"/>
      <path id="Path_1744" data-name="Path 1744" d="M375.605,394.709l-9.145-10.7-8.61.384,1.894-47.511,4.751.132,8.282,6.395Z" transform="translate(-316.803 -298.238)" fill="#24bae2"/>
      <path id="Path_1745" data-name="Path 1745" d="M366.46,384.007l-1.965-46.995-4.751-.132-1.894,47.511Z" transform="translate(-316.803 -298.238)" fill="#43d5ed"/>
      <path id="Path_1746" data-name="Path 1746" d="M665.42,194.85v16.861l5.52-15.407Z" transform="translate(-589.093 -172.5)" fill="#43d5ed"/>
      <path id="Path_1747" data-name="Path 1747" d="M652.539,179.278v13.371L650.87,177.26Z" transform="translate(-576.212 -156.927)" fill="#24bae2"/>
      <path id="Path_1748" data-name="Path 1748" d="M478.485,207.52l8.668,54.357-31.713,18.31-7.411-54.881Z" transform="translate(-396.639 -183.716)" fill="#53d5f4"/>
      <path id="Path_1749" data-name="Path 1749" d="M499.979,360.021c.632-.367,1.161-.067,1.164.664a2.566,2.566,0,0,1-1.162,2c-.637.367-1.161.073-1.161-.663A2.543,2.543,0,0,1,499.979,360.021Z" transform="translate(-441.603 -318.586)" fill="#9f6d09"/>
      <path id="Path_1750" data-name="Path 1750" d="M654.539,271.334c.638-.366,1.164-.066,1.164.663a2.6,2.6,0,0,1-1.154,2c-.646.373-1.167.076-1.169-.663A2.538,2.538,0,0,1,654.539,271.334Z" transform="translate(-578.434 -240.073)" fill="#9f6d09"/>
      <path id="Path_1751" data-name="Path 1751" d="M406.037,177.469l1.582,1.912.033.04.053.014,5.141,1.351-30.025,17.537-3.613-2.753-.042-.031h-.049l-4.183-.115Zm.04-.209L374.36,195.57l4.751.127,3.7,2.819,30.459-17.786-5.52-1.453Z" transform="translate(-331.419 -156.927)" fill="#f0fdff"/>
      <g id="Group_160" data-name="Group 160" transform="translate(57.789 17.693)">
        <g id="Group_153" data-name="Group 153" transform="translate(13.435 1.125)">
          <g id="Group_152" data-name="Group 152" clip-path="url(#clip-path-4)">
            <g id="Group_151" data-name="Group 151">
              <path id="Path_1752" data-name="Path 1752" d="M626.076,178.093l-.459-.264a.159.159,0,0,1-.068-.146,26.3,26.3,0,0,0-1.559-9.548,8.01,8.01,0,0,0-3.06-4.076l.45.266a7.98,7.98,0,0,1,3.065,4.072A26.189,26.189,0,0,1,626,177.945a.159.159,0,0,0,.07.148Z" transform="translate(-620.93 -164.06)" fill="#858381"/>
            </g>
          </g>
        </g>
        <g id="Group_156" data-name="Group 156" transform="translate(9.206)">
          <g id="Group_155" data-name="Group 155" clip-path="url(#clip-path-5)">
            <g id="Group_154" data-name="Group 154" transform="translate(-0.007 0.002)">
              <path id="Path_1754" data-name="Path 1754" d="M584.459,158.175l-.459-.264a6.149,6.149,0,0,1,.75-.372l.453.265a6.023,6.023,0,0,0-.748.37Z" transform="translate(-584 -157.164)" fill="#cccac6"/>
              <path id="Path_1755" data-name="Path 1755" d="M591.053,156.123l-.453-.265a5.2,5.2,0,0,1,.634-.218l.459.264a4.908,4.908,0,0,0-.636.219Z" transform="translate(-589.843 -155.482)" fill="#c7c5c1"/>
              <path id="Path_1756" data-name="Path 1756" d="M596.549,155.072l-.459-.264a4.747,4.747,0,0,1,.508-.108l.459.264A4.679,4.679,0,0,0,596.549,155.072Z" transform="translate(-594.703 -154.65)" fill="#c2c0bc"/>
              <path id="Path_1757" data-name="Path 1757" d="M600.979,154.627l-.459-.264a4.106,4.106,0,0,1,.459-.044l.459.264A4.072,4.072,0,0,0,600.979,154.627Z" transform="translate(-598.625 -154.314)" fill="#bdbab8"/>
              <path id="Path_1758" data-name="Path 1758" d="M604.959,154.534l-.459-.264a3.612,3.612,0,0,1,.431,0l.459.264a3.561,3.561,0,0,0-.428,0Z" transform="translate(-602.149 -154.264)" fill="#b8b5b3"/>
              <path id="Path_1759" data-name="Path 1759" d="M608.689,154.614l-.459-.264c.138.009.275.025.418.048l.459.265a4.04,4.04,0,0,0-.419-.049Z" transform="translate(-605.451 -154.34)" fill="#b3b0ae"/>
              <path id="Path_1760" data-name="Path 1760" d="M612.339,155.035l-.459-.265a4.06,4.06,0,0,1,.408.1l.459.263C612.613,155.092,612.479,155.06,612.339,155.035Z" transform="translate(-608.682 -154.712)" fill="#adaba9"/>
              <path id="Path_1761" data-name="Path 1761" d="M615.9,155.873l-.459-.263a.355.355,0,0,1,.053.015,3.555,3.555,0,0,1,.381.139l.459.263a3.532,3.532,0,0,0-.379-.137.421.421,0,0,0-.054-.017Z" transform="translate(-611.834 -155.456)" fill="#a8a6a4"/>
              <path id="Path_1762" data-name="Path 1762" d="M619.669,157.213l-.459-.263a4.436,4.436,0,0,1,.459.229l.459.264a3.771,3.771,0,0,0-.459-.229Z" transform="translate(-615.171 -156.642)" fill="#a3a19f"/>
              <path id="Path_1763" data-name="Path 1763" d="M623.669,159.164l-.459-.264a.4.4,0,0,1,.053.03l.459.264a.493.493,0,0,0-.054-.03Z" transform="translate(-618.712 -158.368)" fill="#9e9c9a"/>
            </g>
          </g>
        </g>
        <g id="Group_159" data-name="Group 159" transform="translate(0 0.749)">
          <g id="Group_158" data-name="Group 158" clip-path="url(#clip-path-6)">
            <g id="Group_157" data-name="Group 157" transform="translate(0 0)">
              <path id="Path_1765" data-name="Path 1765" d="M504.324,330.467l-.459-.265a.16.16,0,0,1-.064-.148,42.293,42.293,0,0,1,.366-5.654l.451.262a43.522,43.522,0,0,0-.361,5.657A.159.159,0,0,0,504.324,330.467Z" transform="translate(-503.8 -305.632)" fill="#858381"/>
              <path id="Path_1766" data-name="Path 1766" d="M507.451,296.881l-.451-.262c.158-1.22.365-2.424.615-3.6l.453.264C507.82,294.46,507.609,295.662,507.451,296.881Z" transform="translate(-506.633 -277.851)" fill="#8a8886"/>
              <path id="Path_1767" data-name="Path 1767" d="M512.813,274.029l-.453-.264c.165-.766.344-1.519.548-2.257.02-.08.041-.161.064-.237l.459.262c-.023.079-.042.159-.065.241q-.3,1.106-.548,2.256Z" transform="translate(-511.378 -258.596)" fill="#8f8d8b"/>
              <path id="Path_1768" data-name="Path 1768" d="M518.119,256.331l-.459-.262c.188-.673.384-1.328.6-1.969l.45.265q-.32.96-.6,1.966Z" transform="translate(-516.07 -243.396)" fill="#949290"/>
              <path id="Path_1769" data-name="Path 1769" d="M523.444,242.254l-.444-.265q.266-.8.562-1.569l.451.262q-.29.767-.563,1.573Z" transform="translate(-520.798 -231.285)" fill="#999795"/>
              <path id="Path_1770" data-name="Path 1770" d="M528.3,230.616l-.451-.262c.172-.445.344-.88.53-1.3l.459.264q-.279.634-.536,1.3Z" transform="translate(-525.091 -221.219)" fill="#9e9c9a"/>
              <path id="Path_1771" data-name="Path 1771" d="M532.909,220.815l-.459-.264c.163-.376.333-.743.5-1.1l.451.264c-.17.36-.338.725-.5,1.1Z" transform="translate(-529.164 -212.72)" fill="#a3a19f"/>
              <path id="Path_1772" data-name="Path 1772" d="M537.321,212.33l-.451-.264c.156-.326.319-.646.484-.957l.459.263q-.248.468-.487.958Z" transform="translate(-533.077 -205.337)" fill="#a8a6a4"/>
              <path id="Path_1773" data-name="Path 1773" d="M541.509,204.821l-.459-.263q.229-.436.471-.849l.452.266c-.158.273-.312.556-.469.845Z" transform="translate(-536.777 -198.786)" fill="#adaba9"/>
              <path id="Path_1774" data-name="Path 1774" d="M545.652,198.041l-.452-.266c.151-.262.309-.515.466-.765l.459.265c-.159.248-.314.5-.47.766Z" transform="translate(-540.451 -192.854)" fill="#b3b0ae"/>
              <path id="Path_1775" data-name="Path 1775" d="M549.7,191.887l-.459-.265c.115-.176.229-.351.344-.521.042-.061.086-.122.124-.181l.459.264c-.04.062-.079.122-.125.184-.115.169-.229.344-.344.52Z" transform="translate(-544.028 -187.463)" fill="#b8b5b3"/>
              <path id="Path_1776" data-name="Path 1776" d="M553.759,186.067l-.459-.264c.162-.229.328-.45.492-.663l.459.264Q554,185.724,553.759,186.067Z" transform="translate(-547.622 -182.346)" fill="#bdbab8"/>
              <path id="Path_1777" data-name="Path 1777" d="M558.049,180.322l-.459-.264c.175-.229.358-.45.543-.658l.45.263c-.18.21-.362.431-.538.66Z" transform="translate(-551.42 -177.264)" fill="#c2c0bc"/>
              <path id="Path_1778" data-name="Path 1778" d="M562.81,174.156l-.45-.263q.325-.379.663-.713l.459.263c-.229.224-.447.459-.668.713Z" transform="translate(-555.643 -171.758)" fill="#c7c5c1"/>
              <path id="Path_1779" data-name="Path 1779" d="M568.559,162.465l-.459-.263a9.071,9.071,0,0,1,1.826-1.422l.459.264a9,9,0,0,0-1.827,1.421Z" transform="translate(-560.724 -160.78)" fill="#cccac6"/>
            </g>
          </g>
        </g>
        <path id="Path_1781" data-name="Path 1781" d="M516.964,157.328a4.505,4.505,0,0,1,3.657-.574,5.707,5.707,0,0,1,2.945,2.421c1.664,2.5,2.691,6.653,2.7,11.891a.5.5,0,0,1-.223.393c-.128.073-.229.016-.229-.132a26.189,26.189,0,0,0-1.557-9.547c-.975-2.415-2.34-3.973-3.917-4.446a4.157,4.157,0,0,0-3.376.521,10.975,10.975,0,0,0-3.372,3.376,26.333,26.333,0,0,0-2.8,5.567,42.951,42.951,0,0,0-2.579,14.682.5.5,0,0,1-.229.395c-.125.072-.229.015-.229-.131a44.242,44.242,0,0,1,1.527-11.511,31.146,31.146,0,0,1,4.028-9.272A11.982,11.982,0,0,1,516.964,157.328Z" transform="translate(-507.306 -156.315)" fill="#c5c3c0"/>
      </g>
      <path id="Path_1782" data-name="Path 1782" d="M497.451,355.3c.828-.478,1.5-.1,1.5.851a3.294,3.294,0,0,1-1.491,2.585c-.828.479-1.491.094-1.491-.859A3.265,3.265,0,0,1,497.451,355.3Z" transform="translate(-439.08 -314.361)" fill="#e2ded9"/>
      <path id="Path_1783" data-name="Path 1783" d="M497.563,365.2c-.795.459-1.436.115-1.491-.759a2.7,2.7,0,0,0-.151.844c0,.953.673,1.336,1.491.859a3.3,3.3,0,0,0,1.491-2.585.922.922,0,0,0-.009-.1A3.265,3.265,0,0,1,497.563,365.2Z" transform="translate(-439.035 -321.769)" fill="#c5c3c0"/>
      <path id="Path_1784" data-name="Path 1784" d="M510.834,367.945c-.184.423-.5.7-.7.608s-.213-.5-.032-.925.5-.7.7-.607S511.014,367.522,510.834,367.945Z" transform="translate(-451.474 -324.908)" fill="#fff"/>
      <path id="Path_1785" data-name="Path 1785" d="M652.681,268.2c.827-.478,1.5-.1,1.5.85a3.3,3.3,0,0,1-1.491,2.585c-.824.479-1.491.093-1.491-.86A3.267,3.267,0,0,1,652.681,268.2Z" transform="translate(-576.504 -237.25)" fill="#e2ded9"/>
      <path id="Path_1786" data-name="Path 1786" d="M652.77,278.079c-.79.459-1.434.115-1.484-.756a2.534,2.534,0,0,0-.156.841c0,.953.671,1.336,1.491.86a3.294,3.294,0,0,0,1.491-2.585.877.877,0,0,0-.011-.1A3.224,3.224,0,0,1,652.77,278.079Z" transform="translate(-576.442 -244.642)" fill="#c5c3c0"/>
      <path id="Path_1787" data-name="Path 1787" d="M666.064,280.829c-.184.422-.5.7-.7.609s-.216-.5-.033-.928.5-.694.7-.607S666.247,280.407,666.064,280.829Z" transform="translate(-588.902 -247.783)" fill="#fff"/>
      <path id="Path_1788" data-name="Path 1788" d="M674.755,694.084c-3.957-2.939-10.528.811-13.131,4.023-.573.7-1.484,1.568-.344,3.614.658,1.182-3.43,3.425-2.638,3.868,1.935,1.075,7.129,0,8.562-.243,1.21-.21,2.577-2.766,3.343-3.743.98-1.255,2.434-2.4,3.386-3.7C674.923,696.538,676.233,695.179,674.755,694.084Z" transform="translate(-583.001 -613.528)" fill="#c9936f"/>
      <path id="Path_1789" data-name="Path 1789" d="M678.668,698.589c2.606-3.212,9.176-6.959,13.138-4.022a1.621,1.621,0,0,1,.573.7,1.373,1.373,0,0,0-.66-1.186c-3.957-2.939-10.528.811-13.131,4.023a2.554,2.554,0,0,0-.8,2.5A2.728,2.728,0,0,1,678.668,698.589Z" transform="translate(-599.966 -613.528)" fill="#e8bba3"/>
      <path id="Path_1790" data-name="Path 1790" d="M756.395,706.887s-2.7-.2-2.486-1.45,3.022-4.6,4-4.425c1.461.256,2.294.758,2.167,1.622S757.56,706.51,756.395,706.887Z" transform="translate(-667.421 -620.596)" fill="#f4d4c3"/>
      <path id="Path_1791" data-name="Path 1791" d="M616.14,728.522c-3.807-3.136-10.559.272-13.326,3.347-.6.671-1.559,1.491-.525,3.593.6,1.215-3.6,3.246-2.829,3.728,1.878,1.175,7.121.369,8.564.193,1.217-.146,2.713-2.63,3.531-3.567,1.042-1.2,2.553-2.271,3.567-3.523C616.185,730.983,617.555,729.69,616.14,728.522Z" transform="translate(-530.615 -643.854)" fill="#d69e78"/>
      <path id="Path_1792" data-name="Path 1792" d="M622.06,732.7c2.764-3.074,9.521-6.484,13.32-3.346a1.406,1.406,0,0,1,.609,1.129,1.373,1.373,0,0,0-.422-1.835c-3.8-3.137-10.553.275-13.32,3.347a2.91,2.91,0,0,0-.977,1.749A4.321,4.321,0,0,1,622.06,732.7Z" transform="translate(-550.007 -643.961)" fill="#e8bba3"/>
      <path id="Path_1793" data-name="Path 1793" d="M700.086,742.038s-2.684-.344-2.409-1.571,3.252-4.44,4.215-4.22c1.451.331,2.252.875,2.083,1.733S701.272,741.724,700.086,742.038Z" transform="translate(-617.632 -651.786)" fill="#f4d4c3"/>
      <path id="Path_1794" data-name="Path 1794" d="M568.275,769.231c-3.823-3.112-10.553.344-13.306,3.43-.6.677-1.551,1.5-.5,3.6.607,1.21.033,2.262.8,2.739,1.882,1.162,5.232.344,5.67.459,1.179.322,1.983-1.958,2.791-2.9,1.032-1.207,2.54-2.285,3.549-3.546C568.336,771.691,569.7,770.391,568.275,769.231Z" transform="translate(-490.451 -679.915)" fill="#e2a881"/>
      <path id="Path_1795" data-name="Path 1795" d="M555.784,773.307c2.746-3.1,9.471-6.538,13.3-3.432a1.354,1.354,0,0,1,.592,1.348,1.411,1.411,0,0,0-.351-1.991c-3.822-3.112-10.553.344-13.3,3.43a3.185,3.185,0,0,0-.932,1.515A5.229,5.229,0,0,1,555.784,773.307Z" transform="translate(-491.418 -679.915)" fill="#e8bba3"/>
      <path id="Path_1796" data-name="Path 1796" d="M633.186,782.652s-2.685-.321-2.419-1.557,3.223-4.459,4.191-4.244c1.451.324,2.255.86,2.1,1.721S634.371,782.331,633.186,782.652Z" transform="translate(-558.398 -687.733)" fill="#f4d4c3"/>
      <path id="Path_1797" data-name="Path 1797" d="M157,604.51s6.538,3.457,8.9,5.659,6.588,8.018,9.205,10.553,7.194,3.028,10.883,3.546,10.817,1.553,13.111,2.771c3.585,1.9,4.005,1.25,4.549.205,1.3-2.479-2.933-8.184-5.621-9.446s-9.173-2.91-9.89-4.417-2.717-7.489-11.848-12.54-14.033-5.032-14.033-5.032S157.319,602.509,157,604.51Z" transform="translate(-138.991 -527.468)" fill="#e2a881"/>
      <path id="Path_1798" data-name="Path 1798" d="M202.347,684.048a2.167,2.167,0,0,0,.229-.828c-.5.736-1.262.958-4.293-.651-2.294-1.219-9.415-2.262-13.109-2.779s-8.271-1.013-10.887-3.544-6.832-8.337-9.2-10.545-8.913-5.66-8.913-5.66a.3.3,0,0,1,.014-.04,5.279,5.279,0,0,0-.493,1.312s6.545,3.456,8.908,5.66,6.583,8.016,9.2,10.546,7.2,3.027,10.9,3.544,10.81,1.559,13.107,2.778C201.387,685.744,201.8,685.092,202.347,684.048Z" transform="translate(-137.84 -584.295)" fill="#d39d79"/>
      <path id="Path_1799" data-name="Path 1799" d="M284.04,633.541c1.007,3.051,8.468,3.482,11.126,4.818,7.316,3.7,6.086,7.915,6.086,7.915,1.017-2.086,0-5.253-5.681-9.118-2.457-1.668-9.831-3.137-10.251-5.105-.515-2.409-5.944-9.2-8.595-11.169-5.579-4.129-9.646-3.26-9.646-3.26S279.168,618.777,284.04,633.541Z" transform="translate(-236.445 -546.709)" fill="#e8bba3"/>
      <path id="Path_1800" data-name="Path 1800" d="M514.868,841.115s4,1.776,4.214,1.708a1.676,1.676,0,0,0,.688-2.926c-.089-.075-3.643-2.114-3.971-1.854A3.363,3.363,0,0,0,514.868,841.115Z" transform="translate(-455.782 -741.895)" fill="#f4d4c3"/>
      <path id="Path_1801" data-name="Path 1801" d="M515.149,485.695a8.158,8.158,0,0,1-3.381,3.5q-2.329,1.343-3.393.407c-.711-.625-1.064-2.046-1.075-4.262l-.011-5.414a12.222,12.222,0,0,1,1-5.434,8.3,8.3,0,0,1,3.424-3.455q2.409-1.391,3.431-.5t1.032,4.254l.023,5.413A12.431,12.431,0,0,1,515.149,485.695Zm-1.929-2.774-.017-7.439a3.219,3.219,0,0,0-.309-1.736c-.194-.251-.592-.213-1.169.115a2.579,2.579,0,0,0-1.169,1.228,5.584,5.584,0,0,0-.305,2.091l.023,7.436a3.278,3.278,0,0,0,.328,1.8c.213.274.6.252,1.147-.067a2.58,2.58,0,0,0,1.147-1.262,5.846,5.846,0,0,0,.313-2.173Z" transform="translate(-449.1 -416.259)" fill="#ffa423"/>
      <path id="Path_1802" data-name="Path 1802" d="M577.732,410.061l2.681-1.551-8.819,31.762-2.8,1.62Z" transform="translate(-503.547 -361.652)" fill="#ffa423"/>
      <path id="Path_1803" data-name="Path 1803" d="M661.422,465.444q1.032.88,1.04,4.25l.018,5.414a12.464,12.464,0,0,1-1.045,5.486,8.2,8.2,0,0,1-3.394,3.515c-1.555.9-2.685,1.032-3.4.406s-1.063-2.046-1.073-4.262l-.01-5.414a12.307,12.307,0,0,1,1-5.434,8.253,8.253,0,0,1,3.424-3.456C659.593,465.021,660.736,464.861,661.422,465.444Zm-1.912,12.379-.023-7.441a3.025,3.025,0,0,0-.317-1.733c-.21-.242-.6-.21-1.171.122a2.621,2.621,0,0,0-1.168,1.23,5.566,5.566,0,0,0-.307,2.091l.022,7.442a3.311,3.311,0,0,0,.327,1.8c.212.28.6.247,1.161-.076a2.563,2.563,0,0,0,1.156-1.274,5.782,5.782,0,0,0,.32-2.162Z" transform="translate(-578.592 -411.753)" fill="#ffa423"/>
      <path id="Path_1804" data-name="Path 1804" d="M141.661,483.456c4.775-2.753,8.656-.545,8.669,4.932s-3.835,12.159-8.61,14.912-8.646.541-8.661-4.945S136.9,486.209,141.661,483.456Z" transform="translate(-117.797 -426.953)" fill="#e2a881"/>
      <path id="Path_1805" data-name="Path 1805" d="M121.628,260.487a2.237,2.237,0,0,1,.381,1.534l.013,3.9a4.982,4.982,0,0,1-.385,2.091,2.934,2.934,0,0,1-1.24,1.332c-.574.328-.983.362-1.253.1a2.335,2.335,0,0,1-.406-1.631l-.008-3.9a3.489,3.489,0,0,1,1.655-3.308C120.962,260.277,121.378,260.238,121.628,260.487Zm-.74,6.1-.017-3.971a2.273,2.273,0,0,0-.1-.827c-.068-.15-.193-.165-.387-.054a.872.872,0,0,0-.4.512,3.038,3.038,0,0,0-.115.945l.011,3.978a3.041,3.041,0,0,0,.1.986c.067.157.2.182.408.063a.85.85,0,0,0,.4-.535,4.65,4.65,0,0,0,.1-1.1Z" transform="translate(-105.111 -230.466)" fill="#ffa423"/>
      <path id="Path_1806" data-name="Path 1806" d="M159.612,233.29l.026,8.527-.8.463-1.629-4.363.069,2.2.009,3.053-1.04.6-.024-8.525.884-.51,1.589,4.206-.089-2.278-.007-2.791Z" transform="translate(-138.301 -206.531)" fill="#ffa423"/>
      <path id="Path_1807" data-name="Path 1807" d="M196.63,222.01l.02,7.425,1.433-.825v1.1l-2.56,1.479-.023-8.526Z" transform="translate(-173.075 -196.544)" fill="#ffa423"/>
      <path id="Path_1808" data-name="Path 1808" d="M224.969,205.66l.024,8.525-1.129.652-.024-8.525Z" transform="translate(-198.164 -182.07)" fill="#ffa423"/>
      <path id="Path_1809" data-name="Path 1809" d="M247.135,182.76l.025,8.527-.8.46-1.628-4.363.07,2.206.006,3.053-1.042.6-.025-8.525.888-.514,1.588,4.209-.089-2.278-.007-2.791Z" transform="translate(-215.782 -161.797)" fill="#ffa423"/>
      <path id="Path_1810" data-name="Path 1810" d="M285.527,164.64l0,1.118-1.354.781.007,2.484,1.288-.743,0,1.092-1.289.743.006,2.713,1.407-.812,0,1.12-2.536,1.466-.026-8.527Z" transform="translate(-250.574 -145.755)" fill="#ffa423"/>
      <path id="Path_1811" data-name="Path 1811" d="M135.385,356.439c.574-.332.966-.358,1.169-.076a2.868,2.868,0,0,1,.309,1.573v.527l-1.04.6v-.613a2.451,2.451,0,0,0-.1-.835c-.062-.147-.185-.164-.359-.062a.9.9,0,0,0-.379.423,1.768,1.768,0,0,0-.115.679,1.071,1.071,0,0,0,.115.573,1.431,1.431,0,0,0,.429.377l.611.407a2.02,2.02,0,0,1,.7.758,2.461,2.461,0,0,1,.24,1.147,4.861,4.861,0,0,1-.344,1.971,2.79,2.79,0,0,1-1.222,1.278c-.586.337-.989.358-1.22.065a2.819,2.819,0,0,1-.344-1.66v-.757l1.073-.618v.856a2.7,2.7,0,0,0,.109.942c.069.155.2.169.4.056a.8.8,0,0,0,.382-.459,2.842,2.842,0,0,0,.1-.834,1.746,1.746,0,0,0-.173-.837,1.491,1.491,0,0,0-.536-.53l-.554-.328a1.721,1.721,0,0,1-.6-.613,2.066,2.066,0,0,1-.213-1.022,4.1,4.1,0,0,1,.344-1.772A2.866,2.866,0,0,1,135.385,356.439Z" transform="translate(-118.47 -315.315)" fill="#ffa423"/>
      <path id="Path_1812" data-name="Path 1812" d="M166.919,335.57l0,1.128-.833.481.021,7.4-1.13.65-.022-7.4-.865.5,0-1.126Z" transform="translate(-145.268 -297.078)" fill="#ffa423"/>
      <path id="Path_1813" data-name="Path 1813" d="M196.363,321.323a2.247,2.247,0,0,1,.383,1.535l.01,3.9a4.893,4.893,0,0,1-.383,2.091,2.912,2.912,0,0,1-1.237,1.327q-.853.494-1.253.107a2.359,2.359,0,0,1-.406-1.632l-.008-3.9a3.492,3.492,0,0,1,1.657-3.309C195.7,321.11,196.11,321.073,196.363,321.323Zm-.74,6.1-.01-3.972a2.371,2.371,0,0,0-.1-.826c-.063-.149-.2-.163-.391-.05a.882.882,0,0,0-.4.508,3.087,3.087,0,0,0-.115.949l.011,3.975a3.033,3.033,0,0,0,.1.99c.068.158.2.179.407.062a.832.832,0,0,0,.4-.536A4.388,4.388,0,0,0,195.623,327.423Z" transform="translate(-171.278 -284.321)" fill="#ffa423"/>
      <path id="Path_1814" data-name="Path 1814" d="M234.135,305.77a12.53,12.53,0,0,0,.053,1.735l-1.134.653c-.026-.048-.042-1.058-.049-3.034a1.2,1.2,0,0,0-.12-.688c-.079-.087-.239-.051-.481.079l-.362.193.013,4.023-1.129.652-.024-8.526,1.871-1.078a1.1,1.1,0,0,1,.867-.229.651.651,0,0,1,.379.531,5.871,5.871,0,0,1,.1,1.2,4.633,4.633,0,0,1-.143,1.274,1.863,1.863,0,0,1-.524.855c.256-.1.434,0,.535.286A8.309,8.309,0,0,1,234.135,305.77ZM233,301.829v-.055a2.028,2.028,0,0,0-.1-.849c-.07-.1-.229-.083-.473.059l-.382.221v2.5l.453-.259a.91.91,0,0,0,.319-.3,1.261,1.261,0,0,0,.141-.466,6.659,6.659,0,0,0,.04-.852Z" transform="translate(-204.415 -265.165)" fill="#ffa423"/>
      <path id="Path_1815" data-name="Path 1815" d="M270.537,277.27l0,1.118-1.36.785.01,2.483,1.289-.746,0,1.091-1.292.746.009,2.714,1.407-.814,0,1.12-2.536,1.465-.024-8.526Z" transform="translate(-237.303 -245.466)" fill="#ffa423"/>
    </g>
  </g>
</svg>
