<svg xmlns="http://www.w3.org/2000/svg" xmlns:xlink="http://www.w3.org/1999/xlink" width="311.034" height="211" viewBox="0 0 311.034 211">
  <defs>
    <clipPath id="clip-path">
      <path id="SVGID" d="M35.248,35.009c-6.005,4.856-24.9,4.856-30.91,0s-5.465-25.446,0-30.91,25.44-5.465,30.91,0S41.253,30.153,35.248,35.009Z" transform="translate(-0.033 -0.001)" fill="none"/>
    </clipPath>
  </defs>
  <g id="Group_3179" data-name="Group 3179" transform="translate(-150 -296.245)">
    <g id="Group_3163" data-name="Group 3163" transform="translate(150 315.57)">
      <path id="Path_1957" data-name="Path 1957" d="M619.589,292.248h-216.5a3.353,3.353,0,0,1-3.35-3.349V169.782a3.353,3.353,0,0,1,3.35-3.35h216.5a3.353,3.353,0,0,1,3.35,3.35V288.9A3.353,3.353,0,0,1,619.589,292.248Z" transform="translate(-311.904 -166.432)" fill="#e6e6e6"/>
      <path id="Path_1958" data-name="Path 1958" d="M623.966,296.627H416.6a3.353,3.353,0,0,1-3.35-3.35V183.3a3.353,3.353,0,0,1,3.35-3.35H623.967a3.353,3.353,0,0,1,3.35,3.35V293.278a3.353,3.353,0,0,1-3.351,3.35Z" transform="translate(-320.851 -175.379)" fill="#fff"/>
      <path id="Path_1959" data-name="Path 1959" d="M515.248,294.78H476.236a1.628,1.628,0,0,1-1.625-1.626v-40.63a1.627,1.627,0,0,1,1.625-1.626h39.013a1.627,1.627,0,0,1,1.626,1.626v40.63A1.627,1.627,0,0,1,515.248,294.78Zm-39.013-43.231a.976.976,0,0,0-.975.975v40.63a.976.976,0,0,0,.975.975h39.013a.976.976,0,0,0,.975-.975v-40.63a.976.976,0,0,0-.975-.975Z" transform="translate(-361.472 -222.352)" fill="#3f3d56"/>
      <path id="Path_1960" data-name="Path 1960" d="M708.056,294.78H669.044a1.627,1.627,0,0,1-1.626-1.626v-40.63a1.627,1.627,0,0,1,1.626-1.626h39.012a1.627,1.627,0,0,1,1.625,1.626v40.63A1.627,1.627,0,0,1,708.056,294.78Zm-39.012-43.231a.976.976,0,0,0-.975.975v40.63a.976.976,0,0,0,.975.975h39.012a.976.976,0,0,0,.975-.975v-40.63a.976.976,0,0,0-.975-.975Z" transform="translate(-489.116 -222.352)" fill="#3f3d56"/>
      <path id="Path_1961" data-name="Path 1961" d="M900.863,294.78H861.851a1.627,1.627,0,0,1-1.626-1.626v-40.63a1.627,1.627,0,0,1,1.625-1.626h39.012a1.627,1.627,0,0,1,1.626,1.626v40.63A1.627,1.627,0,0,1,900.863,294.78Zm-39.012-43.231a.976.976,0,0,0-.975.975v40.63a.976.976,0,0,0,.975.975h39.012a.976.976,0,0,0,.975-.975v-40.63a.976.976,0,0,0-.975-.975Z" transform="translate(-616.76 -222.352)" fill="#3f3d56"/>
      <path id="Path_1962" data-name="Path 1962" d="M493.287,449.911a1.1,1.1,0,1,0,0-2.207h-9.9a1.1,1.1,0,0,0,0,2.207Z" transform="translate(-366.55 -352.642)" fill="#e6e6e6"/>
      <path id="Path_1963" data-name="Path 1963" d="M518.256,430.673a1.1,1.1,0,1,0,0-2.207H483.385a1.1,1.1,0,1,0,0,2.207Z" transform="translate(-366.55 -339.906)" fill="#e6e6e6"/>
      <path id="Path_1964" data-name="Path 1964" d="M686.094,449.911a1.1,1.1,0,1,0,0-2.207h-9.9a1.1,1.1,0,0,0,0,2.207Z" transform="translate(-494.194 -352.642)" fill="#e6e6e6"/>
      <path id="Path_1965" data-name="Path 1965" d="M711.064,430.673a1.1,1.1,0,0,0,0-2.207H676.192a1.1,1.1,0,0,0,0,2.207Z" transform="translate(-494.194 -339.906)" fill="#e6e6e6"/>
      <path id="Path_1966" data-name="Path 1966" d="M878.9,449.911a1.1,1.1,0,1,0,0-2.207H869a1.1,1.1,0,1,0,0,2.207Z" transform="translate(-621.837 -352.642)" fill="#e6e6e6"/>
      <path id="Path_1967" data-name="Path 1967" d="M903.867,430.673a1.1,1.1,0,0,0,0-2.207H869a1.1,1.1,0,1,0,0,2.207Z" transform="translate(-621.834 -339.906)" fill="#e6e6e6"/>
      <path id="Path_1968" data-name="Path 1968" d="M518.256,411.752a1.1,1.1,0,0,0,0-2.207H483.385a1.1,1.1,0,0,0,0,2.207Z" transform="translate(-366.55 -327.38)" fill="#ffa423"/>
      <path id="Path_1969" data-name="Path 1969" d="M711.064,411.752a1.1,1.1,0,0,0,0-2.207H676.192a1.1,1.1,0,0,0,0,2.207Z" transform="translate(-494.194 -327.38)" fill="#ffa423"/>
      <path id="Path_1970" data-name="Path 1970" d="M903.87,411.752a1.1,1.1,0,1,0,0-2.207H869a1.1,1.1,0,1,0,0,2.207Z" transform="translate(-621.837 -327.38)" fill="#ffa423"/>
      <path id="Path_1971" data-name="Path 1971" d="M524.237,353.115a1.1,1.1,0,0,0,0-2.207H501.85a1.1,1.1,0,0,0,0,2.207h22.391Z" transform="translate(-378.773 -288.56)" fill="#e6e6e6"/>
      <path id="Path_1972" data-name="Path 1972" d="M524.237,333.875a1.1,1.1,0,0,0,0-2.207H501.85a1.1,1.1,0,1,0,0,2.207h22.391Z" transform="translate(-378.773 -275.823)" fill="#e6e6e6"/>
      <circle id="Ellipse_26" data-name="Ellipse 26" cx="7.004" cy="7.004" r="7.004" transform="translate(127.267 36.421)" fill="#106"/>
      <path id="Path_1973" data-name="Path 1973" d="M717.049,353.115a1.1,1.1,0,0,0,0-2.207H694.662a1.1,1.1,0,1,0,0,2.207Z" transform="translate(-506.422 -288.56)" fill="#e6e6e6"/>
      <path id="Path_1974" data-name="Path 1974" d="M717.049,333.875a1.1,1.1,0,0,0,0-2.207H694.662a1.1,1.1,0,1,0,0,2.207Z" transform="translate(-506.422 -275.823)" fill="#e6e6e6"/>
      <circle id="Ellipse_27" data-name="Ellipse 27" cx="7.004" cy="7.004" r="7.004" transform="translate(192.43 36.421)" fill="#106"/>
      <path id="Path_1975" data-name="Path 1975" d="M909.856,353.115a1.1,1.1,0,0,0,0-2.207H887.469a1.1,1.1,0,0,0,0,2.207Z" transform="translate(-634.066 -288.56)" fill="#e6e6e6"/>
      <path id="Path_1976" data-name="Path 1976" d="M909.856,333.876a1.1,1.1,0,1,0,0-2.207H887.469a1.1,1.1,0,0,0,0,2.207Z" transform="translate(-634.066 -275.824)" fill="#e6e6e6"/>
      <circle id="Ellipse_28" data-name="Ellipse 28" cx="7.004" cy="7.004" r="7.004" transform="translate(257.593 36.421)" fill="#106"/>
      <path id="Path_1977" data-name="Path 1977" d="M69.4,522.993h4.144l1.971-15.982H69.4Z" transform="translate(-45.944 -335.656)" fill="#ffb6b6"/>
      <path id="Path_1978" data-name="Path 1978" d="M206.124,716.728h8.16a5.2,5.2,0,0,1,5.2,5.2v.169h-13.36Z" transform="translate(-183.726 -530.744)" fill="#2f2e41"/>
      <path id="Path_1979" data-name="Path 1979" d="M111.4,522.993h4.144l1.971-15.982H111.4Z" transform="translate(-73.749 -335.656)" fill="#ffb6b6"/>
      <path id="Path_1980" data-name="Path 1980" d="M248.124,716.728h8.16a5.2,5.2,0,0,1,5.2,5.2v.169h-13.36Z" transform="translate(-211.531 -530.744)" fill="#2f2e41"/>
      <path id="Path_1981" data-name="Path 1981" d="M124.919,348.3,114.8,410.816l-6.759-.338.168-57.406Z" transform="translate(-71.524 -230.583)" fill="#2f2e41"/>
      <path id="Path_1982" data-name="Path 1982" d="M206.409,458.212l24.559.341,2.729,18.76-16.714,7.845-7.265,52.984L203.3,537.8,200.951,472.2Z" transform="translate(-180.301 -359.599)" fill="#2f2e41"/>
      <circle id="Ellipse_29" data-name="Ellipse 29" cx="7.504" cy="7.504" r="7.504" transform="translate(33.27 35.169)" fill="#ffb9b9"/>
      <path id="Path_1983" data-name="Path 1983" d="M98.768,159.3l4.333,5.561-2.047,42.637-16.031-.341-2.729-37.179,3.411-9.551,1.234-2.14Z" transform="translate(-54.481 -104.788)" fill="#e4e4e4"/>
      <path id="Path_1984" data-name="Path 1984" d="M292.792,361.534l3.752,14.326-3.752,14.326,6.14,8.186,5.458-25.923s-4.093-21.148-4.434-23.536-1.023-2.729-1.023-2.729l-2.729.341Z" transform="translate(-241.103 -285.434)" fill="#2f2e41"/>
      <path id="Path_1985" data-name="Path 1985" d="M50.153,200.56l-2.388,4.435-.682,7.5,1.364,8.527-4.775,7.845L38.9,207.382l5.116-27.629H46.06Z" transform="translate(-25.751 -119.002)" fill="#2f2e41"/>
      <path id="Path_1986" data-name="Path 1986" d="M235.939,271.859l-.178,3.034a34.337,34.337,0,0,1-2.542-10.094c-.341-5.116,5.457-6.14,8.868-6.481s9.209,2.047,9.209,4.775-6.14,2.047-8.527,1.364-3.411,5.116-3.411,5.116l-1.364.341Z" transform="translate(-201.654 -227.242)" fill="#2f2e41"/>
      <path id="Path_1987" data-name="Path 1987" d="M225.378,351.945l-1.364,12.962,2.729,7.845,1.705,7.5s0,7.163-6.822,7.5-26.605-.341-26.605-.341-2.729-.341-5.116-5.8,4.775-10.574,4.775-10.574l2.047-7.163-.682-8.868-4.775-23.194,14.155-7.334,3.582,34.962,7.675-33.939,2.558,1.876,10.915,4.434Z" transform="translate(-172.665 -271.069)" fill="#2f2e41"/>
      <path id="Path_1988" data-name="Path 1988" d="M87.108,565.742H0v-.712H87.237Z" transform="translate(0 -374.067)" fill="#3f3d56"/>
      <path id="Path_1903" data-name="Path 1903" d="M308.29,67.076V47.78h4l4.268,11.32V47.78h3.728v19.3H316.5l-4.484-11.533V67.076Z" transform="translate(-57.501 65.515)" fill="#106"/>
      <path id="Path_1904" data-name="Path 1904" d="M410,59.58h3.647a4.93,4.93,0,0,0,.486,2.336,1.537,1.537,0,0,0,1.406.689,1.778,1.778,0,0,0,1.5-.581,3.265,3.265,0,0,0,.445-1.959A2.278,2.278,0,0,0,417,58.418a2.061,2.061,0,0,0-.594-.433q-.3-.136-1.81-.621a6.315,6.315,0,0,1-3.426-2.216,5.952,5.952,0,0,1-.837-3.377q0-5.78,5.156-5.781,3.377,0,4.673,2.486a8.209,8.209,0,0,1,.649,3.431h-3.643a6.045,6.045,0,0,0-.445-2.148,1.146,1.146,0,0,0-1.095-.554q-1.486,0-1.486,2.4a2.241,2.241,0,0,0,.514,1.581A4.638,4.638,0,0,0,416.6,54.2q1.433.486,2.027.757a5.408,5.408,0,0,1,1.134.7q1.539,1.221,1.54,4.241,0,5.917-5.7,5.916-3.621,0-4.943-2.647A8.633,8.633,0,0,1,410,59.58Z" transform="translate(-145.412 67.062)" fill="#106"/>
      <path id="Path_1905" data-name="Path 1905" d="M508.2,67.076V47.78h4l4.268,11.32V47.78H520.2v19.3h-3.783l-4.484-11.533V67.076Z" transform="translate(-230.288 65.515)" fill="#106"/>
      <path id="Path_1906" data-name="Path 1906" d="M610,59.58h3.647a4.929,4.929,0,0,0,.486,2.336,1.537,1.537,0,0,0,1.406.689,1.776,1.776,0,0,0,1.5-.581,3.278,3.278,0,0,0,.445-1.959A2.279,2.279,0,0,0,617,58.418a2.061,2.061,0,0,0-.594-.433q-.3-.136-1.81-.621a6.269,6.269,0,0,1-3.431-2.216,5.953,5.953,0,0,1-.837-3.377q0-5.78,5.156-5.781,3.377,0,4.674,2.486a8.256,8.256,0,0,1,.647,3.431h-3.65a6.047,6.047,0,0,0-.445-2.148,1.146,1.146,0,0,0-1.095-.554q-1.492,0-1.492,2.4a2.241,2.241,0,0,0,.514,1.581,4.638,4.638,0,0,0,1.944,1.012q1.433.486,2.027.757a5.41,5.41,0,0,1,1.134.7q1.54,1.221,1.54,4.241,0,5.917-5.7,5.916-3.62,0-4.944-2.647A8.7,8.7,0,0,1,610,59.58Z" transform="translate(-318.276 67.062)" fill="#106"/>
    </g>
    <g id="Layer_2" data-name="Layer 2" transform="translate(226.401 296.245)">
      <g id="Layer_1" data-name="Layer 1" transform="translate(0 0)">
        <path id="Path_1363" data-name="Path 1363" d="M35.248,35.009c-6.005,4.856-24.9,4.856-30.91,0s-5.465-25.446,0-30.91,25.44-5.465,30.91,0S41.253,30.153,35.248,35.009Z" transform="translate(-0.033 -0.001)" fill="#106"/>
        <g id="Group_71" data-name="Group 71" transform="translate(0 0)" clip-path="url(#clip-path)">
          <path id="Path_1364" data-name="Path 1364" d="M139.7,3.118V.2h4.707V3.122a4.276,4.276,0,0,0,.206,1.266,7.677,7.677,0,0,0,.639,1.425,26.563,26.563,0,0,0,2.353,3.3c.617.8,1.266,1.608,1.876,2.488a14.763,14.763,0,0,1,2.063,3.926,9.007,9.007,0,0,1,.437,2.725V21.86c0,3.6-2.749,5.208-6.143,5.208S139.7,25.46,139.7,21.86V17.047h4.707v4.819a1.441,1.441,0,1,0,2.883,0V18.249a4.33,4.33,0,0,0-.206-1.276c.13.425.044-.211-.649-1.422a26.974,26.974,0,0,0-2.352-3.3c-.617-.79-1.271-1.605-1.883-2.48a14.8,14.8,0,0,1-2.066-3.931,8.926,8.926,0,0,1-.428-2.72Zm12.287,1.2V.2h-4.707V4.319Zm0,29.649c0-3.6-2.749-5.21-6.143-5.21s-6.143,1.615-6.143,5.21v3.665a8.6,8.6,0,0,0,.091,1.2h4.8a4.1,4.1,0,0,1-.188-1.2V33.968a1.441,1.441,0,0,1,2.883,0v4.869H152Z" transform="translate(-117.031 -0.168)" fill="#ffa423"/>
          <path id="Path_1365" data-name="Path 1365" d="M38.167,9.633,35.393.18H41.51V9.633Zm-4.9,0V.18H28.56V9.633Zm3.54,2.886v16.7l-4.9-16.7H28.562V38.812h4.707V27.444L36.6,38.817h4.908v-26.3Z" transform="translate(-23.93 -0.151)" fill="#ffa423"/>
        </g>
      </g>
    </g>
  </g>
</svg>
