<svg xmlns="http://www.w3.org/2000/svg" width="150" height="150.001" viewBox="0 0 150 150.001">
  <g id="leadership" transform="translate(-0.001)">
    <path id="Path_1908" data-name="Path 1908" d="M40.433,483.658H0v-9.693a2.051,2.051,0,0,1,2.051-2.051H40.433Z" transform="translate(-0.001 -333.658)" fill="#fe646f"/>
    <path id="Path_1909" data-name="Path 1909" d="M6.037,471.914v11.744H0v-9.693a2.051,2.051,0,0,1,2.051-2.051Z" transform="translate(0 -333.658)" fill="#fd4755"/>
    <path id="Path_1910" data-name="Path 1910" d="M438,45.726h7.324a2.051,2.051,0,0,1,2.051,2.051V53.05a2.051,2.051,0,0,1-2.051,2.051h-5.273A2.051,2.051,0,0,1,438,53.05Z" transform="translate(-309.679 -32.33)" fill="#ee9c27"/>
    <path id="Path_1911" data-name="Path 1911" d="M414.182,33.1H400.168V23.726h11.963a2.051,2.051,0,0,1,2.051,2.051Z" transform="translate(-282.93 -16.775)" fill="#ffa423"/>
    <g id="Group_3138" data-name="Group 3138" transform="translate(114.974 0)">
      <g id="Group_3137" data-name="Group 3137" transform="translate(0 0)">
        <path id="Path_1912" data-name="Path 1912" d="M394.705,27.965a2.263,2.263,0,0,1-2.263-2.263V2.263a2.263,2.263,0,1,1,4.527,0V25.7A2.264,2.264,0,0,1,394.705,27.965Z" transform="translate(-392.442 0)" fill="#68748f"/>
      </g>
    </g>
    <path id="Path_1913" data-name="Path 1913" d="M303.032,95.455A7.031,7.031,0,0,1,296,88.424V83.736a7.031,7.031,0,1,1,14.063,0v4.688A7.031,7.031,0,0,1,303.032,95.455Z" transform="translate(-209.281 -54.233)" fill="#ffcebf"/>
    <path id="Path_1914" data-name="Path 1914" d="M306.05,94.777A7.032,7.032,0,0,1,296,88.427v-4.69a7.032,7.032,0,0,1,10.047-6.35,7.03,7.03,0,0,0-4.011,6.35v4.69A7.03,7.03,0,0,0,306.05,94.777Z" transform="translate(-209.282 -54.235)" fill="#ffb09e"/>
    <path id="Path_1915" data-name="Path 1915" d="M79.033,159.455A7.031,7.031,0,0,1,72,152.424v-4.688a7.031,7.031,0,0,1,14.063,0v4.688A7.031,7.031,0,0,1,79.033,159.455Z" transform="translate(-50.907 -99.483)" fill="#ffcebf"/>
    <path id="Path_1916" data-name="Path 1916" d="M82.05,158.775A7.035,7.035,0,0,1,72,152.422v-4.687a7.035,7.035,0,0,1,10.05-6.353,7.028,7.028,0,0,0-4.014,6.353v4.687a7.029,7.029,0,0,0,4.014,6.353Z" transform="translate(-50.905 -99.481)" fill="#ffb09e"/>
    <path id="Path_1917" data-name="Path 1917" d="M82.841,182.906v10.563L76.3,196.741a4.746,4.746,0,0,1-2.113.5H60.124v23.4l-2.343,2.93H44.305v6.451l-5.975,0A6.338,6.338,0,0,1,32,223.678v-26.62a9.232,9.232,0,0,1,9.232-9.229l31.841-.036Z" transform="translate(-22.623 -129.32)" fill="#ffa423"/>
    <path id="Path_1918" data-name="Path 1918" d="M82.841,182.906v2.263L77.6,187.792l-31.841.036a9.231,9.231,0,0,0-9.232,9.229v26.62a6.336,6.336,0,0,0,4.85,6.16v.181l-3.045,0A6.338,6.338,0,0,1,32,223.678v-26.62a9.232,9.232,0,0,1,9.232-9.229l31.841-.036Z" transform="translate(-22.623 -129.32)" fill="#db8813"/>
    <path id="Path_1919" data-name="Path 1919" d="M267.236,92.4V104.82a6.337,6.337,0,0,1-6.338,6.338H248.451V134.6l-2.345,2.93H232.044L229.7,134.6v-23.4h-2.731l-7.989,7.992a4.736,4.736,0,0,1-1.228.884l-12.208,6.106V115.613l7.3-3.649,8.831-8.831a4.724,4.724,0,0,1,3.341-1.385l32.874.036V92.4a4.675,4.675,0,0,1,9.35,0Z" transform="translate(-145.324 -62.026)" fill="#106"/>
    <g id="Group_3139" data-name="Group 3139" transform="translate(60.219 25.701)">
      <path id="Path_1920" data-name="Path 1920" d="M225.013,135.579l4.295.006a4.722,4.722,0,0,0-3.109,1.379l-8.831,8.831-7.3,3.649v8.3l-4.527,2.263V149.444l7.3-3.649,8.831-8.831A4.724,4.724,0,0,1,225.013,135.579Z" transform="translate(-205.543 -121.559)" fill="#080031"/>
      <path id="Path_1921" data-name="Path 1921" d="M292.526,167.824v26.332h-2.182L288,191.227v-23.4Z" transform="translate(-263.842 -144.358)" fill="#080031"/>
      <path id="Path_1922" data-name="Path 1922" d="M391.147,88.312a4.671,4.671,0,0,0-2.411,4.09v9.38l-4.527-.006V92.4a4.673,4.673,0,0,1,6.939-4.089Z" transform="translate(-331.865 -87.726)" fill="#080031"/>
      <path id="Path_1923" data-name="Path 1923" d="M287.009,135.579l28.346.03v.006l-28.53-.03C286.885,135.579,286.949,135.579,287.009,135.579Z" transform="translate(-263.012 -121.56)" fill="#080031"/>
    </g>
    <g id="Group_3140" data-name="Group 3140" transform="translate(18.752 70.219)">
      <path id="Path_1924" data-name="Path 1924" d="M66.266,263.045A2.263,2.263,0,0,1,64,260.781V241.943a2.263,2.263,0,1,1,4.527,0v18.838A2.263,2.263,0,0,1,66.266,263.045Z" transform="translate(-64.003 -239.68)" fill="#89daa4"/>
    </g>
    <path id="Path_1925" data-name="Path 1925" d="M98.839,321.5l-16.087-9.795H64v46.937h9.375V319.878l18.714,8.877v23.38h9.447V325.767A4.723,4.723,0,0,0,98.839,321.5Z" transform="translate(-45.251 -220.385)" fill="#68748f"/>
    <path id="Path_1926" data-name="Path 1926" d="M64.006,311.7h4.527v46.938H64.006Z" transform="translate(-45.253 -220.381)" fill="#5d6980"/>
    <path id="Path_1927" data-name="Path 1927" d="M130.169,348.476v23.378h-4.527V348.476l-14.185-6.73V339.6Z" transform="translate(-78.802 -240.105)" fill="#5d6980"/>
    <path id="Path_1928" data-name="Path 1928" d="M322.838,257.5l-16.087-9.795H288v49.8h9.375V255.878l18.811,8.877V285.2l2.93,2.93h6.42V261.767A4.723,4.723,0,0,0,322.838,257.5Z" transform="translate(-203.625 -175.135)" fill="#68748f"/>
    <path id="Path_1929" data-name="Path 1929" d="M288,247.705h4.527v49.8H288Z" transform="translate(-203.623 -175.135)" fill="#5d6980"/>
    <path id="Path_1930" data-name="Path 1930" d="M354.164,284.478v23.38h-1.5l-2.93-2.93v-20.45l-14.285-6.73V275.6Z" transform="translate(-237.172 -194.859)" fill="#5d6980"/>
    <path id="Path_1931" data-name="Path 1931" d="M168.432,460.884H128V441.755a2.051,2.051,0,0,1,2.051-2.051h38.379Z" transform="translate(-90.501 -310.884)" fill="#ffe177"/>
    <path id="Path_1932" data-name="Path 1932" d="M134.037,439.7v21.182H128V441.751a2.051,2.051,0,0,1,2.051-2.051Z" transform="translate(-90.5 -310.881)" fill="#ffd15b"/>
    <path id="Path_1933" data-name="Path 1933" d="M256,438.259h40.491V407.7H258.053A2.051,2.051,0,0,0,256,409.755Z" transform="translate(-181.001 -288.259)" fill="#8ac9fe"/>
    <path id="Path_1934" data-name="Path 1934" d="M262.037,407.7v30.556H256V409.754a2.051,2.051,0,0,1,2.051-2.051Z" transform="translate(-181 -288.258)" fill="#60b7ff"/>
    <path id="Path_1935" data-name="Path 1935" d="M384.212,415.634H421.65v-37.88A2.051,2.051,0,0,0,419.6,375.7H384.212Z" transform="translate(-271.649 -265.634)" fill="#aee69c"/>
    <path id="Path_1936" data-name="Path 1936" d="M384.208,375.705h6.036v39.931h-6.036Z" transform="translate(-271.646 -265.635)" fill="#89daa4"/>
  </g>
</svg>
