<svg xmlns="http://www.w3.org/2000/svg" xmlns:xlink="http://www.w3.org/1999/xlink" width="52.67" height="51.509" viewBox="0 0 52.67 51.509">
  <defs>
    <clipPath id="clip-path">
      <path id="SVGID" d="M46.965,46.657c-8,6.472-33.184,6.472-41.194,0s-7.283-33.913,0-41.194,33.9-7.283,41.194,0S54.968,40.185,46.965,46.657Z" transform="translate(-0.033 -0.001)" fill="none"/>
    </clipPath>
  </defs>
  <g id="Layer_2" data-name="Layer 2" transform="translate(-0.033 -0.001)">
    <g id="Layer_1" data-name="Layer 1" transform="translate(0.033 0.001)">
      <path id="Path_1363" data-name="Path 1363" d="M46.965,46.657c-8,6.472-33.184,6.472-41.194,0s-7.283-33.913,0-41.194,33.9-7.283,41.194,0S54.968,40.185,46.965,46.657Z" transform="translate(-0.033 -0.001)" fill="#106"/>
      <g id="Group_71" data-name="Group 71" transform="translate(0 0)" clip-path="url(#clip-path)">
        <path id="Path_1364" data-name="Path 1364" d="M139.706,4.089V.2h6.273V4.094a5.7,5.7,0,0,0,.275,1.687,10.23,10.23,0,0,0,.852,1.9,35.4,35.4,0,0,0,3.136,4.393c.822,1.062,1.687,2.144,2.5,3.316a19.675,19.675,0,0,1,2.749,5.233,12,12,0,0,1,.582,3.632v4.813c0,4.8-3.664,6.941-8.187,6.941s-8.187-2.144-8.187-6.941V22.653h6.273v6.422a1.921,1.921,0,1,0,3.842,0V24.254a5.771,5.771,0,0,0-.275-1.7c.173.567.058-.281-.865-1.895a35.949,35.949,0,0,0-3.134-4.4c-.822-1.053-1.694-2.139-2.509-3.305a19.729,19.729,0,0,1-2.754-5.239,11.9,11.9,0,0,1-.571-3.625Zm16.375,1.6V.2h-6.273V5.69Zm0,39.513c0-4.791-3.664-6.944-8.187-6.944s-8.187,2.152-8.187,6.944v4.884a11.466,11.466,0,0,0,.121,1.6h6.4a5.467,5.467,0,0,1-.251-1.6V45.2a1.921,1.921,0,0,1,3.842,0v6.489h6.273Z" transform="translate(-109.489 -0.157)" fill="#ffa423"/>
        <path id="Path_1365" data-name="Path 1365" d="M41.363,12.778,37.667.18h8.153v12.6Zm-6.53,0V.18H28.56v12.6Zm4.718,3.846v22.26l-6.533-22.26H28.562V51.666h6.273V36.516L39.28,51.672h6.541V16.624Z" transform="translate(-22.389 -0.141)" fill="#ffa423"/>
      </g>
    </g>
  </g>
</svg>
