<svg xmlns="http://www.w3.org/2000/svg" width="81.523" height="120.417" viewBox="0 0 81.523 120.417">
  <g id="Layer_2" data-name="Layer 2" transform="translate(-170.018 -55.736)">
    <g id="Layer_1" data-name="Layer 1" transform="translate(216.997 55.735)">
      <path id="Path_1900" data-name="Path 1900" d="M72.675,72.215c-12.388,10.017-51.363,10.017-63.761,0s-11.273-52.491,0-63.761,52.478-11.273,63.761,0S85.062,62.2,72.675,72.215Z" transform="translate(-47.011 0)" fill="#fff"/>
      <g id="Group_3133" data-name="Group 3133" transform="translate(-46.979 0.001)">
        <path id="Path_1901" data-name="Path 1901" d="M139.71,6.22V.2h9.709V6.227a8.819,8.819,0,0,0,.425,2.611,15.837,15.837,0,0,0,1.319,2.94,54.8,54.8,0,0,0,4.855,6.8c1.272,1.644,2.612,3.318,3.87,5.133a30.453,30.453,0,0,1,4.255,8.1,18.578,18.578,0,0,1,.9,5.621V44.88c0,7.426-5.672,10.744-12.672,10.744S139.7,52.306,139.7,44.88V34.953h9.709v9.94a2.973,2.973,0,1,0,5.946,0V37.43a8.933,8.933,0,0,0-.425-2.632c.268.877.09-.435-1.339-2.933a55.646,55.646,0,0,0-4.851-6.81c-1.272-1.631-2.622-3.311-3.884-5.116a30.537,30.537,0,0,1-4.262-8.109,18.414,18.414,0,0,1-.884-5.611ZM165.055,8.7V.2h-9.709V8.7Zm0,61.159c0-7.416-5.672-10.747-12.672-10.747S139.71,62.441,139.71,69.856v7.56a17.744,17.744,0,0,0,.187,2.471h9.9a8.461,8.461,0,0,1-.388-2.471v-7.56a2.973,2.973,0,1,1,5.946,0V79.9h9.709Z" transform="translate(-92.938 -0.133)" fill="#106"/>
        <path id="Path_1902" data-name="Path 1902" d="M48.377,19.679,42.655.18H55.274v19.5Zm-10.108,0V.18H28.56v19.5Zm7.3,5.953V60.087L35.46,25.632h-6.9V79.871h9.709V56.421l6.88,23.46H55.278V25.632Z" transform="translate(-19.009 -0.12)" fill="#106"/>
      </g>
      <path id="Path_1903" data-name="Path 1903" d="M308.29,73.5V47.78h5.329l5.689,15.086V47.78h4.969V73.5h-5.041l-5.976-15.37V73.5Z" transform="translate(-349.3 46.536)" fill="#fff"/>
      <path id="Path_1904" data-name="Path 1904" d="M410,64.1h4.86a6.57,6.57,0,0,0,.647,3.114,2.049,2.049,0,0,0,1.873.919,2.37,2.37,0,0,0,2-.774,4.351,4.351,0,0,0,.593-2.611,3.036,3.036,0,0,0-.647-2.2,2.747,2.747,0,0,0-.792-.577q-.4-.181-2.412-.828a8.416,8.416,0,0,1-4.566-2.953,7.932,7.932,0,0,1-1.116-4.5q0-7.7,6.871-7.7,4.5,0,6.227,3.313a10.94,10.94,0,0,1,.864,4.573h-4.855a8.057,8.057,0,0,0-.593-2.862,1.527,1.527,0,0,0-1.459-.738q-1.98,0-1.98,3.2a2.986,2.986,0,0,0,.685,2.107,6.181,6.181,0,0,0,2.591,1.349q1.909.647,2.7,1.009a7.207,7.207,0,0,1,1.512.937q2.05,1.627,2.052,5.652,0,7.886-7.594,7.884-4.826,0-6.587-3.528A11.506,11.506,0,0,1,410,64.1Z" transform="translate(-432.619 48.002)" fill="#fff"/>
      <path id="Path_1905" data-name="Path 1905" d="M508.2,73.5V47.78h5.329l5.688,15.086V47.78h4.969V73.5h-5.041l-5.976-15.37V73.5Z" transform="translate(-513.062 46.536)" fill="#fff"/>
      <path id="Path_1906" data-name="Path 1906" d="M610,64.1h4.86a6.569,6.569,0,0,0,.647,3.114,2.049,2.049,0,0,0,1.873.919,2.367,2.367,0,0,0,2-.774,4.369,4.369,0,0,0,.593-2.611,3.036,3.036,0,0,0-.647-2.2,2.747,2.747,0,0,0-.792-.577q-.4-.181-2.412-.828a8.355,8.355,0,0,1-4.573-2.953,7.932,7.932,0,0,1-1.116-4.5q0-7.7,6.871-7.7,4.5,0,6.229,3.313a11,11,0,0,1,.862,4.573h-4.864a8.059,8.059,0,0,0-.593-2.862,1.527,1.527,0,0,0-1.459-.738q-1.989,0-1.989,3.2a2.986,2.986,0,0,0,.685,2.107,6.181,6.181,0,0,0,2.591,1.349q1.909.647,2.7,1.009a7.209,7.209,0,0,1,1.512.937q2.052,1.627,2.052,5.652,0,7.886-7.594,7.884-4.824,0-6.589-3.528A11.594,11.594,0,0,1,610,64.1Z" transform="translate(-596.455 48.002)" fill="#fff"/>
    </g>
  </g>
</svg>
