<svg xmlns="http://www.w3.org/2000/svg" xmlns:xlink="http://www.w3.org/1999/xlink" width="81" height="81" viewBox="0 0 81 81">
  <defs>
    <filter id="Ellipse_24" x="0" y="0" width="81" height="81" filterUnits="userSpaceOnUse">
      <feOffset input="SourceAlpha"/>
      <feGaussianBlur stdDeviation="5" result="blur"/>
      <feFlood flood-color="#ffa423" flood-opacity="0.2"/>
      <feComposite operator="in" in2="blur"/>
      <feComposite in="SourceGraphic"/>
    </filter>
  </defs>
  <g id="Group_3195" data-name="Group 3195" transform="translate(-136 -5072)">
    <g transform="matrix(1, 0, 0, 1, 136, 5072)" filter="url(#Ellipse_24)">
      <circle id="Ellipse_24-2" data-name="Ellipse 24" cx="25.5" cy="25.5" r="25.5" transform="translate(15 15)" fill="#ffa322"/>
    </g>
    <path id="Icon_awesome-map-marked-alt" data-name="Icon awesome-map-marked-alt" d="M15.792,0A6.909,6.909,0,0,0,8.883,6.909c0,3.085,4.516,8.708,6.246,10.748a.865.865,0,0,0,1.327,0C18.185,15.617,22.7,9.994,22.7,6.909A6.909,6.909,0,0,0,15.792,0Zm0,9.212a2.3,2.3,0,1,1,2.3-2.3A2.3,2.3,0,0,1,15.792,9.212ZM1.1,11.841A1.755,1.755,0,0,0,0,13.47V27.2a.877.877,0,0,0,1.2.815l7.57-3.446V11.785A16.605,16.605,0,0,1,7.608,9.239Zm14.689,7.881a2.62,2.62,0,0,1-2-.93c-1.078-1.272-2.225-2.721-3.262-4.207v9.98l10.528,3.509V14.586c-1.037,1.485-2.183,2.935-3.262,4.207A2.621,2.621,0,0,1,15.792,19.722ZM30.381,8.837l-7.57,3.446V28.075l7.67-3.068a1.754,1.754,0,0,0,1.1-1.629V9.652A.877.877,0,0,0,30.381,8.837Z" transform="translate(160.729 5098.387)" fill="#fff"/>
  </g>
</svg>
