<svg xmlns="http://www.w3.org/2000/svg" width="27.314" height="29.755" viewBox="0 0 27.314 29.755">
  <g id="Layer_2" data-name="Layer 2" transform="translate(-306.29 -36.235)">
    <g id="Layer_1" data-name="Layer 1" transform="translate(308.29 45.99)">
      <path id="Path_1369" data-name="Path 1369" d="M308.29,67.242V47.78h4.033L316.628,59.2V47.78h3.761V67.242h-3.815L312.051,55.61V67.242Z" transform="translate(-310.29 -57.535)" fill="#ffa423" opacity="0.54"/>
      <path id="Path_1370" data-name="Path 1370" d="M410,59.7h3.678a4.971,4.971,0,0,0,.49,2.356,1.55,1.55,0,0,0,1.418.7,1.794,1.794,0,0,0,1.512-.586,3.293,3.293,0,0,0,.449-1.976,2.3,2.3,0,0,0-.49-1.661,2.079,2.079,0,0,0-.6-.437q-.3-.137-1.826-.627a6.37,6.37,0,0,1-3.455-2.235,6,6,0,0,1-.844-3.406q0-5.83,5.2-5.831,3.406,0,4.713,2.507a8.279,8.279,0,0,1,.654,3.461h-3.674a6.1,6.1,0,0,0-.449-2.166,1.156,1.156,0,0,0-1.1-.558q-1.5,0-1.5,2.425a2.26,2.26,0,0,0,.519,1.594,4.678,4.678,0,0,0,1.961,1.021q1.445.49,2.044.764a5.454,5.454,0,0,1,1.144.709q1.552,1.232,1.553,4.278,0,5.968-5.748,5.966-3.652,0-4.985-2.67A8.708,8.708,0,0,1,410,59.7Z" transform="translate(-396.081 -45.99)" fill="#ffa423" opacity="0.54"/>
    </g>
  </g>
</svg>
