<svg xmlns="http://www.w3.org/2000/svg" width="27.307" height="29.707" viewBox="0 0 27.307 29.707">
  <g id="Group_73" data-name="Group 73" transform="translate(-883.293 -845.989)">
    <path id="Path_1371" data-name="Path 1371" d="M508.2,67.242V47.78h4.033L516.538,59.2V47.78H520.3V67.242h-3.815L511.961,55.61V67.242Z" transform="translate(375.093 808.454)" fill="#ffa423" opacity="0.54"/>
    <path id="Path_1372" data-name="Path 1372" d="M610,59.7h3.678a4.972,4.972,0,0,0,.49,2.356,1.551,1.551,0,0,0,1.418.7,1.791,1.791,0,0,0,1.512-.586,3.306,3.306,0,0,0,.449-1.976,2.3,2.3,0,0,0-.49-1.661,2.08,2.08,0,0,0-.6-.437q-.3-.137-1.826-.627a6.323,6.323,0,0,1-3.461-2.235,6,6,0,0,1-.844-3.406q0-5.83,5.2-5.831,3.406,0,4.714,2.507a8.325,8.325,0,0,1,.653,3.461h-3.681a6.1,6.1,0,0,0-.449-2.166,1.156,1.156,0,0,0-1.1-.558q-1.505,0-1.505,2.425a2.26,2.26,0,0,0,.519,1.594,4.678,4.678,0,0,0,1.961,1.021q1.445.49,2.044.764a5.455,5.455,0,0,1,1.144.709q1.553,1.232,1.553,4.278,0,5.968-5.747,5.966-3.651,0-4.987-2.67A8.774,8.774,0,0,1,610,59.7Z" transform="translate(289.224 799.999)" fill="#ffa423" opacity="0.54"/>
  </g>
</svg>
