<svg xmlns="http://www.w3.org/2000/svg" width="222.981" height="31.82" viewBox="0 0 222.981 31.82">
  <g id="Group_3111" data-name="Group 3111" transform="translate(-934.832 -2829.18)" opacity="0.49">
    <path id="Path_1818" data-name="Path 1818" d="M139.7,2.6V.2h3.876V2.606a3.521,3.521,0,0,0,.17,1.043,6.322,6.322,0,0,0,.527,1.174,21.876,21.876,0,0,0,1.938,2.715c.508.656,1.043,1.325,1.545,2.049a12.157,12.157,0,0,1,1.7,3.233,7.417,7.417,0,0,1,.36,2.244v2.974c0,2.965-2.264,4.289-5.059,4.289S139.7,21,139.7,18.037V14.074h3.876v3.968a1.187,1.187,0,1,0,2.374,0V15.063a3.566,3.566,0,0,0-.17-1.051c.107.35.036-.174-.535-1.171a22.214,22.214,0,0,0-1.937-2.719c-.508-.651-1.047-1.322-1.55-2.042a12.19,12.19,0,0,1-1.7-3.237A7.351,7.351,0,0,1,139.7,2.6Zm10.118.989V.2h-3.876V3.592Zm0,24.415c0-2.961-2.264-4.29-5.059-4.29s-5.059,1.33-5.059,4.29v3.018a7.083,7.083,0,0,0,.075.986h3.952a3.378,3.378,0,0,1-.155-.986V28.008a1.187,1.187,0,0,1,2.374,0v4.01h3.876Z" transform="translate(809.987 2828.983)" fill="#ffa423"/>
    <path id="Path_1820" data-name="Path 1820" d="M139.7,2.6V.2h3.876V2.606a3.521,3.521,0,0,0,.17,1.043,6.322,6.322,0,0,0,.527,1.174,21.876,21.876,0,0,0,1.938,2.715c.508.656,1.043,1.325,1.545,2.049a12.157,12.157,0,0,1,1.7,3.233,7.417,7.417,0,0,1,.36,2.244v2.974c0,2.965-2.264,4.289-5.059,4.289S139.7,21,139.7,18.037V14.074h3.876v3.968a1.187,1.187,0,1,0,2.374,0V15.063a3.566,3.566,0,0,0-.17-1.051c.107.35.036-.174-.535-1.171a22.214,22.214,0,0,0-1.937-2.719c-.508-.651-1.047-1.322-1.55-2.042a12.19,12.19,0,0,1-1.7-3.237A7.351,7.351,0,0,1,139.7,2.6Zm10.118.989V.2h-3.876V3.592Zm0,24.415c0-2.961-2.264-4.29-5.059-4.29s-5.059,1.33-5.059,4.29v3.018a7.083,7.083,0,0,0,.075.986h3.952a3.378,3.378,0,0,1-.155-.986V28.008a1.187,1.187,0,0,1,2.374,0v4.01h3.876Z" transform="translate(842.987 2828.983)" fill="#ffa423"/>
    <path id="Path_1822" data-name="Path 1822" d="M139.7,2.6V.2h3.876V2.606a3.521,3.521,0,0,0,.17,1.043,6.322,6.322,0,0,0,.527,1.174,21.876,21.876,0,0,0,1.938,2.715c.508.656,1.043,1.325,1.545,2.049a12.157,12.157,0,0,1,1.7,3.233,7.417,7.417,0,0,1,.36,2.244v2.974c0,2.965-2.264,4.289-5.059,4.289S139.7,21,139.7,18.037V14.074h3.876v3.968a1.187,1.187,0,1,0,2.374,0V15.063a3.566,3.566,0,0,0-.17-1.051c.107.35.036-.174-.535-1.171a22.214,22.214,0,0,0-1.937-2.719c-.508-.651-1.047-1.322-1.55-2.042a12.19,12.19,0,0,1-1.7-3.237A7.351,7.351,0,0,1,139.7,2.6Zm10.118.989V.2h-3.876V3.592Zm0,24.415c0-2.961-2.264-4.29-5.059-4.29s-5.059,1.33-5.059,4.29v3.018a7.083,7.083,0,0,0,.075.986h3.952a3.378,3.378,0,0,1-.155-.986V28.008a1.187,1.187,0,0,1,2.374,0v4.01h3.876Z" transform="translate(875.987 2828.983)" fill="#ffa423"/>
    <path id="Path_1824" data-name="Path 1824" d="M139.7,2.6V.2h3.876V2.606a3.521,3.521,0,0,0,.17,1.043,6.322,6.322,0,0,0,.527,1.174,21.876,21.876,0,0,0,1.938,2.715c.508.656,1.043,1.325,1.545,2.049a12.157,12.157,0,0,1,1.7,3.233,7.417,7.417,0,0,1,.36,2.244v2.974c0,2.965-2.264,4.289-5.059,4.289S139.7,21,139.7,18.037V14.074h3.876v3.968a1.187,1.187,0,1,0,2.374,0V15.063a3.566,3.566,0,0,0-.17-1.051c.107.35.036-.174-.535-1.171a22.214,22.214,0,0,0-1.937-2.719c-.508-.651-1.047-1.322-1.55-2.042a12.19,12.19,0,0,1-1.7-3.237A7.351,7.351,0,0,1,139.7,2.6Zm10.118.989V.2h-3.876V3.592Zm0,24.415c0-2.961-2.264-4.29-5.059-4.29s-5.059,1.33-5.059,4.29v3.018a7.083,7.083,0,0,0,.075.986h3.952a3.378,3.378,0,0,1-.155-.986V28.008a1.187,1.187,0,0,1,2.374,0v4.01h3.876Z" transform="translate(908.987 2828.983)" fill="#ffa423"/>
    <path id="Path_1819" data-name="Path 1819" d="M36.471,7.964,34.187.18h5.038V7.964Zm-4.035,0V.18H28.56V7.964Zm2.915,2.376V24.1L31.315,10.341H28.561V31.993h3.876V22.632L35.184,32h4.042V10.341Z" transform="translate(906.272 2829)" fill="#ffa423"/>
    <path id="Path_1821" data-name="Path 1821" d="M36.471,7.964,34.187.18h5.038V7.964Zm-4.035,0V.18H28.56V7.964Zm2.915,2.376V24.1L31.315,10.341H28.561V31.993h3.876V22.632L35.184,32h4.042V10.341Z" transform="translate(939.272 2829)" fill="#ffa423"/>
    <path id="Path_1823" data-name="Path 1823" d="M36.471,7.964,34.187.18h5.038V7.964Zm-4.035,0V.18H28.56V7.964Zm2.915,2.376V24.1L31.315,10.341H28.561V31.993h3.876V22.632L35.184,32h4.042V10.341Z" transform="translate(972.272 2829)" fill="#ffa423"/>
    <path id="Path_1825" data-name="Path 1825" d="M36.471,7.964,34.187.18h5.038V7.964Zm-4.035,0V.18H28.56V7.964Zm2.915,2.376V24.1L31.315,10.341H28.561V31.993h3.876V22.632L35.184,32h4.042V10.341Z" transform="translate(1005.272 2829)" fill="#ffa423"/>
    <path id="Path_1826" data-name="Path 1826" d="M139.7,2.6V.2h3.876V2.606a3.521,3.521,0,0,0,.17,1.043,6.322,6.322,0,0,0,.527,1.174,21.876,21.876,0,0,0,1.938,2.715c.508.656,1.043,1.325,1.545,2.049a12.157,12.157,0,0,1,1.7,3.233,7.417,7.417,0,0,1,.36,2.244v2.974c0,2.965-2.264,4.289-5.059,4.289S139.7,21,139.7,18.037V14.074h3.876v3.968a1.187,1.187,0,1,0,2.374,0V15.063a3.566,3.566,0,0,0-.17-1.051c.107.35.036-.174-.535-1.171a22.214,22.214,0,0,0-1.937-2.719c-.508-.651-1.047-1.322-1.55-2.042a12.19,12.19,0,0,1-1.7-3.237A7.351,7.351,0,0,1,139.7,2.6Zm10.118.989V.2h-3.876V3.592Zm0,24.415c0-2.961-2.264-4.29-5.059-4.29s-5.059,1.33-5.059,4.29v3.018a7.083,7.083,0,0,0,.075.986h3.952a3.378,3.378,0,0,1-.155-.986V28.008a1.187,1.187,0,0,1,2.374,0v4.01h3.876Z" transform="translate(941.987 2828.983)" fill="#ffa423"/>
    <path id="Path_1827" data-name="Path 1827" d="M139.7,2.6V.2h3.876V2.606a3.521,3.521,0,0,0,.17,1.043,6.322,6.322,0,0,0,.527,1.174,21.876,21.876,0,0,0,1.938,2.715c.508.656,1.043,1.325,1.545,2.049a12.157,12.157,0,0,1,1.7,3.233,7.417,7.417,0,0,1,.36,2.244v2.974c0,2.965-2.264,4.289-5.059,4.289S139.7,21,139.7,18.037V14.074h3.876v3.968a1.187,1.187,0,1,0,2.374,0V15.063a3.566,3.566,0,0,0-.17-1.051c.107.35.036-.174-.535-1.171a22.214,22.214,0,0,0-1.937-2.719c-.508-.651-1.047-1.322-1.55-2.042a12.19,12.19,0,0,1-1.7-3.237A7.351,7.351,0,0,1,139.7,2.6Zm10.118.989V.2h-3.876V3.592Zm0,24.415c0-2.961-2.264-4.29-5.059-4.29s-5.059,1.33-5.059,4.29v3.018a7.083,7.083,0,0,0,.075.986h3.952a3.378,3.378,0,0,1-.155-.986V28.008a1.187,1.187,0,0,1,2.374,0v4.01h3.876Z" transform="translate(974.987 2828.983)" fill="#ffa423"/>
    <path id="Path_1828" data-name="Path 1828" d="M36.471,7.964,34.187.18h5.038V7.964Zm-4.035,0V.18H28.56V7.964Zm2.915,2.376V24.1L31.315,10.341H28.561V31.993h3.876V22.632L35.184,32h4.042V10.341Z" transform="translate(1038.272 2829)" fill="#ffa423"/>
    <path id="Path_1829" data-name="Path 1829" d="M36.471,7.964,34.187.18h5.038V7.964Zm-4.035,0V.18H28.56V7.964Zm2.915,2.376V24.1L31.315,10.341H28.561V31.993h3.876V22.632L35.184,32h4.042V10.341Z" transform="translate(1071.272 2829)" fill="#ffa423"/>
    <path id="Path_1830" data-name="Path 1830" d="M139.7,2.6V.2h3.876V2.606a3.521,3.521,0,0,0,.17,1.043,6.322,6.322,0,0,0,.527,1.174,21.876,21.876,0,0,0,1.938,2.715c.508.656,1.043,1.325,1.545,2.049a12.157,12.157,0,0,1,1.7,3.233,7.417,7.417,0,0,1,.36,2.244v2.974c0,2.965-2.264,4.289-5.059,4.289S139.7,21,139.7,18.037V14.074h3.876v3.968a1.187,1.187,0,1,0,2.374,0V15.063a3.566,3.566,0,0,0-.17-1.051c.107.35.036-.174-.535-1.171a22.214,22.214,0,0,0-1.937-2.719c-.508-.651-1.047-1.322-1.55-2.042a12.19,12.19,0,0,1-1.7-3.237A7.351,7.351,0,0,1,139.7,2.6Zm10.118.989V.2h-3.876V3.592Zm0,24.415c0-2.961-2.264-4.29-5.059-4.29s-5.059,1.33-5.059,4.29v3.018a7.083,7.083,0,0,0,.075.986h3.952a3.378,3.378,0,0,1-.155-.986V28.008a1.187,1.187,0,0,1,2.374,0v4.01h3.876Z" transform="translate(1007.987 2828.983)" fill="#ffa423"/>
    <path id="Path_1831" data-name="Path 1831" d="M36.471,7.964,34.187.18h5.038V7.964Zm-4.035,0V.18H28.56V7.964Zm2.915,2.376V24.1L31.315,10.341H28.561V31.993h3.876V22.632L35.184,32h4.042V10.341Z" transform="translate(1104.272 2829)" fill="#ffa423"/>
  </g>
</svg>
