<svg xmlns="http://www.w3.org/2000/svg" xmlns:xlink="http://www.w3.org/1999/xlink" width="469.907" height="486.429" viewBox="0 0 469.907 486.429">
  <defs>
    <filter id="Path_1363" x="311.01" y="347.449" width="141.707" height="138.98" filterUnits="userSpaceOnUse">
      <feOffset dy="3" input="SourceAlpha"/>
      <feGaussianBlur stdDeviation="3" result="blur"/>
      <feFlood flood-opacity="0.161"/>
      <feComposite operator="in" in2="blur"/>
      <feComposite in="SourceGraphic"/>
    </filter>
    <clipPath id="clip-path">
      <path id="SVGID" d="M110.262,109.581c-18.8,15.2-77.94,15.2-96.753,0S-3.6,29.93,13.51,12.829s79.631-17.106,96.753,0S129.06,94.381,110.262,109.581Z" transform="translate(-0.033 -0.001)" fill="none"/>
    </clipPath>
  </defs>
  <g id="Group_3194" data-name="Group 3194" transform="translate(-94.093 -4405.551)">
    <path id="Path_1864" data-name="Path 1864" d="M418.747,416.247c-71.4,57.741-296.058,57.741-367.52,0s-64.978-302.561,0-367.52,302.484-64.978,367.52,0S490.151,358.507,418.747,416.247Z" transform="translate(94.06 4405.55)" fill="#ffa423" opacity="0.5"/>
    <path id="Path_1865" data-name="Path 1865" d="M340.3,338.258c-58.026,46.922-240.588,46.922-298.661,0s-52.8-245.873,0-298.66,245.81-52.8,298.661,0S398.321,291.336,340.3,338.258Z" transform="translate(94.061 4405.55)" fill="#106"/>
    <g id="Group_3126" data-name="Group 3126" transform="translate(135.978 4460)">
      <circle id="Ellipse_10" data-name="Ellipse 10" cx="21.251" cy="21.251" r="21.251" transform="translate(178.044 231.915)" fill="#ffa423"/>
      <path id="Path_1869" data-name="Path 1869" d="M514,450.823c9.4-3.57,19.384-7.294,26.835-15.782,6.658-7.585,11.154-19.167,8.4-30.542-2.753-11.352-11-18.921-19.511-22.686a66.105,66.105,0,0,0-14.929-4.25c-5.489-1.012-11-1.84-16.513-2.638a602.692,602.692,0,0,0-67.192-5.918c-11.093-.354-22.184-.345-33.279-.141-9.908.182-20.344.177-29.535-5.151a32.691,32.691,0,0,1-15.627-21.59c-2.3-11.436,1.942-23.082,8.025-31.365a71.465,71.465,0,0,1,10.82-11.419c4.194-3.665,8.534-7.071,12.968-10.25a165.936,165.936,0,0,1,27.3-15.924c4.653-2.141,9.376-3.988,14.139-5.692a103.769,103.769,0,0,0,11.944-4.84c7.515-3.79,14.662-10.21,16.573-20.734,1.811-9.975-1.242-20.8-6.6-28.213-6.193-8.573-15.531-12.331-24.483-12.939-10.05-.683-19.869,2.5-29.315,6.54-10.075,4.308-19.933,9.262-30.221,12.752a165.688,165.688,0,0,1-31.1,7.316c-5.141.693-10.438,1.475-15.61.945a16.954,16.954,0,0,1-11.841-5.95,17.131,17.131,0,0,1-3.81-12.766c.1-.879,1.157-.505,1.056.368a15.632,15.632,0,0,0,6.383,14.1c4.508,3.215,9.994,3.219,15.013,2.851A158.2,158.2,0,0,0,356.195,221c10.439-3.017,20.5-7.33,30.559-11.937,9.549-4.376,19.312-8.646,29.514-9.594,8.852-.822,18.164.809,25.875,6.663,6.778,5.145,11.761,13.724,13.349,23.569,1.552,9.621-.6,19.3-6.353,26.017-5.959,6.951-14.129,9.923-21.743,12.66a173.917,173.917,0,0,0-28.255,12.8,171.658,171.658,0,0,0-26.578,18.908c-8.122,7.023-16.137,15.86-18.706,28.389a32.634,32.634,0,0,0,1.026,17.539,31.37,31.37,0,0,0,8.127,12.2c8.149,7.588,18.42,9.146,28.263,9.3,11.055.174,22.111-.3,33.17-.068a602.645,602.645,0,0,1,67.475,5.208q8.436,1.13,16.852,2.5a123.241,123.241,0,0,1,15.07,3.093c8.821,2.591,17.405,7.573,22.888,17.037a32.99,32.99,0,0,1,4.362,14.065,34.951,34.951,0,0,1-2.548,15.394c-4.21,10.483-12.1,17.15-20.472,21.53a125.593,125.593,0,0,1-13.783,5.888c-.677.257-.966-1.08-.291-1.336Z" transform="translate(-244.19 -177.6)" fill="#f2f2f2"/>
      <circle id="Ellipse_11" data-name="Ellipse 11" cx="11.088" cy="11.088" r="11.088" transform="translate(47.073 21.02)" fill="#f2f2f2"/>
      <circle id="Ellipse_12" data-name="Ellipse 12" cx="11.088" cy="11.088" r="11.088" transform="translate(113.741 43.195)" fill="#f2f2f2"/>
      <circle id="Ellipse_13" data-name="Ellipse 13" cx="11.088" cy="11.088" r="11.088" transform="translate(170.796 -0.51)" fill="#f2f2f2"/>
      <circle id="Ellipse_14" data-name="Ellipse 14" cx="11.088" cy="11.088" r="11.088" transform="translate(229.786 47.122)" fill="#f2f2f2"/>
      <circle id="Ellipse_15" data-name="Ellipse 15" cx="11.088" cy="11.088" r="11.088" transform="translate(174.811 101.636)" fill="#f2f2f2"/>
      <circle id="Ellipse_16" data-name="Ellipse 16" cx="11.088" cy="11.088" r="11.088" transform="translate(105.051 127.969)" fill="#f2f2f2"/>
      <circle id="Ellipse_17" data-name="Ellipse 17" cx="11.088" cy="11.088" r="11.088" transform="translate(178.968 169.085)" fill="#f2f2f2"/>
      <circle id="Ellipse_18" data-name="Ellipse 18" cx="11.088" cy="11.088" r="11.088" transform="translate(258.429 192.184)" fill="#f2f2f2"/>
      <circle id="Ellipse_19" data-name="Ellipse 19" cx="11.088" cy="11.088" r="11.088" transform="translate(277.288 245.35)" fill="#f2f2f2"/>
      <path id="Path_1870" data-name="Path 1870" d="M533.222,220.371a61.5,61.5,0,0,0-60.879,60.435c0,.307-.006,2.463-.006,5.282a15.591,15.591,0,0,0,15.588,15.59h0a15.6,15.6,0,0,0,15.6-15.61c0-1.922,0-3.249,0-3.331a29.567,29.567,0,1,1,45.515,24.891l.005.007s-22.188,14.284-28.953,33.88h.006a43.428,43.428,0,0,0-1.789,12.366c0,1.721.1,16.78.3,29a16.071,16.071,0,0,0,16.072,15.81h0a16.075,16.075,0,0,0,16.074-16.174c-.068-11.193-.1-24.227-.1-25.173,0-12.032,11.607-24.021,21.142-31.839a64.125,64.125,0,0,0,22.054-35.11,40.08,40.08,0,0,0,1.155-8.7,61.328,61.328,0,0,0-61.771-61.326Z" transform="translate(-336.203 -188.955)" fill="#ffa423"/>
      <path id="Path_1871" data-name="Path 1871" d="M480.322,746.35H178.09a.568.568,0,0,1,0-1.1H480.321a.568.568,0,0,1,0,1.1Z" transform="translate(-177.662 -471.35)" fill="#3f3d56"/>
      <path id="Path_1884" data-name="Path 1884" d="M492.074,323.868h0a15.591,15.591,0,0,1-15.589-15.588c0-2.822,0-4.978.006-5.284a60.753,60.753,0,0,1,7.1-27.677,60.89,60.89,0,0,0-11.715,35.069c0,.307-.006,2.463-.006,5.282a15.591,15.591,0,0,0,15.588,15.59h0A15.6,15.6,0,0,0,502.463,319.9a15.533,15.533,0,0,1-10.389,3.969Z" transform="translate(-335.949 -218.518)" fill="#ce7900"/>
      <path id="Path_1885" data-name="Path 1885" d="M578.563,282.83a29.569,29.569,0,0,1,25.714,41.307,29.566,29.566,0,1,0-49.629-30.946A29.507,29.507,0,0,1,578.563,282.83Z" transform="translate(-380.488 -218.565)" fill="#ce7900"/>
      <path id="Path_1886" data-name="Path 1886" d="M592.353,516.984h0a16.072,16.072,0,0,1-16.072-15.814c-.2-12.219-.3-27.278-.3-29a43.424,43.424,0,0,1,1.789-12.366h-.006a43.92,43.92,0,0,1,2.538-5.868,50.841,50.841,0,0,0-7.158,13.259h.006a43.426,43.426,0,0,0-1.79,12.366c0,1.721.1,16.78.3,29a16.071,16.071,0,0,0,16.072,15.81h0a16.077,16.077,0,0,0,15.43-11.569A16.012,16.012,0,0,1,592.353,516.984Z" transform="translate(-389.481 -314.618)" fill="#ce7900"/>
      <path id="Path_1887" data-name="Path 1887" d="M126.539,557.143H132.2L134.9,535.3h-8.36Z" transform="translate(-68.08 -287.999)" fill="#ffb8b8"/>
      <path id="Path_1888" data-name="Path 1888" d="M0,0H17.8V6.878H6.878A6.877,6.877,0,0,1,0,0Z" transform="translate(75.045 274.403) rotate(179.997)" fill="#2f2e41"/>
      <path id="Path_1889" data-name="Path 1889" d="M82.539,557.143H88.2L90.9,535.3h-8.36Z" transform="translate(-44.407 -287.999)" fill="#ffb8b8"/>
      <path id="Path_1890" data-name="Path 1890" d="M0,0H17.8V6.878H6.878A6.877,6.877,0,0,1,0,0Z" transform="translate(54.718 274.402) rotate(179.997)" fill="#2f2e41"/>
      <path id="Path_1891" data-name="Path 1891" d="M262.092,632.142l-5.532-.291a2.159,2.159,0,0,1-2.041-2.295l6.612-73.208,30.45,8.217,2.934-.8-9.174,64.809a2.17,2.17,0,0,1-2.013,1.822l-5.964.278a2.159,2.159,0,0,1-2.278-2.215l1.081-38.9a.72.72,0,0,0-1.424-.166l-10.421,41.03a2.146,2.146,0,0,1-2.111,1.721C262.17,632.145,262.131,632.144,262.092,632.142Z" transform="translate(-219.01 -369.717)" fill="#2f2e41"/>
      <circle id="Ellipse_23" data-name="Ellipse 23" cx="11.347" cy="11.347" r="11.347" transform="translate(48.13 104.037)" fill="#ffb8b8"/>
      <path id="Path_1892" data-name="Path 1892" d="M265.489,453.351l1.248,26.919.451,9.793a2.145,2.145,0,0,0,1.42,1.929l29.26,10.6a2.068,2.068,0,0,0,.739.13,2.145,2.145,0,0,0,2.155-2.212l-1.2-48.4a17.061,17.061,0,0,0-14.2-16.482c-.283-.043-.571-.086-.859-.125a16.747,16.747,0,0,0-13.474,4.362,17.2,17.2,0,0,0-5.537,13.488Z" transform="translate(-224.904 -304.631)" fill="#ccc"/>
      <path id="Path_1893" data-name="Path 1893" d="M351.411,545.07a4.649,4.649,0,0,1-2.48-7.034l-9.922-13.194,8.562-.53,8.11,12.611a4.671,4.671,0,0,1-4.27,8.148Z" transform="translate(-264.469 -352.481)" fill="#ffb8b8"/>
      <path id="Path_1894" data-name="Path 1894" d="M331.452,496.714a2.146,2.146,0,0,1-1.174-1.164L315.33,459.935a5.758,5.758,0,0,1,10.618-4.457L340.9,491.094a2.162,2.162,0,0,1-1.155,2.827l-6.637,2.785a2.144,2.144,0,0,1-1.653.008Z" transform="translate(-251.488 -313.548)" fill="#ccc"/>
      <path id="Path_1895" data-name="Path 1895" d="M298.211,512.706l14.358-27.492a2.254,2.254,0,0,1,3.037-.953l20.841,10.884a2.254,2.254,0,0,1,.953,3.037l-14.358,27.492a2.254,2.254,0,0,1-3.038.953l-20.841-10.884a2.254,2.254,0,0,1-.953-3.038Z" transform="translate(-242.382 -330.796)" fill="#3f3d56"/>
      <path id="Path_1896" data-name="Path 1896" d="M294.954,505.915a4.649,4.649,0,0,0-7.169-2.061l-13.757-9.126L274,503.307l13.067,7.351a4.671,4.671,0,0,0,7.882-4.743Z" transform="translate(-229.496 -336.565)" fill="#ffb8b8"/>
      <path id="Path_1897" data-name="Path 1897" d="M262.312,480.575l-11.243-8.906a7.929,7.929,0,0,1-3.614-12.536l10.208-13.379a4.664,4.664,0,0,1,7.914,4.751L257.5,463.718l11.87,5.63a2.159,2.159,0,0,1,.9,3.1l-4.792,7.583a2.163,2.163,0,0,1-1.463.975l-.036.006A2.169,2.169,0,0,1,262.312,480.575Z" transform="translate(-214.248 -309.296)" fill="#ccc"/>
      <path id="Path_1898" data-name="Path 1898" d="M281.348,391.112a.986.986,0,0,1,.858-1.3,2.278,2.278,0,0,1,1.606.792,6.391,6.391,0,0,0,1.419,1.218,1.221,1.221,0,0,0,1.606-.29,2.234,2.234,0,0,0-.085-1.734,17.051,17.051,0,0,1-.753-4.514,7.948,7.948,0,0,1,1.136-4.827,6.386,6.386,0,0,1,5.472-2.327,36.775,36.775,0,0,1,6.148,1.089,2.065,2.065,0,0,0,2.01-.337,2.591,2.591,0,0,0,.1-2.312,16.055,16.055,0,0,0-2.432-5.8,8.731,8.731,0,0,0-5.572-3.137,13.369,13.369,0,0,0-6.219.706,16.676,16.676,0,0,0-8.169,5.691,13.506,13.506,0,0,0-2.577,9.979,12.319,12.319,0,0,0,4.567,7.786Z" transform="translate(-230.446 -268.131)" fill="#2f2e41"/>
      <path id="Path_1899" data-name="Path 1899" d="M579.58,696.687a21.248,21.248,0,0,1-7.886-33.026A21.25,21.25,0,1,0,600.6,694.365,21.237,21.237,0,0,1,579.58,696.687Z" transform="translate(-384.967 -427.453)" fill="#ce7900"/>
    </g>
    <g id="Layer_2" data-name="Layer 2" transform="translate(414.071 4758.999)">
      <g id="Layer_1" data-name="Layer 1" transform="translate(0.033 0.001)">
        <g transform="matrix(1, 0, 0, 1, -320.01, -353.45)" filter="url(#Path_1363)">
          <path id="Path_1363-2" data-name="Path 1363" d="M110.262,109.581c-18.8,15.2-77.94,15.2-96.753,0S-3.6,29.93,13.51,12.829s79.631-17.106,96.753,0S129.06,94.381,110.262,109.581Z" transform="translate(319.98 353.45)" fill="#ffa423"/>
        </g>
        <g id="Group_71" data-name="Group 71" transform="translate(0 0)" clip-path="url(#clip-path)">
          <path id="Path_1364" data-name="Path 1364" d="M139.715,9.335V.2h14.733V9.345a13.382,13.382,0,0,0,.645,3.963,24.028,24.028,0,0,0,2,4.461,83.143,83.143,0,0,0,7.367,10.318c1.931,2.495,3.963,5.035,5.873,7.788a46.21,46.21,0,0,1,6.457,12.29,28.193,28.193,0,0,1,1.367,8.53V68c0,11.268-8.606,16.3-19.23,16.3S139.7,79.267,139.7,68V52.935h14.733V68.019a4.511,4.511,0,1,0,9.023,0V56.695a13.555,13.555,0,0,0-.645-3.993c.406,1.331.137-.66-2.032-4.451a84.436,84.436,0,0,0-7.362-10.334c-1.931-2.474-3.978-5.025-5.893-7.763a46.337,46.337,0,0,1-6.467-12.3,27.943,27.943,0,0,1-1.341-8.515Zm38.459,3.76V.2H163.441V13.094Zm0,92.805c0-11.253-8.606-16.308-19.23-16.308s-19.23,5.055-19.23,16.308v11.472A26.931,26.931,0,0,0,140,121.12h15.023a12.84,12.84,0,0,1-.589-3.749V105.9a4.511,4.511,0,0,1,9.023,0v15.241H178.19Z" transform="translate(-68.742 -0.099)" fill="#106"/>
          <path id="Path_1365" data-name="Path 1365" d="M58.631,29.769,49.949.18H69.1V29.769Zm-15.338,0V.18H28.56V29.769ZM54.374,38.8V91.085L39.031,38.8H28.565v82.3H43.3V85.522l10.44,35.6H69.1V38.8Z" transform="translate(-14.067 -0.089)" fill="#106"/>
        </g>
      </g>
    </g>
  </g>
</svg>
