<svg xmlns="http://www.w3.org/2000/svg" width="1369.049" height="738.983" viewBox="0 0 1369.049 738.983">
  <g id="Group_3200" data-name="Group 3200" transform="translate(0.626 -3005.458)">
    <path id="Rectangle" d="M35.85,5S294.93,142.656,606.865,113.7s415.293,174.392,622.276,174.392,173.8,3.847,173.8,3.847-.036,287.84-.036,410.259c-28.452,11.747-66.78,23.166-112.655,33.415-260.655,58.238-644.329-206.45-869.911-206.45S36,620.608,36,620.608Z" transform="translate(-36.476 3000.458)" fill="rgba(255,164,35,0.2)"/>
    <g id="treasure-map-svgrepo-com" transform="matrix(0.966, 0.259, -0.259, 0.966, 1110.049, 3468.025)">
      <g id="Group_3115" data-name="Group 3115">
        <g id="Group_3114" data-name="Group 3114">
          <path id="Path_1832" data-name="Path 1832" d="M234.231,171.129a3.6,3.6,0,0,0,4.58-2.279c2.142-6.378,3.1-10.664,3.143-10.841a3.621,3.621,0,0,0-7.069-1.57c0,.04-.923,4.124-2.934,10.111A3.614,3.614,0,0,0,234.231,171.129Z" transform="translate(-133.51 -88.489)" fill="#fff"/>
          <path id="Path_1833" data-name="Path 1833" d="M208.847,219.894c-1.588,3.252-3.292,6.349-5.065,9.211a3.619,3.619,0,0,0,6.153,3.81c1.892-3.064,3.715-6.374,5.412-9.836a3.619,3.619,0,0,0-6.5-3.184Z" transform="translate(-117.08 -125.508)" fill="#fff"/>
          <path id="Path_1834" data-name="Path 1834" d="M239.438,327.844a3.617,3.617,0,0,0,5.115-5.116l-14.47-14.47a3.614,3.614,0,0,0-5.115,0l-11.913,11.913-4.678-4.678a3.612,3.612,0,0,0-5.115,0l-14.47,14.47a3.617,3.617,0,0,0,5.115,5.115l11.912-11.913,11.913,11.913a3.617,3.617,0,1,0,5.115-5.115l-4.678-4.678,9.355-9.355Z" transform="translate(-108.146 -176.966)" fill="#fff"/>
          <path id="Path_1835" data-name="Path 1835" d="M53.291,204.807l-36.085,9.919a6.727,6.727,0,0,1-6.11-1.006c-2.344-1.831-3.86-5.582-3.86-9.561V104.365l6.175-6.179a3.612,3.612,0,0,0,0-5.112L7.235,86.9V68.443c0-8.338,9.142-11.884,11.844-12.745L68.6,41.554l20.6,7.492a3.618,3.618,0,0,0,2.475-6.8L69.971,34.351a3.608,3.608,0,0,0-2.229-.076L17,48.775C6.512,52.1,0,59.634,0,68.443V88.4a3.615,3.615,0,0,0,1.06,2.558l4.678,4.678L1.06,100.311A3.609,3.609,0,0,0,0,102.868V204.16c0,6.219,2.547,12.068,6.649,15.266a13.275,13.275,0,0,0,8.3,2.829,16.789,16.789,0,0,0,4.1-.532l36.161-9.937a3.619,3.619,0,0,0-1.917-6.979Z" transform="translate(0 -19.664)" fill="#fff"/>
          <path id="Path_1836" data-name="Path 1836" d="M242.551,57.881a3.616,3.616,0,0,0,3.617-3.617V7.235h33.94l-4.616,9.236a3.608,3.608,0,0,0,0,3.234l4.616,9.236H257.022a3.617,3.617,0,1,0,0,7.235h28.941a3.614,3.614,0,0,0,3.234-5.235l-6.425-12.853L289.2,5.235A3.614,3.614,0,0,0,285.962,0H242.551a3.616,3.616,0,0,0-3.617,3.617V54.264A3.616,3.616,0,0,0,242.551,57.881Z" transform="translate(-137.642)" fill="#fff"/>
          <path id="Path_1837" data-name="Path 1837" d="M376.525,354.742a3.613,3.613,0,0,0,5.115,0l4.678-4.678L391,354.742a3.617,3.617,0,0,0,5.115-5.115l-7.236-7.235a3.613,3.613,0,0,0-5.115,0l-7.235,7.235A3.612,3.612,0,0,0,376.525,354.742Z" transform="translate(-216.292 -196.629)" fill="#fff"/>
          <path id="Path_1838" data-name="Path 1838" d="M400.827,239.992l-7.235,7.235a3.617,3.617,0,1,0,5.115,5.115l4.677-4.678,4.678,4.678a3.617,3.617,0,1,0,5.115-5.115l-7.235-7.235A3.613,3.613,0,0,0,400.827,239.992Z" transform="translate(-226.124 -137.64)" fill="#fff"/>
          <path id="Path_1839" data-name="Path 1839" d="M432.841,218.209l4.678-4.678,4.677,4.678a3.617,3.617,0,0,0,5.116-5.115l-7.236-7.235a3.613,3.613,0,0,0-5.115,0l-7.235,7.235a3.617,3.617,0,0,0,5.115,5.115Z" transform="translate(-245.787 -117.977)" fill="#fff"/>
          <path id="Path_1840" data-name="Path 1840" d="M106.535,305.987a34.9,34.9,0,0,1-9.786.26,3.618,3.618,0,1,0-.854,7.185,38.139,38.139,0,0,0,4.536.275,45.179,45.179,0,0,0,7.271-.583,3.616,3.616,0,1,0-1.168-7.137Z" transform="translate(-53.404 -176.239)" fill="#fff"/>
          <path id="Path_1841" data-name="Path 1841" d="M35.93,281.072a3.616,3.616,0,0,0-4.063,5.983,89.706,89.706,0,0,0,9.735,5.781,3.618,3.618,0,0,0,3.271-6.454A82.606,82.606,0,0,1,35.93,281.072Z" transform="translate(-17.444 -161.555)" fill="#fff"/>
          <path id="Path_1842" data-name="Path 1842" d="M305.538,194.878V86.355c0-6.595-2.214-12.144-6.081-15.23-2.322-1.856-6.443-3.766-12.973-2.275L235.838,82.868a3.618,3.618,0,0,0-2.652,3.487V238.293a3.617,3.617,0,1,0,7.235,0V89.108l47.832-13.244c2.862-.655,5.115-.344,6.693.919,2.1,1.675,3.357,5.256,3.357,9.572V193.38l-6.175,6.179a3.61,3.61,0,0,0,0,5.112l6.175,6.179v12.973c0,3.632-1.418,7.781-11.844,10.994l-49.521,14.145-56-20.363-2.135-8.107a3.617,3.617,0,0,0-5.267-2.235L165.078,223l-4.243-1.65V169.005l0,0a57.962,57.962,0,0,0,8.9-7.358,3.618,3.618,0,1,0-5.123-5.111c-1.233,1.237-2.5,2.391-3.784,3.454v-88.1a3.617,3.617,0,1,0-7.235,0V223.823a3.612,3.612,0,0,0,2.308,3.372l8.14,3.165a3.606,3.606,0,0,0,3.078-.217l5.868-3.288,1.429,5.415a3.618,3.618,0,0,0,2.261,2.482l58.883,21.412a3.641,3.641,0,0,0,1.237.217,3.523,3.523,0,0,0,.991-.141l50.718-14.488c4.211-1.3,17.025-5.238,17.025-17.929v-14.47a3.623,3.623,0,0,0-1.06-2.558l-4.678-4.678,4.678-4.678A3.63,3.63,0,0,0,305.538,194.878Z" transform="translate(-88.484 -39.326)" fill="#fff"/>
        </g>
      </g>
    </g>
    <g id="online-booking" transform="translate(69.528 3465.956) rotate(-16)">
      <path id="Path_1854" data-name="Path 1854" d="M151.564,298.668a2.167,2.167,0,0,0-1.938,1.2l-4.332,8.664a2.166,2.166,0,0,0,1.937,3.134h51.98a2.167,2.167,0,0,0,1.938-3.134l-4.333-8.664a2.165,2.165,0,0,0-1.937-1.2Zm-.828,8.663L152.9,303h40.639l2.166,4.332Zm0,0" transform="translate(-108.247 -222.863)" fill="#fff"/>
      <path id="Path_1855" data-name="Path 1855" d="M2.167,30.323H21.659a2.168,2.168,0,0,0,1.531-.635l2.8-2.8,7.131,7.131a2.165,2.165,0,0,0,1.532.635h8.663a2.163,2.163,0,0,0,1.531-.635l7.132-7.131,2.8,2.8a11.368,11.368,0,0,0,16.058,0,2.166,2.166,0,0,0,0-3.063L44.848.635A2.163,2.163,0,0,0,43.317,0H2.167A2.166,2.166,0,0,0,0,2.167V28.156a2.167,2.167,0,0,0,2.166,2.166Zm40.253,0H35.55l-6.5-6.5,3.435-3.435,4.966,4.967a2.166,2.166,0,0,0,3.063,0l4.966-4.967,3.435,3.435ZM66,27.915a7.042,7.042,0,0,1-8.16-1.291L40.516,9.3a2.166,2.166,0,1,0-3.063,3.063l4.966,4.966-3.435,3.435L34.02,15.8a2.166,2.166,0,0,0-3.063,0L20.762,25.99h-5.6V4.332H42.42ZM4.332,4.332h6.5V25.991h-6.5Zm0,0" transform="translate(0 0)" fill="#fff"/>
      <path id="Path_1856" data-name="Path 1856" d="M194.491,153.84V149.4h2.166v-4.332h-8.663V149.4h2.165v4.442a21.686,21.686,0,0,0-19.492,21.549v2.165a2.166,2.166,0,0,0,2.165,2.166h38.985a2.166,2.166,0,0,0,2.165-2.166v-2.165a21.687,21.687,0,0,0-19.493-21.549ZM175,175.389a17.326,17.326,0,1,1,34.653,0Zm0,0" transform="translate(-127.351 -108.247)" fill="#fff"/>
      <path id="Path_1857" data-name="Path 1857" d="M127.784,162.133H73.639v4.332h51.98V216.28H4.332V166.465h51.98v-4.332H2.167A2.166,2.166,0,0,0,0,164.3v54.145a2.167,2.167,0,0,0,2.166,2.166H58.478v17.975l-22.4,8.145a2.166,2.166,0,0,0,.741,4.2H93.131a2.166,2.166,0,0,0,.741-4.2l-22.4-8.145V220.611h56.312a2.166,2.166,0,0,0,2.165-2.166V164.3a2.166,2.166,0,0,0-2.166-2.166ZM49.114,246.6l11.912-4.332h7.9L80.838,246.6Zm18.027-8.663H62.809V220.611h4.332Zm0,0" transform="translate(0 -120.982)" fill="#fff"/>
      <path id="Path_1858" data-name="Path 1858" d="M214.707,212.743l-3.227-2.889a15.183,15.183,0,0,1,11.3-5.053v4.332A10.844,10.844,0,0,0,214.707,212.743Zm0,0" transform="translate(-157.805 -152.82)" fill="#fff"/>
      <path id="Path_1859" data-name="Path 1859" d="M200.6,249.675h-4.332a15.135,15.135,0,0,1,.864-5.054l4.084,1.444a10.793,10.793,0,0,0-.616,3.61Zm0,0" transform="translate(-146.452 -182.534)" fill="#fff"/>
    </g>
    <g id="outline" transform="translate(44 2994)">
      <circle id="Ellipse_7" data-name="Ellipse 7" cx="6.085" cy="6.085" r="6.085" transform="translate(40.782 136.201)" fill="#fff"/>
      <circle id="Ellipse_8" data-name="Ellipse 8" cx="6.085" cy="6.085" r="6.085" transform="translate(155.727 136.201)" fill="#fff"/>
      <path id="Path_1851" data-name="Path 1851" d="M197.78,127.11l-12.2-9.15a3.047,3.047,0,0,0-1.613-.6L142.4,114.389l-17.5-17.5A3.05,3.05,0,0,0,122.75,96H73.95a3.052,3.052,0,0,0-1.481.384L45.406,111.419l-27.018,6A3.05,3.05,0,0,0,16,120.4v18.3a3.05,3.05,0,0,0,1.686,2.728l11.309,5.654a18.3,18.3,0,0,0,34.756.768h81.4a18.3,18.3,0,0,0,34.5,0h16.3A3.05,3.05,0,0,0,199,144.8V129.55A3.05,3.05,0,0,0,197.78,127.11ZM92.25,102.1h29.237l11.953,11.953L92.25,112.724ZM46.5,153.95a12.2,12.2,0,1,1,12.2-12.2,12.2,12.2,0,0,1-12.2,12.2Zm39.65-12.2H64.8a18.3,18.3,0,0,0-36.508-1.839l-6.192-3.1V122.846l24.686-5.485,39.364,1.27Zm0-29.223-28.523-.92L74.74,102.1H86.15ZM162.4,153.95a12.2,12.2,0,1,1,12.2-12.2,12.2,12.2,0,0,1-12.2,12.2Zm30.5-12.2H180.7a18.3,18.3,0,1,0-36.6,0H92.25V118.827L140.9,120.4l41.742,2.982,10.261,7.7Z" transform="translate(0 0)" fill="#fff"/>
      <path id="Path_1852" data-name="Path 1852" d="M217.586,334.887h30.5a3.05,3.05,0,0,0,3.05-3.05v-48.8a3.05,3.05,0,0,0-3.05-3.05h-30.5a3.05,3.05,0,0,0-3.05,3.05v3.05h-5.38L197.6,280.309a33.448,33.448,0,0,0-27.361-1.138l-2.041.816H156.586a12.2,12.2,0,0,0-10.048,5.291l-17.728-8.863A12.915,12.915,0,0,0,115.032,298.1L160.8,334.231a3.05,3.05,0,0,0,1.891.656h30.5a3.044,3.044,0,0,0,.74-.091l20.61-5.152v2.194A3.05,3.05,0,0,0,217.586,334.887Zm3.05-45.75v-3.05h24.4v42.7h-24.4Zm-27.826,39.65H163.745l-44.931-35.472a6.815,6.815,0,0,1,7.27-11.444l18.358,9.179c-.035.375-.055.754-.055,1.138a12.214,12.214,0,0,0,12.2,12.2h14.663l14.7,5.882a3.05,3.05,0,0,0,1.133.218h9.58a3.05,3.05,0,0,0,0-6.1h-8.993l-14.7-5.882a3.05,3.05,0,0,0-1.133-.218h-15.25a6.1,6.1,0,0,1,0-12.2h12.2a3.05,3.05,0,0,0,1.133-.218l2.586-1.034a27.345,27.345,0,0,1,22.368.93l12.2,6.1a3.048,3.048,0,0,0,1.364.322h6.1v31.169Z" transform="translate(-58.236 -110.787)" fill="#fff"/>
      <ellipse id="Ellipse_9" data-name="Ellipse 9" cx="2.705" cy="3.381" rx="2.705" ry="3.381" transform="translate(171.954 180.827)" fill="#fff"/>
      <path id="Path_1853" data-name="Path 1853" d="M244.2,176h-9.15a3.05,3.05,0,0,0,0,6.1h9.15a3.05,3.05,0,1,0,0-6.1Z" transform="translate(-133.65 -49.5)" fill="#fff"/>
    </g>
  </g>
</svg>
