<svg xmlns="http://www.w3.org/2000/svg" width="150" height="150" viewBox="0 0 150 150">
  <g id="vision" transform="translate(0)">
    <g id="Group_3143" data-name="Group 3143" transform="translate(57.243 2.197)">
      <g id="Group_3141" data-name="Group 3141">
        <path id="Path_1937" data-name="Path 1937" d="M223.505,65.21V31.176h7.4L213.147,7.5,195.39,31.176h7.4V65.21Z" transform="translate(-195.39 -7.5)" fill="#ffa423"/>
      </g>
      <g id="Group_3142" data-name="Group 3142" transform="translate(7.399 50.311)">
        <path id="Path_1938" data-name="Path 1938" d="M241.36,179.9a80.244,80.244,0,0,0-20.716,0v6.727H241.36V179.9Z" transform="translate(-220.644 -179.227)" fill="#e98c08"/>
      </g>
    </g>
    <g id="Group_3146" data-name="Group 3146" transform="translate(103.707 26.169)">
      <g id="Group_3144" data-name="Group 3144">
        <path id="Path_1939" data-name="Path 1939" d="M382.1,147.033V113h7.4L371.743,89.323,353.986,113h7.4v34.034Z" transform="translate(-353.986 -89.323)" fill="#ffa423"/>
      </g>
      <g id="Group_3145" data-name="Group 3145" transform="translate(7.399 34.843)">
        <path id="Path_1940" data-name="Path 1940" d="M379.24,208.253V231.12h20.716v-9A97.284,97.284,0,0,0,379.24,208.253Z" transform="translate(-379.24 -208.253)" fill="#e98c08"/>
      </g>
    </g>
    <g id="Group_3149" data-name="Group 3149" transform="translate(10.78 26.169)">
      <g id="Group_3147" data-name="Group 3147">
        <path id="Path_1941" data-name="Path 1941" d="M44.194,147.033V113h-7.4L54.552,89.323,72.308,113h-7.4v34.034Z" transform="translate(-36.795 -89.323)" fill="#ffa423"/>
      </g>
      <g id="Group_3148" data-name="Group 3148" transform="translate(7.399 34.843)">
        <path id="Path_1942" data-name="Path 1942" d="M62.049,222.123v9H82.765V208.253A97.284,97.284,0,0,0,62.049,222.123Z" transform="translate(-62.049 -208.253)" fill="#e98c08"/>
      </g>
    </g>
    <g id="Group_3150" data-name="Group 3150" transform="translate(2.197 59.019)">
      <path id="Path_1943" data-name="Path 1943" d="M80.3,201.451c-47.351,0-72.8,44.392-72.8,44.392s25.451,44.392,72.8,44.392,72.8-44.392,72.8-44.392S127.654,201.451,80.3,201.451Z" transform="translate(-7.5 -201.451)" fill="#f6f9f9"/>
    </g>
    <g id="Group_3151" data-name="Group 3151" transform="translate(28.697 91.103)">
      <path id="Path_1944" data-name="Path 1944" d="M148.245,356.408c-18.96,4.082-36.123,1.02-50.294-4.534,11.732,8.6,27.242,15.791,46.3,15.791,47.351,0,72.8-44.392,72.8-44.392a90.181,90.181,0,0,0-9.031-12.308c-10.153,16.824-28.894,38.792-59.781,45.442Z" transform="translate(-97.951 -310.966)" fill="#f1f4f6"/>
    </g>
    <g id="Group_3152" data-name="Group 3152" transform="translate(45.406 73.816)">
      <circle id="Ellipse_25" data-name="Ellipse 25" cx="29.595" cy="29.595" r="29.595" fill="#cbe2ff"/>
    </g>
    <g id="Group_3156" data-name="Group 3156" transform="translate(60.795 90.093)">
      <g id="Group_3153" data-name="Group 3153" transform="translate(18.941)">
        <path id="Path_1945" data-name="Path 1945" d="M272.163,307.518h9.47v27.227h-9.47Z" transform="translate(-272.163 -307.518)" fill="#fe646f"/>
      </g>
      <g id="Group_3154" data-name="Group 3154" transform="translate(9.47 6.215)">
        <path id="Path_1946" data-name="Path 1946" d="M239.837,328.732h9.47v21.012h-9.47Z" transform="translate(-239.837 -328.732)" fill="#8ac9fe"/>
      </g>
      <g id="Group_3155" data-name="Group 3155" transform="translate(0 12.134)">
        <path id="Path_1947" data-name="Path 1947" d="M207.512,348.935h9.47v15.093h-9.47Z" transform="translate(-207.512 -348.935)" fill="#ae9eff"/>
      </g>
    </g>
    <g id="Group_3157" data-name="Group 3157" transform="translate(0)">
      <path id="Path_1948" data-name="Path 1948" d="M149.709,102.318a100.748,100.748,0,0,0-15.69-19.536V70.762a2.2,2.2,0,0,0-4.395,0v7.929A95.418,95.418,0,0,0,113.3,67.037V49.844a2.2,2.2,0,0,0-2.2-2.2h-3l13.362-17.816,13.362,17.816h-3a2.2,2.2,0,0,0-2.2,2.2V60.5a2.2,2.2,0,1,0,4.395,0V52.042h5.2a2.2,2.2,0,0,0,1.758-3.516L123.221,24.851a2.2,2.2,0,0,0-3.516,0L101.949,48.526a2.2,2.2,0,0,0,1.758,3.516h5.2V64.736q-.817-.4-1.638-.777a77.694,77.694,0,0,0-19.715-6.1V45.525a2.2,2.2,0,0,0-4.395,0V57.259a76.346,76.346,0,0,0-16.321,0V25.873a2.2,2.2,0,0,0-2.2-2.2h-3L75,5.859,88.362,23.676h-3a2.2,2.2,0,0,0-2.2,2.2v9.352a2.2,2.2,0,0,0,4.395,0V28.07h5.2a2.2,2.2,0,0,0,1.758-3.516L76.758.879a2.2,2.2,0,0,0-3.516,0L55.486,24.555a2.2,2.2,0,0,0,1.758,3.516h5.2V57.862a77.676,77.676,0,0,0-19.715,6.1q-.821.378-1.638.777V52.042h5.2a2.2,2.2,0,0,0,1.758-3.516L30.294,24.85a2.2,2.2,0,0,0-3.516,0L9.022,48.526a2.2,2.2,0,0,0,1.758,3.516h5.2V60.5a2.2,2.2,0,1,0,4.395,0V49.845a2.2,2.2,0,0,0-2.2-2.2h-3L28.537,29.831,41.9,47.647h-3a2.2,2.2,0,0,0-2.2,2.2V67.037A95.432,95.432,0,0,0,20.376,78.691V70.762a2.2,2.2,0,1,0-4.395,0v12.02A100.753,100.753,0,0,0,.291,102.318a2.2,2.2,0,0,0,0,2.186,103.313,103.313,0,0,0,19.078,22.734A92.974,92.974,0,0,0,42.73,142.863a76.523,76.523,0,0,0,64.54,0,92.966,92.966,0,0,0,23.361-15.625A103.311,103.311,0,0,0,149.709,104.5,2.2,2.2,0,0,0,149.709,102.318Zm-22.129,21.753c-10.9,9.824-28.874,21.535-52.581,21.535S33.322,133.895,22.42,124.071a104.136,104.136,0,0,1-17.646-20.66A104.168,104.168,0,0,1,22.42,82.751C33.322,72.927,51.294,61.216,75,61.216s41.678,11.711,52.581,21.535a104.13,104.13,0,0,1,17.646,20.66A104.157,104.157,0,0,1,127.581,124.071Z" transform="translate(0)"/>
      <path id="Path_1949" data-name="Path 1949" d="M179.276,244.459a31.792,31.792,0,1,0,31.792,31.792,31.828,31.828,0,0,0-31.792-31.792Zm0,59.189a27.4,27.4,0,1,1,27.4-27.4A27.428,27.428,0,0,1,179.276,303.648Z" transform="translate(-104.276 -172.84)"/>
      <path id="Path_1950" data-name="Path 1950" d="M230.62,300.019h-9.47a2.2,2.2,0,0,0-2.2,2.2v4.017h-7.273a2.2,2.2,0,0,0-2.2,2.2v3.722h-7.273a2.2,2.2,0,0,0-2.2,2.2v15.093a2.2,2.2,0,0,0,2.2,2.2H230.62a2.2,2.2,0,0,0,2.2-2.2V302.216a2.2,2.2,0,0,0-2.2-2.2Zm-26.214,16.528h5.076v10.7h-5.076Zm9.47-5.919h5.076v16.618h-5.076Zm14.546,16.618h-5.076V304.413h5.076Z" transform="translate(-141.415 -212.123)"/>
      <path id="Path_1951" data-name="Path 1951" d="M395.877,345.476H384.039a2.2,2.2,0,0,0,0,4.395h11.838a2.2,2.2,0,0,0,0-4.395Z" transform="translate(-269.974 -244.262)"/>
      <path id="Path_1952" data-name="Path 1952" d="M386.927,377.8h-5.919a2.2,2.2,0,0,0,0,4.395h5.919a2.2,2.2,0,0,0,0-4.395Z" transform="translate(-267.831 -267.117)"/>
      <path id="Path_1953" data-name="Path 1953" d="M381.007,317.545h5.919a2.2,2.2,0,0,0,0-4.395h-5.919a2.2,2.2,0,1,0,0,4.395Z" transform="translate(-267.831 -221.407)"/>
      <path id="Path_1954" data-name="Path 1954" d="M90.985,347.673a2.2,2.2,0,0,0-2.2-2.2H76.949a2.2,2.2,0,0,0,0,4.395H88.787A2.2,2.2,0,0,0,90.985,347.673Z" transform="translate(-52.852 -244.262)"/>
      <path id="Path_1955" data-name="Path 1955" d="M106.1,377.8h-5.919a2.2,2.2,0,0,0,0,4.395H106.1a2.2,2.2,0,1,0,0-4.395Z" transform="translate(-69.279 -267.117)"/>
      <path id="Path_1956" data-name="Path 1956" d="M106.1,313.15h-5.919a2.2,2.2,0,0,0,0,4.395H106.1a2.2,2.2,0,1,0,0-4.395Z" transform="translate(-69.279 -221.407)"/>
    </g>
  </g>
</svg>
