<svg xmlns="http://www.w3.org/2000/svg" width="194.589" height="532.193" viewBox="0 0 194.589 532.193">
  <g id="Group_3117" data-name="Group 3117" transform="translate(-1064.458 -2355.376)">
    <path id="Path_1843" data-name="Path 1843" d="M1200.616,2364.226s100.014,214.248,79.616,337.649-161.209,155.954-161.209,155.954" transform="translate(-25 13.796)" fill="none" stroke="#ffa423" stroke-linecap="round" stroke-linejoin="round" stroke-width="2" stroke-dasharray="10"/>
    <path id="Path_1845" data-name="Path 1845" d="M28.453,28.254c-4.847,3.919-20.1,3.919-24.946,0S-.9,7.718,3.507,3.309s20.531-4.41,24.946,0S33.3,24.335,28.453,28.254Z" transform="translate(1064.426 2856.375)" fill="#106"/>
    <path id="Path_1846" data-name="Path 1846" d="M1200.616,2364.226s100.014,214.248,79.616,337.649-161.209,155.954-161.209,155.954" transform="translate(-25 13.796)" fill="none" stroke="#106" stroke-linecap="round" stroke-linejoin="round" stroke-width="2" stroke-dasharray="22"/>
    <path id="Path_1847" data-name="Path 1847" d="M28.453,28.254c-4.847,3.919-20.1,3.919-24.946,0S-.9,7.718,3.507,3.309s20.531-4.41,24.946,0S33.3,24.335,28.453,28.254Z" transform="translate(1150.02 2355.375)" fill="#ffa423"/>
  </g>
</svg>
